<?xml version="1.0" encoding="UTF-8"?>
<svg version="1.1" xmlns="http://www.w3.org/2000/svg" width="170" height="170">
<path d="M0 0 C56.1 0 112.2 0 170 0 C170 56.1 170 112.2 170 170 C113.9 170 57.8 170 0 170 C0 113.9 0 57.8 0 0 Z " fill="#FCFDFE" transform="translate(0,0)"/>
<path d="M0 0 C4 2 4 2 5.25 4.75 C6.68806302 10.66624174 6.15076478 16.96103313 6 23 C5.34 23 4.68 23 4 23 C3.34 18.71 2.68 14.42 2 10 C1.01 10.33 0.02 10.66 -1 11 C-1.10871967 13.54283234 -1.18762401 16.08095088 -1.25 18.625 C-1.28351563 19.33785156 -1.31703125 20.05070312 -1.3515625 20.78515625 C-1.44786733 26.03376933 -0.34695817 28.77094631 3 33 C9.1255818 42.5286828 8.23467987 55.96519608 6.328125 66.828125 C5.6495368 69.27360324 4.92877838 71.63935494 4 74 C2.02 74.495 2.02 74.495 0 75 C-0.66 73.68 -1.32 72.36 -2 71 C-4.96731398 72.83656989 -4.96731398 72.83656989 -7 75 C-10.96 75 -14.92 75 -19 75 C-19 50.58 -19 26.16 -19 1 C-15.04 1 -11.08 1 -7 1 C-6.67 3.31 -6.34 5.62 -6 8 C-4.02 5.36 -2.04 2.72 0 0 Z " fill="#EEF7F9" transform="translate(70,35)"/>
<path d="M0 0 C1.8125 0.0625 1.8125 0.0625 4 1 C6.7166373 5.85113803 7.34469404 9.36999727 7 15 C7.66 15 8.32 15 9 15 C9.33 15.66 9.66 16.32 10 17 C10.33 11.72 10.66 6.44 11 1 C11.99 1 12.98 1 14 1 C14 25.42 14 49.84 14 75 C11.36 75 8.72 75 6 75 C4.515 75.99 4.515 75.99 3 77 C-1.86624922 74.10655452 -2.98114334 71.02146005 -4.421875 65.828125 C-5.75745567 59.29460873 -6.15821888 52.90369337 -6.16796875 46.2578125 C-6.17296135 45.04519241 -6.17296135 45.04519241 -6.17805481 43.80807495 C-6.18308519 42.1088721 -6.18546435 40.40965951 -6.18530273 38.71044922 C-6.18748825 36.13882871 -6.20568288 33.5676386 -6.22460938 30.99609375 C-6.2996355 9.65944109 -6.2996355 9.65944109 0 0 Z " fill="#ECF8F8" transform="translate(113,35)"/>
<path d="M0 0 C1.32 0 2.64 0 4 0 C5.73756901 9.29397378 6.31886896 18.32406499 6.46414185 27.74230957 C6.66225579 40.21590041 7.18139076 52.55007271 8.59765625 64.953125 C9.01232869 68.65975303 9.07396701 72.27206279 9 76 C8.34 76 7.68 76 7 76 C6.34 68.74 5.68 61.48 5 54 C2.69 54 0.38 54 -2 54 C-1.98839844 55.00160156 -1.97679687 56.00320312 -1.96484375 57.03515625 C-1.95545602 58.37760228 -1.94635688 59.72005036 -1.9375 61.0625 C-1.92589844 62.37347656 -1.91429687 63.68445313 -1.90234375 65.03515625 C-1.99547665 68.8163519 -2.38551274 72.27920707 -3 76 C-3.99 76 -4.98 76 -6 76 C-6.495 68.575 -6.495 68.575 -7 61 C-7.33 65.62 -7.66 70.24 -8 75 C-9.485 75.495 -9.485 75.495 -11 76 C-11 54.88 -11 33.76 -11 12 C-12.65 12 -14.3 12 -16 12 C-16 9.03 -16 6.06 -16 3 C-15.01257813 3.03480469 -14.02515625 3.06960937 -13.0078125 3.10546875 C-11.08582031 3.14607422 -11.08582031 3.14607422 -9.125 3.1875 C-7.84882813 3.22230469 -6.57265625 3.25710937 -5.2578125 3.29296875 C-4.18273437 3.19628906 -3.10765625 3.09960938 -2 3 C-1.34 2.01 -0.68 1.02 0 0 Z " fill="#F3FDFD" transform="translate(145,33)"/>
<path d="M0 0 C0.99 0.33 1.98 0.66 3 1 C3.65673481 8.91069813 4.30900779 16.82174668 4.95575714 24.73326683 C5.25628026 28.40780832 5.55827645 32.08221575 5.86376953 35.75634766 C6.15912672 39.30925865 6.4504441 42.86248085 6.73908997 46.41594315 C6.90254184 48.41557279 7.07005931 50.41486879 7.2376709 52.41415405 C7.79289896 59.29479262 8.15835097 66.09652611 8 73 C7.34 73 6.68 73 6 73 C5.34 66.07 4.68 59.14 4 52 C2.02 52 0.04 52 -2 52 C-2.33 58.93 -2.66 65.86 -3 73 C-3.66 73 -4.32 73 -5 73 C-5.44033601 57.14178782 -4.05774957 41.58340757 -2.5 25.8125 C-2.25829235 23.29760493 -2.01740141 20.78263123 -1.77734375 18.26757812 C-1.19428903 12.17744864 -0.60123362 6.08836031 0 0 Z " fill="#3B8A8A" transform="translate(29,36)"/>
<path d="M0 0 C0.66 0 1.32 0 2 0 C4.74322311 24.29319224 6.88174076 48.57486392 8 73 C7.34 73 6.68 73 6 73 C5.34 65.74 4.68 58.48 4 51 C1.69 51 -0.62 51 -3 51 C-2.98839844 52.00160156 -2.97679687 53.00320312 -2.96484375 54.03515625 C-2.95545602 55.37760228 -2.94635688 56.72005036 -2.9375 58.0625 C-2.92589844 59.37347656 -2.91429687 60.68445313 -2.90234375 62.03515625 C-2.99547665 65.8163519 -3.38551274 69.27920707 -4 73 C-4.66 73 -5.32 73 -6 73 C-6.15445912 64.18633085 -5.68913244 55.51794131 -4.94140625 46.73828125 C-4.8327977 45.4258696 -4.72418915 44.11345795 -4.61228943 42.76127625 C-4.38428737 40.01220307 -4.15280659 37.26345254 -3.91870117 34.51489258 C-3.61847682 30.98694799 -3.32694678 27.45834595 -3.03788853 23.92947102 C-2.76019613 20.55286269 -2.47553245 17.17685439 -2.19140625 13.80078125 C-2.08719864 12.53116043 -1.98299103 11.26153961 -1.87562561 9.95344543 C-1.77559738 8.79100815 -1.67556915 7.62857086 -1.57250977 6.4309082 C-1.48590591 5.40342972 -1.39930206 4.37595123 -1.31007385 3.31733704 C-1 1 -1 1 0 0 Z " fill="#368585" transform="translate(146,36)"/>
<path d="M0 0 C1.8125 0.0625 1.8125 0.0625 4 1 C8.36059201 7.54088802 7.26217922 15.45506478 7 23 C6.67 23 6.34 23 6 23 C5.86722656 22.22914062 5.73445313 21.45828125 5.59765625 20.6640625 C5.42105469 19.66117188 5.24445313 18.65828125 5.0625 17.625 C4.88847656 16.62726562 4.71445313 15.62953125 4.53515625 14.6015625 C4.12287938 12.03090344 4.12287938 12.03090344 3 10 C2.01 10 1.02 10 0 10 C-3.21931892 18.019673 -3.43410101 25.80327708 -3.33618164 34.30419922 C-3.3125416 36.49614271 -3.31564685 38.68686687 -3.32226562 40.87890625 C-3.95879103 53.60150577 -3.95879103 53.60150577 0.57299805 64.75976562 C1.04390869 65.16904297 1.51481934 65.57832031 2 66 C5.2407812 61.59497033 5.52264789 57.95805746 5.6875 52.6875 C5.72166016 51.94693359 5.75582031 51.20636719 5.79101562 50.44335938 C5.87293554 48.62941836 5.93815822 46.81473647 6 45 C4.35 45 2.7 45 1 45 C1 42.36 1 39.72 1 37 C3.31 37 5.62 37 8 37 C8.11712011 41.47894321 8.1875608 45.95748714 8.25 50.4375 C8.30027344 52.32758789 8.30027344 52.32758789 8.3515625 54.25585938 C8.49964625 68.43487808 8.49964625 68.43487808 4 74 C1.86035156 74.72827148 1.86035156 74.72827148 0 75 C-5.75946505 66.36080243 -6.15320276 56.32287509 -6.16796875 46.2578125 C-6.17296135 45.04519241 -6.17296135 45.04519241 -6.17805481 43.80807495 C-6.18308519 42.1088721 -6.18546435 40.40965951 -6.18530273 38.71044922 C-6.18748825 36.13882871 -6.20568288 33.5676386 -6.22460938 30.99609375 C-6.2996355 9.65944109 -6.2996355 9.65944109 0 0 Z " fill="#238282" transform="translate(113,35)"/>
<path d="M0 0 C1.875 0.5625 1.875 0.5625 4 2 C6.99887282 8.5975202 6.17733153 15.89688705 6 23 C5.34 23 4.68 23 4 23 C3.34 18.71 2.68 14.42 2 10 C1.01 10.33 0.02 10.66 -1 11 C-1.10871967 13.54283234 -1.18762401 16.08095088 -1.25 18.625 C-1.30027344 19.69427734 -1.30027344 19.69427734 -1.3515625 20.78515625 C-1.44786733 26.03376933 -0.34695817 28.77094631 3 33 C9.1255818 42.5286828 8.23467987 55.96519608 6.328125 66.828125 C5.6495368 69.27360324 4.92877838 71.63935494 4 74 C2.02 74.495 2.02 74.495 0 75 C-4.56039763 68.67428716 -5.13455708 64.39760788 -5.0625 56.6875 C-5.05347656 55.43324219 -5.04445313 54.17898437 -5.03515625 52.88671875 C-5.02355469 51.93410156 -5.01195313 50.98148438 -5 50 C-4.34 50 -3.68 50 -3 50 C-2.95101562 50.73605469 -2.90203125 51.47210938 -2.8515625 52.23046875 C-2.77679688 53.20628906 -2.70203125 54.18210938 -2.625 55.1875 C-2.55539063 56.15042969 -2.48578125 57.11335938 -2.4140625 58.10546875 C-1.99784147 61.01508938 -1.20125904 63.32890774 0 66 C0.66 66 1.32 66 2 66 C5.49676077 60.35138644 4.85808113 53.3434442 4 47 C2.49757645 43.83824182 0.74010356 41.22155219 -1.30859375 38.390625 C-6.84681651 30.56292909 -5.84371745 18.48430037 -4.65234375 9.328125 C-3.82530599 5.63077973 -2.56570408 2.79894991 0 0 Z " fill="#191997" transform="translate(70,35)"/>
<path d="M0 0 C7 0 7 0 8.86425781 1.15844727 C14.00029552 9.48629172 12.30760788 23.51816175 12.26074219 32.98413086 C12.2500024 35.56192458 12.26070655 38.13902391 12.2734375 40.71679688 C12.29876324 65.79983636 12.29876324 65.79983636 7 72 C4.69 72 2.38 72 0 72 C0 48.24 0 24.48 0 0 Z M2 8 C2 26.48 2 44.96 2 64 C4.475 63.505 4.475 63.505 7 63 C10.58204161 57.62693759 10.15902595 51.60198826 10.16796875 45.34765625 C10.17129715 44.52929794 10.17462555 43.71093964 10.17805481 42.86778259 C10.18309725 41.14403848 10.18546397 39.42028469 10.18530273 37.6965332 C10.18749023 35.07421662 10.2056771 32.45232049 10.22460938 29.83007812 C10.22754375 28.14843893 10.22952825 26.46679775 10.23046875 24.78515625 C10.23765427 24.00890396 10.24483978 23.23265167 10.25224304 22.43287659 C10.3117477 14.66881746 10.3117477 14.66881746 7 8 C5.35 8 3.7 8 2 8 Z " fill="#080696" transform="translate(86,37)"/>
<path d="M0 0 C0.99 0 1.98 0 3 0 C3 24.42 3 48.84 3 74 C0.36 74 -2.28 74 -5 74 C-6.485 74.99 -6.485 74.99 -8 76 C-8.66 75.34 -9.32 74.68 -10 74 C-9.38125 73.46375 -8.7625 72.9275 -8.125 72.375 C-4.10978082 67.8874021 -3.74107071 62.91366357 -3.5859375 57.0703125 C-3.54726562 55.78125 -3.50859375 54.4921875 -3.46875 53.1640625 C-3.43730242 51.81771293 -3.40605489 50.47135868 -3.375 49.125 C-3.33676959 47.75518486 -3.29771499 46.38539245 -3.2578125 45.015625 C-3.16377285 41.67721737 -3.07811943 38.33881186 -3 35 C-2.67 35 -2.34 35 -2 35 C-1.34 23.45 -0.68 11.9 0 0 Z " fill="#8ABABC" transform="translate(124,36)"/>
<path d="M0 0 C3.63 0 7.26 0 11 0 C11 2.97 11 5.94 11 9 C8.03 9 5.06 9 2 9 C2 16.59 2 24.18 2 32 C4.97 32 7.94 32 11 32 C11 34.64 11 37.28 11 40 C8.03 40 5.06 40 2 40 C2 48.25 2 56.5 2 65 C4.97 65 7.94 65 11 65 C11 67.64 11 70.28 11 73 C7.37 73 3.74 73 0 73 C0 48.91 0 24.82 0 0 Z " fill="#3E8B8E" transform="translate(51,36)"/>
<path d="M0 0 C2.6317496 0.96497485 3.77878021 1.58828539 5.125 4.09375 C6.21257916 7.70606651 6.21780465 11.08246709 6.125 14.8125 C6.11597656 15.50537109 6.10695313 16.19824219 6.09765625 16.91210938 C6.07426157 18.60822395 6.03839641 20.30415871 6 22 C5.67 22 5.34 22 5 22 C4.01 18.04 3.02 14.08 2 10 C1.01 10.33 0.02 10.66 -1 11 C-3.1467532 15.87898455 -2.46781165 21.62118671 -0.8125 26.5 C0.89470147 29.7966649 2.76592727 32.79209168 4.9140625 35.8125 C7.70687421 41.43830775 7.18260866 48.2793079 7.1875 54.4375 C7.19974609 55.24509766 7.21199219 56.05269531 7.22460938 56.88476562 C7.24048769 63.45309679 6.73379939 69.39930092 3 75 C1.1875 74.875 1.1875 74.875 -1 74 C-4.59185512 68.14660646 -5.13073025 62.94229458 -5.0625 56.1875 C-5.05347656 55.02605469 -5.04445313 53.86460938 -5.03515625 52.66796875 C-5.02355469 51.78753906 -5.01195312 50.90710938 -5 50 C-4.34 50 -3.68 50 -3 50 C-2.86722656 50.80824219 -2.73445312 51.61648437 -2.59765625 52.44921875 C-2.42105469 53.51785156 -2.24445312 54.58648437 -2.0625 55.6875 C-1.80146484 57.27111328 -1.80146484 57.27111328 -1.53515625 58.88671875 C-1.06832879 61.60249604 -0.55577384 64.30124235 0 67 C3.03139521 65.39300411 3.03139521 65.39300411 3.65625 63.3203125 C4.88513876 55.02531337 5.65527276 47.31114505 0.5625 40.25 C-0.07558594 39.49203125 -0.71367187 38.7340625 -1.37109375 37.953125 C-5.51110314 32.98908496 -4.26470158 25.79613815 -4.3125 19.6875 C-4.34150391 18.46353516 -4.37050781 17.23957031 -4.40039062 15.97851562 C-4.47905802 4.85010425 -4.47905802 4.85010425 0 0 Z " fill="#2E7D7F" transform="translate(15,35)"/>
<path d="M0 0 C0.99 0 1.98 0 3 0 C3 24.09 3 48.18 3 73 C2.01 73 1.02 73 0 73 C-0.33 69.37 -0.66 65.74 -1 62 C-1.99 62.66 -2.98 63.32 -4 64 C-3.67 51.13 -3.34 38.26 -3 25 C-2.34 25.99 -1.68 26.98 -1 28 C-0.67 18.76 -0.34 9.52 0 0 Z " fill="#84B3B9" transform="translate(101,36)"/>
<path d="M0 0 C3.96 0 7.92 0 12 0 C12 2.97 12 5.94 12 9 C10.35 9 8.7 9 7 9 C7 30.12 7 51.24 7 73 C6.34 73 5.68 73 5 73 C5 51.88 5 30.76 5 9 C3.35 9 1.7 9 0 9 C0 6.03 0 3.06 0 0 Z " fill="#2A8788" transform="translate(129,36)"/>
<path d="M0 0 C0.66 0 1.32 0 2 0 C2 21.45 2 42.9 2 65 C4.64 65 7.28 65 10 65 C10 67.64 10 70.28 10 73 C6.7 73 3.4 73 0 73 C0 48.91 0 24.82 0 0 Z " fill="#3B7C7C" transform="translate(39,36)"/>
<path d="M0 0 C0.66 0 1.32 0 2 0 C2 21.12 2 42.24 2 64 C4.31 64 6.62 64 9 64 C9 66.97 9 69.94 9 73 C6.03 73 3.06 73 0 73 C0 48.91 0 24.82 0 0 Z " fill="#36888F" transform="translate(156,36)"/>
<path d="M0 0 C0.33 0 0.66 0 1 0 C1 23.76 1 47.52 1 72 C4.3 72 7.6 72 11 72 C11 72.33 11 72.66 11 73 C8.52076199 73.02685095 6.0418116 73.04676547 3.5625 73.0625 C2.85544922 73.07087891 2.14839844 73.07925781 1.41992188 73.08789062 C-0.38693559 73.09653588 -2.19387603 73.05220011 -4 73 C-5 72 -5 72 -5.11352539 70.23413086 C-5.10828857 69.48526611 -5.10305176 68.73640137 -5.09765625 67.96484375 C-5.09443359 67.15595703 -5.09121094 66.34707031 -5.08789062 65.51367188 C-5.07951172 64.66353516 -5.07113281 63.81339844 -5.0625 62.9375 C-5.05798828 62.08349609 -5.05347656 61.22949219 -5.04882812 60.34960938 C-5.03700373 58.23304337 -5.01906769 56.11651315 -5 54 C-4.67 54 -4.34 54 -4 54 C-3.22959149 60.06696699 -2.90293888 65.88514973 -3 72 C-2.34 72 -1.68 72 -1 72 C-1.0501123 71.42529968 -1.10022461 70.85059937 -1.15185547 70.25848389 C-1.67708128 64.2232999 -2.19504586 58.18752261 -2.70898438 52.15136719 C-2.90117004 49.90511657 -3.09514561 47.65901829 -3.29101562 45.41308594 C-3.57383719 42.16640982 -3.85000515 38.91922232 -4.125 35.671875 C-4.21249512 34.68386902 -4.29999023 33.69586304 -4.39013672 32.67791748 C-4.96619009 25.77179675 -5.09623787 18.92855391 -5 12 C-4.67 12 -4.34 12 -4 12 C-3.17703759 15.72895422 -2.74614151 19.36888484 -2.46484375 23.17578125 C-2.38613037 24.21903564 -2.30741699 25.26229004 -2.22631836 26.3371582 C-2.1310083 27.649021 -2.03569824 28.96088379 -1.9375 30.3125 C-1.628125 34.499375 -1.31875 38.68625 -1 43 C-0.67 28.81 -0.34 14.62 0 0 Z " fill="#D4F6F6" transform="translate(38,37)"/>
<path d="M0 0 C0.33 0 0.66 0 1 0 C3.22272266 13.27159648 3.60783527 26.5691552 4 40 C3.34 40 2.68 40 2 40 C1.34 33.07 0.68 26.14 0 19 C-1.98 19 -3.96 19 -6 19 C-6.33 25.93 -6.66 32.86 -7 40 C-7.66 40 -8.32 40 -9 40 C-9.23209701 28.13726393 -8.81242503 16.73221561 -7 5 C-6.67 5 -6.34 5 -6 5 C-5.67 6.65 -5.34 8.3 -5 10 C-3.35 10.33 -1.7 10.66 0 11 C0 7.37 0 3.74 0 0 Z " fill="#1E7879" transform="translate(33,69)"/>
<path d="M0 0 C0.33 0 0.66 0 1 0 C1 23.76 1 47.52 1 72 C3.97 72 6.94 72 10 72 C10 72.33 10 72.66 10 73 C3.565 73.99 3.565 73.99 -3 75 C-4.60725635 71.78548731 -4.05748185 68.56387464 -4 65 C-3.67 65 -3.34 65 -3 65 C-3 67.31 -3 69.62 -3 72 C-2.34 72 -1.68 72 -1 72 C-1.09087891 71.20940186 -1.18175781 70.41880371 -1.27539062 69.60424805 C-1.68994252 65.96602368 -2.095025 62.32680233 -2.5 58.6875 C-2.64308594 57.44419922 -2.78617188 56.20089844 -2.93359375 54.91992188 C-3.74312273 47.57633755 -4.20614601 40.38785311 -4 33 C-3.67 33.99 -3.34 34.98 -3 36 C-2.34 36 -1.68 36 -1 36 C-0.67 24.12 -0.34 12.24 0 0 Z " fill="#C5E5E6" transform="translate(155,37)"/>
<path d="M0 0 C0.66 0.33 1.32 0.66 2 1 C4.70891538 10.72041216 4.27856598 21.15403056 4.20581055 31.14892578 C4.18743285 33.75953888 4.18530248 36.36979729 4.18554688 38.98046875 C4.18063372 40.66927385 4.17480628 42.35807659 4.16796875 44.046875 C4.16685593 44.81271912 4.1657431 45.57856323 4.16459656 46.36761475 C4.11902423 51.64048083 3.65012933 56.76653994 3 62 C2.505 60.515 2.505 60.515 2 59 C1.34 58.67 0.68 58.34 0 58 C0.24230347 56.78268188 0.24230347 56.78268188 0.48950195 55.54077148 C1.08045717 51.44195584 1.16205734 47.48192452 1.16796875 43.34765625 C1.17129715 42.52929794 1.17462555 41.71093964 1.17805481 40.86778259 C1.18309725 39.14403848 1.18546397 37.42028469 1.18530273 35.6965332 C1.18749023 33.07421662 1.2056771 30.45232049 1.22460938 27.83007812 C1.22754375 26.14843893 1.22952825 24.46679775 1.23046875 22.78515625 C1.23765427 22.00890396 1.24483978 21.23265167 1.25224304 20.43287659 C1.23211389 15.58550761 0.53721787 11.60251484 -1 7 C-2.65 6.67 -4.3 6.34 -6 6 C-6 24.15 -6 42.3 -6 61 C-6.33 61 -6.66 61 -7 61 C-7 42.52 -7 24.04 -7 5 C-4.69 5 -2.38 5 0 5 C0 3.35 0 1.7 0 0 Z " fill="#252B9D" transform="translate(94,39)"/>
<path d="M0 0 C3.38200148 2.77826346 4.8744314 4.19214608 5.55859375 8.59375 C5.51863281 9.8828125 5.47867187 11.171875 5.4375 12.5 C5.41558594 13.7890625 5.39367188 15.078125 5.37109375 16.40625 C5.02764022 19.73232625 4.61504878 22.08529916 3 25 C2.01 25.33 1.02 25.66 0 26 C-2.5915262 20.06108578 -3.40368295 15.45892714 -3 9 C-3.66 9 -4.32 9 -5 9 C-4.67 14.61 -4.34 20.22 -4 26 C-6.52775351 22.20836973 -6.22443035 19.19125969 -6.125 14.8125 C-6.11597656 14.06291016 -6.10695313 13.31332031 -6.09765625 12.54101562 C-6.07412578 10.69387346 -6.03825561 8.84689588 -6 7 C-4.68 6.67 -3.36 6.34 -2 6 C-1.855625 5.195625 -1.71125 4.39125 -1.5625 3.5625 C-1 1 -1 1 0 0 Z " fill="#F1FBFA" transform="translate(15,76)"/>
<path d="M0 0 C0.33 0 0.66 0 1 0 C1 3.3 1 6.6 1 10 C3.97 10.495 3.97 10.495 7 11 C7 8.69 7 6.38 7 4 C7.33 4 7.66 4 8 4 C8.50617935 8.52016366 9.00384437 13.04122599 9.5 17.5625 C9.64308594 18.83931641 9.78617188 20.11613281 9.93359375 21.43164062 C10.06894531 22.67236328 10.20429688 23.91308594 10.34375 25.19140625 C10.46943359 26.32779541 10.59511719 27.46418457 10.72460938 28.63500977 C11.0086196 32.1053227 11.04642989 35.51969272 11 39 C10.34 39 9.68 39 9 39 C8.34 31.74 7.68 24.48 7 17 C4.69 17 2.38 17 0 17 C0.01160156 18.00160156 0.02320313 19.00320312 0.03515625 20.03515625 C0.04454398 21.37760228 0.05364312 22.72005036 0.0625 24.0625 C0.07410156 25.37347656 0.08570313 26.68445313 0.09765625 28.03515625 C0.00452335 31.8163519 -0.38551274 35.27920707 -1 39 C-1.66 39 -2.32 39 -3 39 C-3.29912044 31.12316187 -2.77809428 23.40309243 -2.0625 15.5625 C-1.97564941 14.60327637 -1.88879883 13.64405273 -1.79931641 12.65576172 C-1.39177507 8.37168114 -0.89561944 4.21376996 0 0 Z " fill="#2C7D7F" transform="translate(143,70)"/>
<path d="M0 0 C1.875 0.5625 1.875 0.5625 4 2 C6.99887282 8.5975202 6.17733153 15.89688705 6 23 C5.34 23 4.68 23 4 23 C3.34 18.71 2.68 14.42 2 10 C1.01 10.33 0.02 10.66 -1 11 C-0.96519531 12.18078125 -0.93039063 13.3615625 -0.89453125 14.578125 C-0.86638768 16.13540242 -0.83908813 17.69269525 -0.8125 19.25 C-0.77479492 20.41595703 -0.77479492 20.41595703 -0.73632812 21.60546875 C-0.66165501 27.42997175 -0.66165501 27.42997175 -2.51171875 30.546875 C-3.00285156 31.02640625 -3.49398437 31.5059375 -4 32 C-6.65127455 23.77044381 -5.9236911 12.0016809 -3 4 C-1.375 1.5 -1.375 1.5 0 0 Z " fill="#4F96AD" transform="translate(70,35)"/>
<path d="M0 0 C0.33 0 0.66 0 1 0 C1.05444001 3.00024947 1.0938836 5.99949039 1.125 9 C1.14175781 9.83917969 1.15851562 10.67835937 1.17578125 11.54296875 C1.22784245 18.25886406 0.82523794 24.26214309 -3 30 C-4.8125 29.875 -4.8125 29.875 -7 29 C-10.59185512 23.14660646 -11.13073025 17.94229458 -11.0625 11.1875 C-11.05347656 10.02605469 -11.04445313 8.86460938 -11.03515625 7.66796875 C-11.02355469 6.78753906 -11.01195312 5.90710938 -11 5 C-10.34 5 -9.68 5 -9 5 C-8.86722656 5.80824219 -8.73445312 6.61648437 -8.59765625 7.44921875 C-8.42105469 8.51785156 -8.24445312 9.58648437 -8.0625 10.6875 C-7.88847656 11.74324219 -7.71445313 12.79898438 -7.53515625 13.88671875 C-7.06832879 16.60249604 -6.55577384 19.30124235 -6 22 C-2.87335923 20.37676319 -2.87335923 20.37676319 -2.3840332 17.93701172 C-2.27406006 17.10959473 -2.16408691 16.28217773 -2.05078125 15.4296875 C-1.92509766 14.53378906 -1.79941406 13.63789062 -1.66992188 12.71484375 C-1.55197266 11.77769531 -1.43402344 10.84054688 -1.3125 9.875 C-1.18294922 8.93011719 -1.05339844 7.98523438 -0.91992188 7.01171875 C-0.60138894 4.67581054 -0.29529519 2.33894047 0 0 Z " fill="#188383" transform="translate(21,80)"/>
<path d="M0 0 C0.66 0 1.32 0 2 0 C2.02505615 0.96711914 2.0501123 1.93423828 2.07592773 2.93066406 C2.1712913 6.57626876 2.27117731 10.2217388 2.37231445 13.8671875 C2.41518286 15.43421238 2.45688301 17.00126973 2.49731445 18.56835938 C2.73491185 27.74372566 3.09118755 36.86058055 4 46 C2 43 2 43 1 39 C0.67 43.95 0.34 48.9 0 54 C-0.99 53.67 -1.98 53.34 -3 53 C-2.34 53 -1.68 53 -1 53 C-1.00222061 52.35076065 -1.00444122 51.7015213 -1.00672913 51.03260803 C-1.02878002 44.30112252 -1.04390577 37.56964719 -1.05493164 30.83813477 C-1.05997363 28.32283105 -1.06680703 25.80753028 -1.07543945 23.29223633 C-1.08751094 19.68570225 -1.09322949 16.07920677 -1.09765625 12.47265625 C-1.10281754 11.34038101 -1.10797882 10.20810577 -1.11329651 9.04151917 C-1.11337204 8.00051559 -1.11344757 6.95951202 -1.11352539 5.88696289 C-1.115746 4.96540909 -1.11796661 4.04385529 -1.12025452 3.09437561 C-1 1 -1 1 0 0 Z " fill="#DFF9F9" transform="translate(105,56)"/>
<path d="M0 0 C0.99 0.33 1.98 0.66 3 1 C4.00496852 4.01490557 4.10335303 6.04181692 4.0625 9.1875 C4.05347656 10.08855469 4.04445313 10.98960938 4.03515625 11.91796875 C4.02355469 12.60503906 4.01195313 13.29210938 4 14 C4.99 14.33 5.98 14.66 7 15 C6.67 15.66 6.34 16.32 6 17 C4.91282665 19.64998505 3.90613279 22.28160163 3 25 C-1.35813579 19.65776903 -2.18153363 16.82552587 -2.1875 10 C-2.19974609 9.26265625 -2.21199219 8.5253125 -2.22460938 7.765625 C-2.22987395 5.84229942 -2.12203447 3.91945737 -2 2 C-1.34 1.34 -0.68 0.68 0 0 Z " fill="#F8F9F9" transform="translate(70,44)"/>
<path d="M0 0 C1.32 0 2.64 0 4 0 C6.06142435 10.41755521 6.21367504 20.42308574 6 31 C5.67 31 5.34 31 5 31 C4.6610769 27.64637391 4.32988036 24.29202668 4 20.9375 C3.90460938 19.99455078 3.80921875 19.05160156 3.7109375 18.08007812 C3.21774722 13.02487778 2.88729068 8.07896392 3 3 C2.01 3.495 2.01 3.495 1 4 C0.52925051 6.52237188 0.52925051 6.52237188 0.3671875 9.56640625 C0.28339844 10.69111328 0.19960937 11.81582031 0.11328125 12.97460938 C-0.00466797 14.75061523 -0.00466797 14.75061523 -0.125 16.5625 C-0.21136719 17.75037109 -0.29773438 18.93824219 -0.38671875 20.16210938 C-0.59964392 23.10757419 -0.80366457 26.05339035 -1 29 C-1.33 29 -1.66 29 -2 29 C-2.33 23.72 -2.66 18.44 -3 13 C-7.12403473 14.64856825 -7.12403473 14.64856825 -9 18 C-9 16.02 -9 14.04 -9 12 C-7.35 12 -5.7 12 -4 12 C-4 9.03 -4 6.06 -4 3 C-3.01 2.67 -2.02 2.34 -1 2 C-0.67 1.34 -0.34 0.68 0 0 Z " fill="#DDF7F8" transform="translate(145,33)"/>
<path d="M0 0 C1.8125 0.0625 1.8125 0.0625 4 1 C8.36059201 7.54088802 7.26217922 15.45506478 7 23 C6.67 23 6.34 23 6 23 C5.86722656 22.22914062 5.73445313 21.45828125 5.59765625 20.6640625 C5.42105469 19.66117188 5.24445313 18.65828125 5.0625 17.625 C4.88847656 16.62726562 4.71445313 15.62953125 4.53515625 14.6015625 C4.12287938 12.03090344 4.12287938 12.03090344 3 10 C2.01 10 1.02 10 0 10 C-0.66 11.32 -1.32 12.64 -2 14 C-2.66 14 -3.32 14 -4 14 C-4.49940808 7.88225104 -3.24900602 4.97504047 0 0 Z " fill="#1B254A" transform="translate(113,35)"/>
<path d="M0 0 C0.33 0 0.66 0 1 0 C1 8.25 1 16.5 1 25 C3.97 25 6.94 25 10 25 C10 27.64 10 30.28 10 33 C6.7 33 3.4 33 0 33 C0 22.11 0 11.22 0 0 Z " fill="#1C7776" transform="translate(52,76)"/>
<path d="M0 0 C0.12375 0.639375 0.2475 1.27875 0.375 1.9375 C0.58125 2.618125 0.7875 3.29875 1 4 C1.66 4.33 2.32 4.66 3 5 C2.83556396 5.64187256 2.67112793 6.28374512 2.50170898 6.94506836 C1.8435802 10.95244817 1.91577753 14.8265414 1.97265625 18.87890625 C1.98529681 20.62174285 1.99765819 22.36458149 2.00976562 24.10742188 C2.0346212 26.84178093 2.06266473 29.57603278 2.09594727 32.31030273 C2.12614212 34.95817754 2.14391611 37.60591428 2.16015625 40.25390625 C2.17361588 41.07065323 2.1870755 41.88740021 2.20094299 42.72889709 C2.2318613 49.72348451 2.2318613 49.72348451 0 53 C-0.80746306 47.33933913 -1.147873 41.8660069 -1.1328125 36.15234375 C-1.13376923 35.33681534 -1.13472595 34.52128693 -1.13571167 33.68104553 C-1.13638767 31.96924766 -1.13457419 30.25744714 -1.13037109 28.5456543 C-1.12500759 25.94118446 -1.13033947 23.33688649 -1.13671875 20.73242188 C-1.136058 19.05989546 -1.1347769 17.38736914 -1.1328125 15.71484375 C-1.13584885 14.55987648 -1.13584885 14.55987648 -1.13894653 13.38157654 C-1.1193725 8.82092132 -0.74873874 4.50023954 0 0 Z " fill="#357E7E" transform="translate(108,45)"/>
<path d="M0 0 C0.66 0.33 1.32 0.66 2 1 C3.17169312 4.98375661 3.08089427 8.87439224 3 13 C2.01 13.495 2.01 13.495 1 14 C0.34 11.69 -0.32 9.38 -1 7 C-2.65 6.67 -4.3 6.34 -6 6 C-6 24.15 -6 42.3 -6 61 C-6.33 61 -6.66 61 -7 61 C-7 42.52 -7 24.04 -7 5 C-4.69 5 -2.38 5 0 5 C0 3.35 0 1.7 0 0 Z " fill="#3332BD" transform="translate(94,39)"/>
<path d="M0 0 C2.6317496 0.96497485 3.77878021 1.58828539 5.125 4.09375 C6.21257916 7.70606651 6.21780465 11.08246709 6.125 14.8125 C6.11597656 15.50537109 6.10695313 16.19824219 6.09765625 16.91210938 C6.07426157 18.60822395 6.03839641 20.30415871 6 22 C5.67 22 5.34 22 5 22 C4.01 18.04 3.02 14.08 2 10 C0.35 10.66 -1.3 11.32 -3 12 C-3.36923077 4.61538462 -3.36923077 4.61538462 -1.5 1.5 C-1.005 1.005 -0.51 0.51 0 0 Z " fill="#1C1E42" transform="translate(15,35)"/>
<path d="M0 0 C2.40924732 3.61387098 2.38667162 5.69243527 2.625 10 C2.66294678 10.66265869 2.70089355 11.32531738 2.73999023 12.00805664 C3.04091496 17.67376642 3.10612093 23.32842569 3 29 C1.35 29 -0.3 29 -2 29 C-1.34 19.43 -0.68 9.86 0 0 Z " fill="#CFF2F2" transform="translate(146,50)"/>
<path d="M0 0 C0.66 0.33 1.32 0.66 2 1 C2 1.66 2 2.32 2 3 C2.66 3 3.32 3 4 3 C3.67 23.79 3.34 44.58 3 66 C4.32 66.33 5.64 66.66 7 67 C7 67.33 7 67.66 7 68 C5.35 68 3.7 68 2 68 C2 46.88 2 25.76 2 4 C1.01 4.33 0.02 4.66 -1 5 C-0.67 3.35 -0.34 1.7 0 0 Z " fill="#EAFDFD" transform="translate(156,32)"/>
<path d="M0 0 C0.33 0 0.66 0 1 0 C5.61046842 10.66170823 2.65782224 24.66431312 2 36 C1.67 36 1.34 36 1 36 C0.7834375 34.63875 0.7834375 34.63875 0.5625 33.25 C0.09701342 30.21428561 0.09701342 30.21428561 -0.52685547 28.16088867 C-1.11844711 25.45904266 -1.12975418 22.94159836 -1.1328125 20.17578125 C-1.13410156 19.06525391 -1.13539062 17.95472656 -1.13671875 16.81054688 C-1.13285156 15.65619141 -1.12898438 14.50183594 -1.125 13.3125 C-1.12886719 12.14654297 -1.13273437 10.98058594 -1.13671875 9.77929688 C-1.13542969 8.67263672 -1.13414063 7.56597656 -1.1328125 6.42578125 C-1.13168457 5.40911377 -1.13055664 4.39244629 -1.12939453 3.3449707 C-1 1 -1 1 0 0 Z " fill="#D1F1F2" transform="translate(22,73)"/>
<path d="M0 0 C0.33 0 0.66 0 1 0 C1.64217298 9.67846426 2.16831537 19.29381339 2 29 C0.68 29 -0.64 29 -2 29 C-2.33774664 8.17229076 -2.33774664 8.17229076 0 0 Z " fill="#D2F5F5" transform="translate(30,50)"/>
<path d="M0 0 C6.87516644 6.69424101 6.87516644 6.69424101 7.1953125 10.04296875 C7.13020833 12.02864583 7.06510417 14.01432292 7 16 C2.76089421 14.48603365 1.06361144 11.90612165 -1 8 C-1.3125 4.1875 -1.3125 4.1875 -1 1 C-0.67 0.67 -0.34 0.34 0 0 Z " fill="#1115B0" transform="translate(68,63)"/>
<path d="M0 0 C2.31 0 4.62 0 7 0 C7 5.61 7 11.22 7 17 C4.70986347 13.5647952 4.82157027 12.014669 5 8 C3.35 8 1.7 8 0 8 C0 5.36 0 2.72 0 0 Z " fill="#4B908F" transform="translate(114,72)"/>
<path d="M0 0 C0.33 0 0.66 0 1 0 C1 2.97 1 5.94 1 9 C3.64 9 6.28 9 9 9 C8.67 10.32 8.34 11.64 8 13 C8 12.01 8 11.02 8 10 C6.02 10 4.04 10 2 10 C1.67 16.93 1.34 23.86 1 31 C0.34 31 -0.32 31 -1 31 C-1.09776087 20.61562308 -1.1555538 10.33807949 0 0 Z " fill="#569D9D" transform="translate(25,78)"/>
<path d="M0 0 C2.31 0 4.62 0 7 0 C8.3271261 3.9813783 8.06915913 7.85045227 8 12 C7.67 12 7.34 12 7 12 C6.67 9.03 6.34 6.06 6 3 C4.68 2.67 3.36 2.34 2 2 C2.02320313 2.76183594 2.04640625 3.52367188 2.0703125 4.30859375 C2.18564838 10.90745394 1.70064133 16.62259502 0 23 C-0.99 23 -1.98 23 -3 23 C-2.34 22.67 -1.68 22.34 -1 22 C-0.67 14.74 -0.34 7.48 0 0 Z " fill="#CCEEEE" transform="translate(143,87)"/>
<path d="M0 0 C0.33 0 0.66 0 1 0 C1.33 2.31 1.66 4.62 2 7 C2.66 6.67 3.32 6.34 4 6 C4 7.65 4 9.3 4 11 C2.68 11.33 1.36 11.66 0 12 C0 11.34 0 10.68 0 10 C-2.64 10 -5.28 10 -8 10 C-8 16.93 -8 23.86 -8 31 C-5.36 31 -2.72 31 0 31 C0 31.33 0 31.66 0 32 C-2.97 32 -5.94 32 -9 32 C-9 24.41 -9 16.82 -9 9 C-6.03 9 -3.06 9 0 9 C0 6.03 0 3.06 0 0 Z " fill="#B9E9EB" transform="translate(62,36)"/>
<path d="M0 0 C0.99 0 1.98 0 3 0 C3 3.3 3 6.6 3 10 C3.99 10.33 4.98 10.66 6 11 C4.01432292 10.93489583 2.02864583 10.86979167 0.04296875 10.8046875 C-2.31359719 10.86745538 -2.31359719 10.86745538 -5 13 C-5.66 12.34 -6.32 11.68 -7 11 C-6.401875 10.484375 -5.80375 9.96875 -5.1875 9.4375 C-2.4926464 6.43466313 -1.44279381 3.75126391 0 0 Z " fill="#F0FBFA" transform="translate(121,99)"/>
<path d="M0 0 C2.33294775 -0.04241723 4.66702567 -0.04092937 7 0 C8 1 8 1 8.0625 4.0625 C8.041875 5.031875 8.02125 6.00125 8 7 C5.69 7 3.38 7 1 7 C0.67 7.99 0.34 8.98 0 10 C0 6.7 0 3.4 0 0 Z " fill="#060DA3" transform="translate(86,37)"/>
<path d="M0 0 C0.33 0 0.66 0 1 0 C1.02918634 4.35415244 1.04686145 8.70827948 1.0625 13.0625 C1.07087891 14.29162109 1.07925781 15.52074219 1.08789062 16.78710938 C1.10363389 22.62786137 1.08469508 28.25197017 0 34 C-0.66 34 -1.32 34 -2 34 C-2.43291385 22.59993525 -1.13702941 11.32795794 0 0 Z " fill="#4F9493" transform="translate(142,75)"/>
<path d="M0 0 C0.33 0 0.66 0 1 0 C2.38297872 21.72340426 2.38297872 21.72340426 1 31 C-0.65 31 -2.3 31 -4 31 C-2.68 30.67 -1.36 30.34 0 30 C-0.0721875 29.26136719 -0.144375 28.52273437 -0.21875 27.76171875 C-1.07278083 18.42668727 -1.6478242 9.2690111 0 0 Z " fill="#559D9C" transform="translate(32,49)"/>
<path d="M0 0 C3.3 0 6.6 0 10 0 C10 2.31 10 4.62 10 7 C7.36 7 4.72 7 2 7 C2 6.34 2 5.68 2 5 C2.66 4.67 3.32 4.34 4 4 C3.01 3.67 2.02 3.34 1 3 C0.67 2.01 0.34 1.02 0 0 Z " fill="#0E7E94" transform="translate(52,37)"/>
<path d="M0 0 C0.33 0 0.66 0 1 0 C1 3.3 1 6.6 1 10 C3.97 10.495 3.97 10.495 7 11 C7 8.69 7 6.38 7 4 C7.33 4 7.66 4 8 4 C8 7.96 8 11.92 8 16 C5.36 15.67 2.72 15.34 0 15 C0 10.05 0 5.1 0 0 Z " fill="#0F7D7D" transform="translate(143,70)"/>
<path d="M0 0 C2.42130331 3.63195496 2.21022785 5.38349348 2.125 9.6875 C2.10695312 10.86699219 2.08890625 12.04648438 2.0703125 13.26171875 C2.03550781 14.61716797 2.03550781 14.61716797 2 16 C5.3 16 8.6 16 12 16 C12 16.33 12 16.66 12 17 C7.71 17.66 3.42 18.32 -1 19 C-2.60725635 15.78548731 -2.05748185 12.56387464 -2 9 C-1.67 9 -1.34 9 -1 9 C-1 11.31 -1 13.62 -1 16 C-0.34 16 0.32 16 1 16 C0.835 15.030625 0.67 14.06125 0.5 13.0625 C-0.13396273 8.70512237 -0.0896672 4.39369296 0 0 Z " fill="#C7E9EC" transform="translate(153,93)"/>
<path d="M0 0 C0.66 0 1.32 0 2 0 C4.62096065 6.88002171 4.18170362 13.72176039 4 21 C3.34 21 2.68 21 2 21 C0.79556805 13.94546999 -0.28100502 7.16562789 0 0 Z " fill="#2830AD" transform="translate(72,37)"/>
<path d="M0 0 C0.33 0 0.66 0 1 0 C1.05444001 3.00024947 1.0938836 5.99949039 1.125 9 C1.14175781 9.83917969 1.15851562 10.67835937 1.17578125 11.54296875 C1.21849117 17.05254877 0.55502007 21.71048292 -1 27 C-1.33 27 -1.66 27 -2 27 C-3.2658513 20.88870465 -2.59719176 15.67818873 -1.5625 9.5625 C-1.41490234 8.64017578 -1.26730469 7.71785156 -1.11523438 6.76757812 C-0.75262865 4.51006507 -0.38069951 2.25451974 0 0 Z " fill="#2A8583" transform="translate(21,80)"/>
<path d="M0 0 C0.66 0 1.32 0 2 0 C1.88590407 1.45922693 1.75834456 2.91740598 1.625 4.375 C1.55539063 5.18710938 1.48578125 5.99921875 1.4140625 6.8359375 C1 9 1 9 -1 11 C-4.625 11.125 -4.625 11.125 -8 11 C-8 8.36 -8 5.72 -8 3 C-7.67 3 -7.34 3 -7 3 C-7 4.98 -7 6.96 -7 9 C-5.02 9 -3.04 9 -1 9 C-1.20625 7.88625 -1.4125 6.7725 -1.625 5.625 C-1.74875 4.42875 -1.8725 3.2325 -2 2 C-1.34 1.34 -0.68 0.68 0 0 Z " fill="#1112A2" transform="translate(94,98)"/>
<path d="M0 0 C2.33294775 -0.04241723 4.66702567 -0.04092937 7 0 C8 1 8 1 8.0625 3.5625 C8.041875 4.366875 8.02125 5.17125 8 6 C5.66705225 6.04241723 3.33297433 6.04092937 1 6 C0 5 0 5 -0.0625 2.4375 C-0.041875 1.633125 -0.02125 0.82875 0 0 Z " fill="#107E80" transform="translate(40,102)"/>
<path d="M0 0 C0.33 0 0.66 0 1 0 C1.33 8.25 1.66 16.5 2 25 C1.34 25 0.68 25 0 25 C-1.08331939 16.6042747 -1.75864254 8.35355205 0 0 Z " fill="#378684" transform="translate(35,84)"/>
<path d="M0 0 C1.83069903 3.12929178 2.23931181 5.37643146 2.1953125 8.984375 C2.18886719 9.91894531 2.18242188 10.85351562 2.17578125 11.81640625 C2.15902344 12.78449219 2.14226562 13.75257812 2.125 14.75 C2.11597656 15.73355469 2.10695313 16.71710938 2.09765625 17.73046875 C2.07412785 20.15389407 2.04125368 22.57682222 2 25 C1.67 25 1.34 25 1 25 C0.80083984 23.31970703 0.80083984 23.31970703 0.59765625 21.60546875 C0.41943431 20.13279271 0.24103989 18.66013753 0.0625 17.1875 C-0.02451172 16.44951172 -0.11152344 15.71152344 -0.20117188 14.95117188 C-0.58216546 11.83266879 -1.00369374 8.98891878 -2 6 C-1.34 6 -0.68 6 0 6 C0 4.02 0 2.04 0 0 Z " fill="#222884" transform="translate(75,73)"/>
<path d="M0 0 C0.66 0 1.32 0 2 0 C2.13277344 0.81984375 2.26554688 1.6396875 2.40234375 2.484375 C2.57894531 3.56203125 2.75554688 4.6396875 2.9375 5.75 C3.11152344 6.81734375 3.28554687 7.8846875 3.46484375 8.984375 C3.88704171 11.36347593 4.37202884 13.66915211 5 16 C3.02 16.99 3.02 16.99 1 18 C0.04380267 14.00204108 -0.1039592 10.29196078 -0.0625 6.1875 C-0.05347656 5.02605469 -0.04445313 3.86460938 -0.03515625 2.66796875 C-0.02355469 1.78753906 -0.01195312 0.90710938 0 0 Z " fill="#3C8E8D" transform="translate(10,85)"/>
<path d="M0 0 C0.99 0.33 1.98 0.66 3 1 C3.33 2.98 3.66 4.96 4 7 C3.195625 7.226875 2.39125 7.45375 1.5625 7.6875 C0.716875 8.120625 -0.12875 8.55375 -1 9 C-1.89386164 11.54775306 -1.89386164 11.54775306 -2 14 C-2.33 14 -2.66 14 -3 14 C-3.28999065 5.44527596 -3.28999065 5.44527596 -1 1 C-0.67 0.67 -0.34 0.34 0 0 Z " fill="#D8E6EA" transform="translate(15,44)"/>
<path d="M0 0 C0.66 0 1.32 0 2 0 C2.06058594 0.74765625 2.12117188 1.4953125 2.18359375 2.265625 C2.26738281 3.25046875 2.35117188 4.2353125 2.4375 5.25 C2.51871094 6.22453125 2.59992188 7.1990625 2.68359375 8.203125 C2.91599045 10.93020171 2.91599045 10.93020171 3.625 13.21875 C4 15 4 15 2.5625 17.25 C2.046875 17.8275 1.53125 18.405 1 19 C-0.00926479 14.84373632 -0.10239579 10.95634906 -0.0625 6.6875 C-0.05347656 5.43324219 -0.04445313 4.17898437 -0.03515625 2.88671875 C-0.01775391 1.45779297 -0.01775391 1.45779297 0 0 Z " fill="#2C3392" transform="translate(65,85)"/>
<path d="M0 0 C0.33 0 0.66 0 1 0 C2.14702282 5.25081557 1.93088566 10.06516538 1.5625 15.375 C1.51029297 16.20644531 1.45808594 17.03789063 1.40429688 17.89453125 C1.27561269 19.93008108 1.13864593 21.96510441 1 24 C-0.82976016 20.89003222 -1.20629302 18.81817118 -0.9765625 15.234375 C-0.925 14.34492187 -0.8734375 13.45546875 -0.8203125 12.5390625 C-0.75585938 11.61867188 -0.69140625 10.69828125 -0.625 9.75 C-0.56828125 8.81414063 -0.5115625 7.87828125 -0.453125 6.9140625 C-0.31197212 4.60856552 -0.1605965 2.30421072 0 0 Z " fill="#4B8E90" transform="translate(144,50)"/>
<path d="M0 0 C0.99 0.33 1.98 0.66 3 1 C3 7.27 3 13.54 3 20 C2.67 20 2.34 20 2 20 C2 16.7 2 13.4 2 10 C1.34 10 0.68 10 0 10 C0 6.7 0 3.4 0 0 Z " fill="#1C757B" transform="translate(29,36)"/>
<path d="M0 0 C1.98 0.66 3.96 1.32 6 2 C6 3.65 6 5.3 6 7 C4.02 7 2.04 7 0 7 C0 4.69 0 2.38 0 0 Z " fill="#0304BA" transform="translate(87,100)"/>
<path d="M0 0 C2.31 0.33 4.62 0.66 7 1 C7 2.65 7 4.3 7 6 C4.69 6 2.38 6 0 6 C0 4.02 0 2.04 0 0 Z " fill="#0C8485" transform="translate(27,79)"/>
<path d="M0 0 C0.99 0.33 1.98 0.66 3 1 C2.51917969 1.54140625 2.03835937 2.0828125 1.54296875 2.640625 C-0.31323558 5.47897288 -0.48737656 7.38792626 -0.6875 10.75 C-0.75324219 11.73484375 -0.81898437 12.7196875 -0.88671875 13.734375 C-0.92410156 14.48203125 -0.96148437 15.2296875 -1 16 C-0.34 16 0.32 16 1 16 C1 17.32 1 18.64 1 20 C0.34 20 -0.32 20 -1 20 C-2.57977708 16.84044583 -2.18447084 13.46536183 -2.1875 10 C-2.19974609 9.26265625 -2.21199219 8.5253125 -2.22460938 7.765625 C-2.22987395 5.84229942 -2.12203447 3.91945737 -2 2 C-1.34 1.34 -0.68 0.68 0 0 Z " fill="#E1F5FD" transform="translate(70,44)"/>
<path d="M0 0 C0.66 0.33 1.32 0.66 2 1 C3.17169312 4.98375661 3.08089427 8.87439224 3 13 C2.01 13.495 2.01 13.495 1 14 C0.34 11.69 -0.32 9.38 -1 7 C-2.65 6.67 -4.3 6.34 -6 6 C-6 5.67 -6 5.34 -6 5 C-4.02 5 -2.04 5 0 5 C0 3.35 0 1.7 0 0 Z " fill="#2C4E94" transform="translate(94,39)"/>
<path d="M0 0 C0.66 0 1.32 0 2 0 C3.2062252 3.61867559 3.10816918 6.92506251 3.0625 10.6875 C3.05798828 11.38939453 3.05347656 12.09128906 3.04882812 12.81445312 C3.03706927 14.54300538 3.01913454 16.27151365 3 18 C2.67 18 2.34 18 2 18 C1.46635113 15.94077867 0.94857811 13.87743893 0.4375 11.8125 C0.00244141 10.08966797 0.00244141 10.08966797 -0.44140625 8.33203125 C-0.98068761 5.11519907 -0.88247476 3.10327217 0 0 Z " fill="#152F44" transform="translate(18,39)"/>
<path d="M0 0 C1.65 0 3.3 0 5 0 C5 2.31 5 4.62 5 7 C3.35 7 1.7 7 0 7 C0 4.69 0 2.38 0 0 Z " fill="#118080" transform="translate(115,73)"/>
<path d="M0 0 C0.99 0.33 1.98 0.66 3 1 C2.67 3.31 2.34 5.62 2 8 C0.35 8 -1.3 8 -3 8 C-2.25 2.25 -2.25 2.25 0 0 Z " fill="#1E809F" transform="translate(70,35)"/>
<path d="M0 0 C2.64 0 5.28 0 8 0 C8 1.32 8 2.64 8 4 C2.25 4.125 2.25 4.125 0 3 C0 2.01 0 1.02 0 0 Z " fill="#07868B" transform="translate(53,103)"/>
<path d="M0 0 C3.51056197 2.84714869 4.89669347 4.2024736 5.48828125 8.76953125 C5.45539031 10.11805963 5.39624286 11.4661725 5.3125 12.8125 C5.28994141 13.50537109 5.26738281 14.19824219 5.24414062 14.91210938 C5.18562661 16.60901573 5.0959548 18.30479861 5 20 C4.67 20 4.34 20 4 20 C3.93941406 19.10796875 3.87882812 18.2159375 3.81640625 17.296875 C3.73261719 16.12640625 3.64882813 14.9559375 3.5625 13.75 C3.48128906 12.58984375 3.40007813 11.4296875 3.31640625 10.234375 C3.06752213 7.69022624 2.71885058 5.44046752 2 3 C1.34 3 0.68 3 0 3 C0 2.01 0 1.02 0 0 Z " fill="#CAEDED" transform="translate(15,76)"/>
<path d="M0 0 C2.64 0 5.28 0 8 0 C7.67 1.32 7.34 2.64 7 4 C4.69 3.67 2.38 3.34 0 3 C0 2.01 0 1.02 0 0 Z " fill="#058584" transform="translate(53,69)"/>
<path d="M0 0 C0.33 0 0.66 0 1 0 C1.33 3.96 1.66 7.92 2 12 C1.01 12 0.02 12 -1 12 C-2.87643761 10.12356239 -2.17984987 7.50194299 -2.23046875 5.0078125 C-2 3 -2 3 0 0 Z " fill="#B6D5D7" transform="translate(21,48)"/>
<path d="M0 0 C0.33 0.66 0.66 1.32 1 2 C3.52733235 2.65555119 3.52733235 2.65555119 6 3 C4.68 3.33 3.36 3.66 2 4 C2 4.66 2 5.32 2 6 C4.64 6 7.28 6 10 6 C10 6.33 10 6.66 10 7 C6.7 7.33 3.4 7.66 0 8 C0 5.36 0 2.72 0 0 Z " fill="#2588A0" transform="translate(52,38)"/>
<path d="M0 0 C0.99 0.33 1.98 0.66 3 1 C2.67 1.66 2.34 2.32 2 3 C0.91282665 5.64998505 -0.09386721 8.28160163 -1 11 C-1.99 9.68 -2.98 8.36 -4 7 C-2.68 4.69 -1.36 2.38 0 0 Z " fill="#ECEEFA" transform="translate(74,58)"/>
<path d="M0 0 C0.12375 0.639375 0.2475 1.27875 0.375 1.9375 C0.58125 2.618125 0.7875 3.29875 1 4 C1.66 4.33 2.32 4.66 3 5 C2.67 6.65 2.34 8.3 2 10 C1.67 10 1.34 10 1 10 C0.67 12.31 0.34 14.62 0 17 C-0.33 17 -0.66 17 -1 17 C-1.10477512 11.21408489 -0.99250545 5.70690634 0 0 Z " fill="#589398" transform="translate(108,45)"/>
<path d="M0 0 C1.65 0.33 3.3 0.66 5 1 C5.33 2.32 5.66 3.64 6 5 C5.401875 4.773125 4.80375 4.54625 4.1875 4.3125 C3.1046875 4.1578125 3.1046875 4.1578125 2 4 C0.22809091 5.35444301 0.22809091 5.35444301 -1 7 C-1.33 6.01 -1.66 5.02 -2 4 C-1.34 4 -0.68 4 0 4 C0 2.68 0 1.36 0 0 Z " fill="#DCF3F7" transform="translate(68,32)"/>
<path d="M0 0 C0.99 0 1.98 0 3 0 C3 2.64 3 5.28 3 8 C2.01 8 1.02 8 0 8 C0 5.36 0 2.72 0 0 Z " fill="#081D89" transform="translate(162,101)"/>
<path d="M0 0 C0.33 0 0.66 0 1 0 C0.88610125 1.79240663 0.75852313 3.58394835 0.625 5.375 C0.52058594 6.87160156 0.52058594 6.87160156 0.4140625 8.3984375 C0 11 0 11 -2 13 C-3.41791045 5.62686567 -3.41791045 5.62686567 -1 2 C-0.67 1.34 -0.34 0.68 0 0 Z " fill="#409292" transform="translate(21,94)"/>
<path d="M0 0 C2.17288535 2.17288535 2.64827002 3.01029519 3 6 C2.0625 8.25 2.0625 8.25 1 10 C0.34 10 -0.32 10 -1 10 C-1.125 3.375 -1.125 3.375 0 0 Z " fill="#1A2043" transform="translate(110,39)"/>
<path d="M0 0 C1.32 0 2.64 0 4 0 C3.67 2.31 3.34 4.62 3 7 C2.01 6.67 1.02 6.34 0 6 C-0.38218767 4.34385343 -0.71395102 2.67542976 -1 1 C-0.67 0.67 -0.34 0.34 0 0 Z " fill="#09093F" transform="translate(15,37)"/>
<path d="M0 0 C1.02104551 0.97850195 2.0206121 1.97980427 3 3 C3 3.33 3 3.66 3 4 C-0.63 4 -4.26 4 -8 4 C-8 3.34 -8 2.68 -8 2 C-5.36 2 -2.72 2 0 2 C0 1.34 0 0.68 0 0 Z " fill="#E6FCFD" transform="translate(59,32)"/>
<path d="M0 0 C2 1 2 1 4 4 C3.625 6.1875 3.625 6.1875 3 8 C2.34 6.68 1.68 5.36 1 4 C-1.31 4 -3.62 4 -6 4 C-6 3.67 -6 3.34 -6 3 C-5.195625 2.87625 -4.39125 2.7525 -3.5625 2.625 C-2.716875 2.41875 -1.87125 2.2125 -1 2 C-0.67 1.34 -0.34 0.68 0 0 Z " fill="#E1EDF7" transform="translate(92,32)"/>
<path d="M0 0 C1.65 0 3.3 0 5 0 C5 1.65 5 3.3 5 5 C3.35 4.67 1.7 4.34 0 4 C0 2.68 0 1.36 0 0 Z " fill="#0504BD" transform="translate(68,103)"/>
<path d="M0 0 C0.66 0 1.32 0 2 0 C4 3 4 3 3.625 5.6875 C3.41875 6.450625 3.2125 7.21375 3 8 C2.34 8 1.68 8 1 8 C-0.35439668 5.29120665 -0.06501451 2.99066732 0 0 Z " fill="#108587" transform="translate(14,68)"/>
<path d="M0 0 C2.97 0.495 2.97 0.495 6 1 C6 1.99 6 2.98 6 4 C4.02 4.33 2.04 4.66 0 5 C0 3.35 0 1.7 0 0 Z " fill="#0105CA" transform="translate(87,39)"/>
<path d="M0 0 C2.31 0 4.62 0 7 0 C7 0.33 7 0.66 7 1 C5.02 1 3.04 1 1 1 C1 1.66 1 2.32 1 3 C1.66 3 2.32 3 3 3 C3.33 4.32 3.66 5.64 4 7 C2.35 7 0.7 7 -1 7 C-0.67 4.69 -0.34 2.38 0 0 Z " fill="#1F8788" transform="translate(130,38)"/>
<path d="M0 0 C2.7053871 4.05808065 5 8.04889399 5 13 C4.34 13 3.68 13 3 13 C-0.42857143 4.57142857 -0.42857143 4.57142857 0 0 Z " fill="#D0F4F6" transform="translate(12,89)"/>
<path d="M0 0 C0.66 0 1.32 0 2 0 C2 3.96 2 7.92 2 12 C-1.56521739 4.86956522 -1.56521739 4.86956522 0 0 Z " fill="#237D85" transform="translate(19,73)"/>
<path d="M0 0 C2.475 0.495 2.475 0.495 5 1 C5 5.62 5 10.24 5 15 C4.67 15 4.34 15 4 15 C3.96261719 14.16855469 3.92523437 13.33710937 3.88671875 12.48046875 C3.82097656 11.39378906 3.75523438 10.30710937 3.6875 9.1875 C3.62949219 8.10855469 3.57148438 7.02960937 3.51171875 5.91796875 C2.96931493 2.82502483 2.44710376 1.86977097 0 0 Z " fill="#DEF6F6" transform="translate(28,34)"/>
<path d="M0 0 C1.39864092 3.17872935 0.89282517 4.30111022 -0.3125 7.6875 C-2 11 -2 11 -4 12 C-4.66 11.34 -5.32 10.68 -6 10 C-5.38125 9.46375 -4.7625 8.9275 -4.125 8.375 C-1.7217098 5.68896977 -0.93977847 3.44585438 0 0 Z " fill="#CCECEC" transform="translate(120,100)"/>
<path d="M0 0 C0.33 0 0.66 0 1 0 C1 2.64 1 5.28 1 8 C-0.65 8.66 -2.3 9.32 -4 10 C-2.68 6.7 -1.36 3.4 0 0 Z " fill="#E3FAFA" transform="translate(22,100)"/>
<path d="M0 0 C2.60018816 3.90028225 2.15085514 7.47434569 2 12 C1.67 11.01 1.34 10.02 1 9 C0.34 9 -0.32 9 -1 9 C-1.33 8.01 -1.66 7.02 -2 6 C-1.34 6 -0.68 6 0 6 C0 4.02 0 2.04 0 0 Z " fill="#3D3DAB" transform="translate(75,73)"/>
<path d="M0 0 C2.52349243 3.12432397 4.27256146 6.38060496 6 10 C5.01 10 4.02 10 3 10 C0.39749195 6.62637846 -0.36265043 4.23092172 0 0 Z " fill="#DFF9F9" transform="translate(13,57)"/>
<path d="M0 0 C0.33 0 0.66 0 1 0 C1 2.64 1 5.28 1 8 C2.65 8 4.3 8 6 8 C6 8.99 6 9.98 6 11 C3.03 10.505 3.03 10.505 0 10 C0 6.7 0 3.4 0 0 Z " fill="#E5FDFD" transform="translate(127,37)"/>
<path d="M0 0 C0.66 0 1.32 0 2 0 C2.36923077 5.53846154 2.36923077 5.53846154 0.5 7.875 C-0.2425 8.431875 -0.2425 8.431875 -1 9 C-1.09765625 2.84765625 -1.09765625 2.84765625 -1 1 C-0.67 0.67 -0.34 0.34 0 0 Z " fill="#3E8E97" transform="translate(146,36)"/>
<path d="M0 0 C2.97 0.495 2.97 0.495 6 1 C6 1.99 6 2.98 6 4 C4.02 4 2.04 4 0 4 C0 2.68 0 1.36 0 0 Z " fill="#07878D" transform="translate(41,103)"/>
<path d="M0 0 C0.33 0 0.66 0 1 0 C1 1.65 1 3.3 1 5 C1.66 5 2.32 5 3 5 C2 8 2 8 -1 10 C-1.125 2.25 -1.125 2.25 0 0 Z " fill="#DBDDF8" transform="translate(98,90)"/>
<path d="M0 0 C1.98 0 3.96 0 6 0 C6.33 0.99 6.66 1.98 7 3 C4.69 3 2.38 3 0 3 C0 2.01 0 1.02 0 0 Z " fill="#DBF5F6" transform="translate(114,69)"/>
<path d="M0 0 C0.66 0 1.32 0 2 0 C2.66 0.66 3.32 1.32 4 2 C3.625 4.625 3.625 4.625 3 7 C2.01 7 1.02 7 0 7 C0 4.69 0 2.38 0 0 Z " fill="#CEE6E5" transform="translate(120,50)"/>
<path d="M0 0 C2.00720923 0.28674418 4.0085944 0.61866701 6 1 C5.67 2.32 5.34 3.64 5 5 C5 4.34 5 3.68 5 3 C3.35 3 1.7 3 0 3 C-0.33 3.99 -0.66 4.98 -1 6 C-1.042721 4.33388095 -1.04063832 2.66617115 -1 1 C-0.67 0.67 -0.34 0.34 0 0 Z " fill="#0C0FA2" transform="translate(68,100)"/>
<path d="M0 0 C5.57142857 5.14285714 5.57142857 5.14285714 6 9 C3 8 3 8 1.3125 5.0625 C0 2 0 2 0 0 Z " fill="#E1E6FA" transform="translate(68,73)"/>
<path d="M0 0 C0.66 0 1.32 0 2 0 C2.33 2.31 2.66 4.62 3 7 C2.01 7.33 1.02 7.66 0 8 C-1.09658936 4.71023192 -0.79953138 3.28696233 0 0 Z " fill="#2B2B53" transform="translate(18,39)"/>
<path d="M0 0 C0.99 0.33 1.98 0.66 3 1 C3 3.31 3 5.62 3 8 C2.01 7.34 1.02 6.68 0 6 C-0.1875 2.875 -0.1875 2.875 0 0 Z " fill="#488F91" transform="translate(29,36)"/>
<path d="M0 0 C1.32 0.33 2.64 0.66 4 1 C4 2.32 4 3.64 4 5 C2.68 5 1.36 5 0 5 C0 3.35 0 1.7 0 0 Z " fill="#07878A" transform="translate(157,102)"/>
<path d="M0 0 C0.99 0.33 1.98 0.66 3 1 C1.515 3.475 1.515 3.475 0 6 C-1.32 5.67 -2.64 5.34 -4 5 C-2.68 4.67 -1.36 4.34 0 4 C0 2.68 0 1.36 0 0 Z " fill="#2C8584" transform="translate(116,104)"/>
<path d="M0 0 C2.475 0.99 2.475 0.99 5 2 C5 2.99 5 3.98 5 5 C4.01 5 3.02 5 2 5 C1.34 3.35 0.68 1.7 0 0 Z " fill="#D9F8F9" transform="translate(111,96)"/>
<path d="M0 0 C0.33 0 0.66 0 1 0 C0.67 3.3 0.34 6.6 0 10 C-2 7 -2 7 -2 3 C-1.34 3 -0.68 3 0 3 C0 2.01 0 1.02 0 0 Z " fill="#549FA1" transform="translate(148,43)"/>
</svg>
