<?xml version="1.0" encoding="UTF-8"?>
<svg version="1.1" xmlns="http://www.w3.org/2000/svg" width="666" height="140">
<path d="M0 0 C219.78 0 439.56 0 666 0 C666 46.2 666 92.4 666 140 C446.22 140 226.44 140 0 140 C0 93.8 0 47.6 0 0 Z " fill="#FCFEFE" transform="translate(0,0)"/>
<path d="M0 0 C22.63057325 0 22.63057325 0 27.1796875 3.83984375 C27.73914063 4.53207031 28.29859375 5.22429688 28.875 5.9375 C29.44992187 6.62714844 30.02484375 7.31679688 30.6171875 8.02734375 C35.01299383 14.29819741 33.74039822 24.70089452 33 32 C31.55733361 37.16606262 29.61947869 40.69651715 25.4375 44.0625 C16.5489204 47.48118446 11.28181525 46 0 46 C0 30.82 0 15.64 0 0 Z " fill="#F9FAFC" transform="translate(344,37)"/>
<path d="M0 0 C1.23556641 0.01740234 1.23556641 0.01740234 2.49609375 0.03515625 C3.32238281 0.04417969 4.14867187 0.05320312 5 0.0625 C5.63808594 0.07410156 6.27617188 0.08570312 6.93359375 0.09765625 C7.5977832 1.72054565 7.5977832 1.72054565 8.27539062 3.3762207 C9.9593322 7.49005589 11.64453853 11.60337207 13.33007812 15.71655273 C14.05176357 17.4781358 14.77313086 19.23984926 15.49414062 21.00170898 C16.54598303 23.57181833 17.59889153 26.1414876 18.65234375 28.7109375 C19.00127686 29.56261505 19.35020996 30.4142926 19.7097168 31.29177856 C21.5310185 35.72563661 23.37354805 40.14923311 25.25 44.56005859 C25.62161255 45.43454147 25.9932251 46.30902435 26.37609863 47.21000671 C27.08791148 48.88084951 27.80287073 50.55035629 28.5213623 52.21833801 C30.93359375 57.87844929 30.93359375 57.87844929 30.93359375 60.09765625 C27.96359375 60.09765625 24.99359375 60.09765625 21.93359375 60.09765625 C20.92722825 57.66261116 19.92832962 55.22494761 18.93359375 52.78515625 C18.64742187 52.09486328 18.36125 51.40457031 18.06640625 50.69335938 C16.84448631 47.68219951 15.93359375 45.37878641 15.93359375 42.09765625 C7.02359375 42.09765625 -1.88640625 42.09765625 -11.06640625 42.09765625 C-11.56140625 44.57265625 -11.56140625 44.57265625 -12.06640625 47.09765625 C-12.70371605 49.19015677 -13.37162493 51.27352965 -14.06640625 53.34765625 C-14.41703125 54.4046875 -14.76765625 55.46171875 -15.12890625 56.55078125 C-16.06640625 59.09765625 -16.06640625 59.09765625 -17.06640625 60.09765625 C-19.73699476 60.23880786 -22.39072863 60.14012732 -25.06640625 60.09765625 C-22.98440969 52.71163428 -20.44155093 45.58345036 -17.65234375 38.4375 C-17.23723541 37.36641495 -16.82212708 36.2953299 -16.3944397 35.19178772 C-15.52391143 32.94818975 -14.65152037 30.70531374 -13.77734375 28.46313477 C-12.43383962 25.0157405 -11.09737368 21.56567629 -9.76171875 18.11523438 C-8.9131729 15.93082931 -8.06422901 13.74657881 -7.21484375 11.5625 C-6.81381439 10.52721664 -6.41278503 9.49193329 -5.99960327 8.42527771 C-5.62896759 7.47661331 -5.25833191 6.52794891 -4.87646484 5.55053711 C-4.55020111 4.71244003 -4.22393738 3.87434296 -3.88778687 3.010849 C-2.64890018 0.12518432 -2.64890018 0.12518432 0 0 Z " fill="#198282" transform="translate(573.06640625,29.90234375)"/>
<path d="M0 0 C3.3 0 6.6 0 10 0 C12.83038264 6.9422208 15.65906188 13.88513358 18.48612976 20.82870483 C20.22575747 25.1007726 21.96769491 29.37189207 23.71086121 33.64251709 C24.91114665 36.58407694 26.10997054 39.52623106 27.3085022 42.46850586 C27.89526679 43.90804804 28.48265051 45.34733801 29.07064819 46.78637695 C29.896358 48.80745641 30.71991117 50.82940179 31.54296875 52.8515625 C32.01758545 54.01510254 32.49220215 55.17864258 32.98120117 56.37744141 C34 59 34 59 34 60 C31.03 60 28.06 60 25 60 C24.20558928 58.12616097 23.41460026 56.25087114 22.625 54.375 C22.18414062 53.33085938 21.74328125 52.28671875 21.2890625 51.2109375 C20.0744533 48.18545641 19.03096127 45.0928838 18 42 C9.42 42 0.84 42 -8 42 C-8.99 45.63 -9.98 49.26 -11 53 C-11.94886509 55.35459115 -12.92646675 57.6995716 -14 60 C-16.64 60 -19.28 60 -22 60 C-21.25586166 54.99674901 -19.39024923 50.47274548 -17.578125 45.78125 C-17.2362616 44.88692261 -16.89439819 43.99259521 -16.54217529 43.07116699 C-15.44849085 40.21267497 -14.34932852 37.35632551 -13.25 34.5 C-12.52568056 32.60951331 -11.80171865 30.7188896 -11.078125 28.828125 C-9.05703296 23.55017565 -7.02937727 18.27476815 -5 13 C-4.4563405 11.58595277 -3.91271747 10.17189151 -3.36914062 8.7578125 C-2.24662997 5.83833485 -1.12365229 2.9190384 0 0 Z " fill="#1C898A" transform="translate(113,30)"/>
<path d="M0 0 C4.13936773 3.08627921 6.3963062 7.22697235 8.17578125 11.96875 C8.17578125 12.62875 8.17578125 13.28875 8.17578125 13.96875 C5.86578125 14.62875 3.55578125 15.28875 1.17578125 15.96875 C0.90765625 15.43765625 0.63953125 14.9065625 0.36328125 14.359375 C-2.70038802 8.83670803 -5.666976 5.73271684 -11.82421875 3.96875 C-18.07096644 3.00344441 -24.20542843 4.08283435 -29.82421875 6.96875 C-34.98313452 11.6790644 -37.23451062 17.3641797 -38.109375 24.1953125 C-38.39428181 31.20649742 -36.59854743 37.70398523 -33.26171875 43.84375 C-27.94414023 48.47958768 -21.16746405 50.6845809 -14.1328125 50.37109375 C-9.0497966 49.48522127 -4.41090344 47.26209234 0.17578125 44.96875 C0.64410775 42.38269668 0.64410775 42.38269668 0.80078125 39.40625 C0.98640625 36.7146875 0.98640625 36.7146875 1.17578125 33.96875 C-4.76421875 33.96875 -10.70421875 33.96875 -16.82421875 33.96875 C-16.82421875 31.32875 -16.82421875 28.68875 -16.82421875 25.96875 C-8.24421875 25.96875 0.33578125 25.96875 9.17578125 25.96875 C10.36575616 47.15030349 10.36575616 47.15030349 7.37109375 51.7265625 C4.64246084 53.39163881 2.28045013 54.21487479 -0.82421875 54.96875 C-1.83226562 55.29101562 -2.8403125 55.61328125 -3.87890625 55.9453125 C-14.69878486 59.11143474 -24.04495628 58.6191221 -34.07421875 53.21875 C-41.63343284 47.03393847 -45.94811566 40.026794 -47.171875 30.16796875 C-47.5092042 19.79876251 -44.46220928 10.94741842 -37.82421875 2.96875 C-27.80623882 -5.88434854 -11.40718016 -6.44859864 0 0 Z " fill="#068787" transform="translate(464.82421875,33.03125)"/>
<path d="M0 0 C34.83723404 0 34.83723404 0 43.2734375 7.8984375 C46.23850143 11.50749722 47.68430531 15.5623179 49 20 C49.19078125 20.63421875 49.3815625 21.2684375 49.578125 21.921875 C51.40467762 30.91933789 50.28941118 39.91175545 46 48 C41.18902653 55.02425424 36.42155232 58.31568954 28 60 C18.76 60 9.52 60 0 60 C0 40.2 0 20.4 0 0 Z M8 7 C8 22.18 8 37.36 8 53 C25.45895823 54.1118909 25.45895823 54.1118909 35 50 C36.89877153 48.17323716 36.89877153 48.17323716 37.9375 46 C38.31777344 45.319375 38.69804687 44.63875 39.08984375 43.9375 C41.34003826 39.14738637 41.21869299 34.87272307 41.25 29.6875 C41.270625 28.84509766 41.29125 28.00269531 41.3125 27.13476562 C41.35040561 21.07460611 40.50259144 16.82875857 36.3515625 12.13671875 C35.78179687 11.65847656 35.21203125 11.18023437 34.625 10.6875 C34.06039062 10.19636719 33.49578125 9.70523438 32.9140625 9.19921875 C26.16252029 4.96917088 14.26498465 7 8 7 Z " fill="#0909CB" transform="translate(336,30)"/>
<path d="M0 0 C3.62585112 3.79851069 5.625 7.35133932 5.625 12.75 C2.985 12.75 0.345 12.75 -2.375 12.75 C-2.99375 11.3578125 -2.99375 11.3578125 -3.625 9.9375 C-5.93604487 5.72809685 -7.87201732 4.25099423 -12.375 2.75 C-18.46131166 2.13665076 -22.99426663 2.83543609 -28.375 5.75 C-29.77435013 8.54870027 -29.62765405 10.65498792 -29.375 13.75 C-27.38700995 16.24258691 -25.57690015 17.2595489 -22.5625 18.1875 C-21.77617187 18.435 -20.98984375 18.6825 -20.1796875 18.9375 C-18.08721202 19.54367674 -15.98682412 20.12266467 -13.8828125 20.6875 C-12.66335938 21.0175 -11.44390625 21.3475 -10.1875 21.6875 C-9.03894531 21.98527344 -7.89039063 22.28304687 -6.70703125 22.58984375 C-1.03625783 24.56430999 3.46481741 27.60007281 6.625 32.75 C8.08775509 38.79605436 7.77138771 42.19138171 4.625 47.75 C0.50977422 52.64378201 -4.12618036 55.44620492 -10.375 56.75 C-19.1108967 57.46824772 -27.44177726 56.42263679 -34.375 50.75 C-39.31443142 46.03009886 -40.214474 42.31697273 -40.375 35.75 C-38.065 35.75 -35.755 35.75 -33.375 35.75 C-33.15585937 36.28109375 -32.93671875 36.8121875 -32.7109375 37.359375 C-30.44090937 42.41618563 -28.42188949 45.06548432 -23.375 47.75 C-16.36612294 50.08629235 -9.89760223 48.9540853 -3.375 45.75 C-1.11677279 43.22078553 -1.37236951 41.67634638 -1.25 38.25 C-1.9782807 34.80954223 -1.9782807 34.80954223 -3.9140625 33.62109375 C-9.74399557 30.84548817 -15.58135654 29.19858648 -21.83984375 27.68359375 C-28.27784172 26.02748184 -33.76138961 23.64589063 -37.375 17.75 C-38.92917619 13.08747142 -38.91948802 9.26246673 -37.25 4.625 C-34.18554044 -0.07383799 -30.93696983 -3.03152553 -25.5625 -4.5625 C-16.54534738 -6.34535907 -7.56381865 -5.65885691 0 0 Z " fill="#0C0DC3" transform="translate(294.375,34.25)"/>
<path d="M0 0 C14.52 0 29.04 0 44 0 C44 2.31 44 4.62 44 7 C32.12 7 20.24 7 8 7 C8 13.27 8 19.54 8 26 C19.22 26 30.44 26 42 26 C42 27.98 42 29.96 42 32 C30.78 32 19.56 32 8 32 C8 38.93 8 45.86 8 53 C20.21 53 32.42 53 45 53 C45 55.31 45 57.62 45 60 C30.15 60 15.3 60 0 60 C0 40.2 0 20.4 0 0 Z " fill="#088789" transform="translate(200,30)"/>
<path d="M0 0 C3.25165807 2.51408685 5.10690462 4.88464972 6.1015625 8.86328125 C6.2265625 11.67578125 6.2265625 11.67578125 6.1015625 13.86328125 C3.7915625 13.86328125 1.4815625 13.86328125 -0.8984375 13.86328125 C-1.5171875 12.47109375 -1.5171875 12.47109375 -2.1484375 11.05078125 C-4.14979105 7.40545872 -5.79849644 5.68825809 -9.6484375 4.17578125 C-16.36677776 3.24267844 -20.96005077 3.65655242 -26.8984375 6.86328125 C-29.18836434 9.67860182 -29.18836434 9.67860182 -28.8359375 12.86328125 C-28.18827943 15.92660469 -28.18827943 15.92660469 -25.984375 17.375 C-20.85685731 19.84789144 -15.33700226 21.00502694 -9.82226562 22.34960938 C-3.13297687 24.11903414 3.64570267 26.6451517 7.29882812 32.91967773 C9.19405158 37.50844718 8.57268061 42.44992692 7.0390625 47.05078125 C3.25009953 52.55088879 -1.05545039 56.36650085 -7.734375 57.6171875 C-16.9257271 58.66241346 -24.02468872 57.43809193 -32.2109375 53.11328125 C-35.67600897 50.21229119 -37.04352967 48.00115257 -38.8984375 43.86328125 C-39.1484375 40.42578125 -39.1484375 40.42578125 -38.8984375 37.86328125 C-35.4334375 37.36828125 -35.4334375 37.36828125 -31.8984375 36.86328125 C-31.5478125 38.10078125 -31.1971875 39.33828125 -30.8359375 40.61328125 C-29.60026836 43.95372653 -28.50501195 45.53404018 -25.3984375 47.30078125 C-19.56387386 49.90549716 -14.10186723 51.08235503 -7.82421875 49.26171875 C-5.06279142 48.11546589 -3.02074898 46.98559273 -0.8984375 44.86328125 C-0.65589937 42.65255148 -0.65589937 42.65255148 -0.7734375 40.23828125 C-0.81510417 38.77994792 -0.85677083 37.32161458 -0.8984375 35.86328125 C-7.27663821 32.43445354 -13.35558527 30.49322878 -20.36328125 28.796875 C-26.32404208 27.26352766 -30.58689038 24.87067743 -35.2734375 20.80078125 C-37.82257605 16.19272311 -37.9381609 11.9901932 -36.8984375 6.86328125 C-34.2131249 1.62134516 -30.50438899 -1.28604561 -24.9609375 -3.13671875 C-16.31042961 -5.14603732 -7.80743384 -4.67482149 0 0 Z " fill="#128485" transform="translate(77.8984375,33.13671875)"/>
<path d="M0 0 C15.84 0 31.68 0 48 0 C48 2.31 48 4.62 48 7 C41.4 7 34.8 7 28 7 C28 24.49 28 41.98 28 60 C25.36 60 22.72 60 20 60 C20 42.51 20 25.02 20 7 C13.4 7 6.8 7 0 7 C0 4.69 0 2.38 0 0 Z " fill="#1F8A8D" transform="translate(504,30)"/>
<path d="M0 0 C2.64 0 5.28 0 8 0 C8 17.49 8 34.98 8 53 C17.9 53 27.8 53 38 53 C38 55.31 38 57.62 38 60 C25.46 60 12.92 60 0 60 C0 40.2 0 20.4 0 0 Z " fill="#0A8282" transform="translate(610,30)"/>
<path d="M0 0 C2.64 0 5.28 0 8 0 C8 17.49 8 34.98 8 53 C17.9 53 27.8 53 38 53 C38 55.31 38 57.62 38 60 C25.46 60 12.92 60 0 60 C0 40.2 0 20.4 0 0 Z " fill="#198687" transform="translate(153,30)"/>
<path d="M0 0 C7.02749429 0.56219954 10.79877367 2.74758236 15.6875 7.75 C18.26840894 11.37722337 19.7313232 14.76536256 21 19 C21.18433594 19.61488281 21.36867188 20.22976562 21.55859375 20.86328125 C23.41943786 29.87108415 22.29646447 38.89845556 18 47 C14.54683482 52.04178838 10.89092291 55.95098333 5 58 C2.125 58.1875 2.125 58.1875 0 58 C0.99 57.34 1.98 56.68 3 56 C2.67 55.01 2.34 54.02 2 53 C-5.59 53 -13.18 53 -21 53 C-21 37.82 -21 22.64 -21 7 C-20.67 7 -20.34 7 -20 7 C-20 21.85 -20 36.7 -20 52 C-4.78729291 52.43243937 -4.78729291 52.43243937 8.875 46.1875 C11.92836231 40.25040662 12.44969986 34.81919886 12.5 28.25 C12.50644531 27.43402344 12.51289063 26.61804688 12.51953125 25.77734375 C12.39847181 20.08755008 11.4229289 15.78703023 7.5703125 11.35546875 C1.70287694 6.6139465 -4.07360475 6.78601824 -11.3125 6.4375 C-12.14845703 6.39431641 -12.98441406 6.35113281 -13.84570312 6.30664062 C-15.89696935 6.20114693 -17.9484648 6.10012685 -20 6 C-20 5.67 -20 5.34 -20 5 C-16.79168609 4.9707517 -13.58340693 4.95311811 -10.375 4.9375 C-9.01955078 4.92493164 -9.01955078 4.92493164 -7.63671875 4.91210938 C1.64000119 4.87825273 1.64000119 4.87825273 6 6 C6.33 6.66 6.66 7.32 7 8 C7.33 7.67 7.66 7.34 8 7 C6.576875 5.824375 6.576875 5.824375 5.125 4.625 C3.32295116 3.13635096 1.65621152 1.65621152 0 0 Z " fill="#0D0D9D" transform="translate(364,31)"/>
<path d="M0 0 C3.32159284 0.57268842 4.8042178 1.46426276 7 4 C8.00614929 5.90382385 8.00614929 5.90382385 8.90112305 8.07250977 C9.24124924 8.88667862 9.58137543 9.70084747 9.93180847 10.53968811 C10.28817886 11.4147551 10.64454926 12.28982208 11.01171875 13.19140625 C11.57135063 14.54298073 11.57135063 14.54298073 12.14228821 15.92185974 C12.92823891 17.82429366 13.7105595 19.72823078 14.48950195 21.63354492 C15.68569769 24.55809358 16.89363197 27.47757554 18.10351562 30.39648438 C18.86527798 32.24450548 19.6263689 34.09280353 20.38671875 35.94140625 C20.74916183 36.81849747 21.11160492 37.69558868 21.48503113 38.59925842 C21.81570084 39.41027512 22.14637054 40.22129181 22.48706055 41.05688477 C22.78001511 41.77175552 23.07296967 42.48662628 23.37480164 43.22315979 C24 45 24 45 24 47 C21.03 47 18.06 47 15 47 C13.9936345 44.56495491 12.99473587 42.12729136 12 39.6875 C11.71382812 38.99720703 11.42765625 38.30691406 11.1328125 37.59570312 C9.91089256 34.58454326 9 32.28113016 9 29 C0.09 29 -8.82 29 -18 29 C-18.495 31.475 -18.495 31.475 -19 34 C-19.6373098 36.09250052 -20.30521868 38.1758734 -21 40.25 C-21.350625 41.30703125 -21.70125 42.3640625 -22.0625 43.453125 C-23 46 -23 46 -24 47 C-26.67058851 47.14115161 -29.32432238 47.04247107 -32 47 C-30.43551329 41.3856009 -28.83604813 36.13189662 -26 31 C-25 34 -25 34 -25 37 C-25.99 37.495 -25.99 37.495 -27 38 C-27.73075648 40.3140622 -28.40138258 42.64828869 -29 45 C-27.68 45.33 -26.36 45.66 -25 46 C-25.05027344 45.29101562 -25.10054687 44.58203125 -25.15234375 43.8515625 C-24.97342899 40.50264522 -24.02425175 38.3813223 -22.5625 35.375 C-21.21811921 32.57899438 -19.98185209 29.94555626 -19 27 C-17.609375 24.828125 -17.609375 24.828125 -15 23 C-11.4060868 22.50144013 -7.86933673 22.62469673 -4.25 22.75 C-2.77466797 22.77707031 -2.77466797 22.77707031 -1.26953125 22.8046875 C1.15463783 22.85175874 3.57682059 22.91749258 6 23 C5.7834375 22.16855469 5.566875 21.33710937 5.34375 20.48046875 C5.0653125 19.39378906 4.786875 18.30710937 4.5 17.1875 C4.2215625 16.10855469 3.943125 15.02960937 3.65625 13.91796875 C3 11 3 11 3 8 C2.34 8 1.68 8 1 8 C0.505 4.04 0.505 4.04 0 0 Z " fill="#108585" transform="translate(580,43)"/>
<path d="M0 0 C2.94183631 1.98402914 4.75605993 3.84105375 6.6875 6.8125 C6.6875 7.8025 6.6875 8.7925 6.6875 9.8125 C9.3275 9.8125 11.9675 9.8125 14.6875 9.8125 C13.3675 6.1825 12.0475 2.5525 10.6875 -1.1875 C11.3475 -1.1875 12.0075 -1.1875 12.6875 -1.1875 C12.6875 -0.5275 12.6875 0.1325 12.6875 0.8125 C13.3475 1.1425 14.0075 1.4725 14.6875 1.8125 C16.73448414 3.85948414 16.38795693 8.11661241 16.6875 10.8125 C14.7075 11.8025 14.7075 11.8025 12.6875 12.8125 C12.6875 13.4725 12.6875 14.1325 12.6875 14.8125 C12.0275 14.8125 11.3675 14.8125 10.6875 14.8125 C10.6875 14.1525 10.6875 13.4925 10.6875 12.8125 C9.6975 12.8125 8.7075 12.8125 7.6875 12.8125 C7.3575 13.4725 7.0275 14.1325 6.6875 14.8125 C6.0275 14.8125 5.3675 14.8125 4.6875 14.8125 C4.6875 15.8025 4.6875 16.7925 4.6875 17.8125 C5.326875 18.080625 5.96625 18.34875 6.625 18.625 C8.6875 19.8125 8.6875 19.8125 9.6875 22.8125 C9.13964844 22.64234375 8.59179688 22.4721875 8.02734375 22.296875 C1.4351869 20.28171161 -5.2064497 18.53835707 -11.89453125 16.875 C-15.12825923 15.86977256 -17.56010157 14.76614325 -20.3125 12.8125 C-21.73291821 9.97166359 -21.62702272 7.95772722 -21.3125 4.8125 C-16.1329863 -2.09351827 -7.69399714 -2.75822539 0 0 Z " fill="#FBFCF6" transform="translate(285.3125,37.1875)"/>
<path d="M0 0 C8.58 0 17.16 0 26 0 C27.18997491 21.18155349 27.18997491 21.18155349 24.1953125 25.7578125 C21.46667959 27.42288881 19.10466888 28.24612479 16 29 C14.48792969 29.48339844 14.48792969 29.48339844 12.9453125 29.9765625 C3.40003707 32.76970925 -4.69232917 32.77150974 -14 29 C-14.66 28.34 -15.32 27.68 -16 27 C-15.01 26.67 -14.02 26.34 -13 26 C-13 26.66 -13 27.32 -13 28 C-11.35 28 -9.7 28 -8 28 C-8 28.66 -8 29.32 -8 30 C-3.05 29.67 1.9 29.34 7 29 C6.67 28.34 6.34 27.68 6 27 C6.99 27 7.98 27 9 27 C9.33 27.33 9.66 27.66 10 28 C10.33 27.01 10.66 26.02 11 25 C10.01 25.33 9.02 25.66 8 26 C5.26134713 26.07051114 2.54972412 26.09357765 -0.1875 26.0625 C-0.93708984 26.05798828 -1.68667969 26.05347656 -2.45898438 26.04882812 C-4.30602383 26.03706354 -6.15302213 26.01912865 -8 26 C-8 25.34 -8 24.68 -8 24 C-7.17757813 24.04640625 -6.35515625 24.0928125 -5.5078125 24.140625 C2.28750149 24.39266748 8.03398291 23.51833317 15 20 C15.66 19.67 16.32 19.34 17 19 C17.4683265 16.41394668 17.4683265 16.41394668 17.625 13.4375 C17.810625 10.7459375 17.810625 10.7459375 18 8 C12.06 8 6.12 8 0 8 C0 5.36 0 2.72 0 0 Z " fill="#138182" transform="translate(448,59)"/>
<path d="M0 0 C2.64 0 5.28 0 8 0 C8 19.8 8 39.6 8 60 C5.36 60 2.72 60 0 60 C0 40.2 0 20.4 0 0 Z " fill="#138185" transform="translate(487,30)"/>
<path d="M0 0 C2.64 0 5.28 0 8 0 C8 19.8 8 39.6 8 60 C5.36 60 2.72 60 0 60 C0 40.2 0 20.4 0 0 Z " fill="#0D8285" transform="translate(398,30)"/>
<path d="M0 0 C3.62585112 3.79851069 5.625 7.35133932 5.625 12.75 C2.985 12.75 0.345 12.75 -2.375 12.75 C-2.99375 11.3578125 -2.99375 11.3578125 -3.625 9.9375 C-5.93604487 5.72809685 -7.87201732 4.25099423 -12.375 2.75 C-18.46131166 2.13665076 -22.99426663 2.83543609 -28.375 5.75 C-30.19396973 9.38793946 -29.62754202 12.99237393 -28.375 16.75 C-29.035 17.74 -29.695 18.73 -30.375 19.75 C-30.375 21.07 -30.375 22.39 -30.375 23.75 C-33.74829915 22.35415208 -35.41732662 20.82634389 -37.375 17.75 C-38.92917619 13.08747142 -38.91948802 9.26246673 -37.25 4.625 C-34.18554044 -0.07383799 -30.93696983 -3.03152553 -25.5625 -4.5625 C-16.54534738 -6.34535907 -7.56381865 -5.65885691 0 0 Z " fill="#0E85A3" transform="translate(294.375,34.25)"/>
<path d="M0 0 C2.74856898 1.37428449 2.9445224 2.81971613 4.1015625 5.64453125 C4.50584473 6.62284912 4.91012695 7.60116699 5.32666016 8.60913086 C5.7551123 9.66624268 6.18356445 10.72335449 6.625 11.8125 C7.06505371 12.88443604 7.50510742 13.95637207 7.95849609 15.06079102 C9.31388889 18.37057909 10.65844429 21.68458182 12 25 C12.61875 26.52415527 12.61875 26.52415527 13.25 28.07910156 C14.37903801 30.8636287 15.50376059 33.6498243 16.625 36.4375 C16.96740723 37.28868408 17.30981445 38.13986816 17.66259766 39.0168457 C20 44.87736853 20 44.87736853 20 46 C17.03 46 14.06 46 11 46 C10.20558928 44.12616097 9.41460026 42.25087114 8.625 40.375 C8.18414062 39.33085938 7.74328125 38.28671875 7.2890625 37.2109375 C6.0744533 34.18545641 5.03096127 31.0928838 4 28 C-4.58 28 -13.16 28 -22 28 C-21.67 27.34 -21.34 26.68 -21 26 C-18.9375 25.375 -18.9375 25.375 -17 25 C-17.33 24.01 -17.66 23.02 -18 22 C-11.4 22 -4.8 22 2 22 C2.33 20.68 2.66 19.36 3 18 C2.34 18 1.68 18 1 18 C0.87625 16.865625 0.7525 15.73125 0.625 14.5625 C0.41875 13.386875 0.2125 12.21125 0 11 C-0.66 10.67 -1.32 10.34 -2 10 C-2 9.34 -2 8.68 -2 8 C-1.01 7.67 -0.02 7.34 1 7 C0.67 4.69 0.34 2.38 0 0 Z " fill="#1A8581" transform="translate(127,44)"/>
<path d="M0 0 C1.9587043 0.14076315 3.91696093 0.2877676 5.875 0.4375 C7.51082031 0.55931641 7.51082031 0.55931641 9.1796875 0.68359375 C12 1 12 1 14 2 C14 2.66 14 3.32 14 4 C14.66 4.33 15.32 4.66 16 5 C15.14285714 13.57142857 15.14285714 13.57142857 13 17 C13.99 17.33 14.98 17.66 16 18 C15.69080748 20.86003076 15.41927517 22.54718282 13.4375 24.6875 C6.49671155 28.42484763 -1.77433461 29.15284406 -9.42578125 27.46484375 C-15.52153187 25.59001625 -20.86647949 23.1750638 -24.375 17.625 C-25.99428355 14.01275207 -26.37972766 11.89220853 -26 8 C-22.535 7.505 -22.535 7.505 -19 7 C-18.4740625 8.85625 -18.4740625 8.85625 -17.9375 10.75 C-16.70183086 14.09044528 -15.60657445 15.67075893 -12.5 17.4375 C-6.66543636 20.04221591 -1.20342973 21.21907378 5.07421875 19.3984375 C7.83564608 18.25218464 9.87768852 17.12231148 12 15 C12.24253813 12.78927023 12.24253813 12.78927023 12.125 10.375 C12.10695312 9.55773437 12.08890625 8.74046875 12.0703125 7.8984375 C12.04710937 7.27195312 12.02390625 6.64546875 12 6 C11.46890625 5.73445313 10.9378125 5.46890625 10.390625 5.1953125 C6.92708333 3.46354167 3.46354167 1.73177083 0 0 Z " fill="#188787" transform="translate(65,63)"/>
<path d="M0 0 C14.52 0 29.04 0 44 0 C44 2.31 44 4.62 44 7 C32.12 7 20.24 7 8 7 C8 7.66 8 8.32 8 9 C7.34 9 6.68 9 6 9 C6 9.99 6 10.98 6 12 C4.68 12 3.36 12 2 12 C1.67 27.84 1.34 43.68 1 60 C0.67 60 0.34 60 0 60 C0 40.2 0 20.4 0 0 Z " fill="#0585A2" transform="translate(200,30)"/>
<path d="M0 0 C4.13936773 3.08627921 6.3963062 7.22697235 8.17578125 11.96875 C8.17578125 12.62875 8.17578125 13.28875 8.17578125 13.96875 C5.86578125 14.62875 3.55578125 15.28875 1.17578125 15.96875 C0.90765625 15.43765625 0.63953125 14.9065625 0.36328125 14.359375 C-2.70038802 8.83670803 -5.666976 5.73271684 -11.82421875 3.96875 C-18.38647633 2.95468888 -23.72383592 4.72124054 -29.82421875 6.96875 C-33.27261263 7.8883217 -35.42396659 8.10216739 -38.82421875 6.96875 C-38.60149422 3.85060658 -37.84293704 2.98500535 -35.44921875 0.90625 C-24.79699112 -5.55661233 -10.88019254 -6.150687 0 0 Z " fill="#0D0F42" transform="translate(464.82421875,33.03125)"/>
<path d="M0 0 C2.64 0 5.28 0 8 0 C7.67 18.15 7.34 36.3 7 55 C5.02 55 3.04 55 1 55 C0.67 36.85 0.34 18.7 0 0 Z " fill="#038686" transform="translate(524,34)"/>
<path d="M0 0 C3.25165807 2.51408685 5.10690462 4.88464972 6.1015625 8.86328125 C6.2265625 11.67578125 6.2265625 11.67578125 6.1015625 13.86328125 C3.7915625 13.86328125 1.4815625 13.86328125 -0.8984375 13.86328125 C-1.5171875 12.47109375 -1.5171875 12.47109375 -2.1484375 11.05078125 C-4.14979105 7.40545872 -5.79849644 5.68825809 -9.6484375 4.17578125 C-16.50204486 3.22389134 -20.77802071 3.86307694 -26.8984375 6.86328125 C-30.18820558 7.95987061 -31.61147517 7.66281263 -34.8984375 6.86328125 C-34.65688285 3.60229351 -33.67128526 2.63058871 -31.3359375 0.23828125 C-22.58241524 -6.55144365 -9.17327701 -5.49264117 0 0 Z " fill="#08093F" transform="translate(77.8984375,33.13671875)"/>
<path d="M0 0 C2.94726452 1.47363226 3.07207123 3.42963826 4.1640625 6.49609375 C4.56367187 7.61177734 4.96328125 8.72746094 5.375 9.87695312 C5.99375 11.63942383 5.99375 11.63942383 6.625 13.4375 C7.04523438 14.60861328 7.46546875 15.77972656 7.8984375 16.98632812 C11 25.71199016 11 25.71199016 11 28 C4.73 28 -1.54 28 -8 28 C-6.87557784 20.1290449 -6.87557784 20.1290449 -5.625 16.73828125 C-5.23054688 15.64870117 -5.23054688 15.64870117 -4.828125 14.53710938 C-4.41820313 13.43592773 -4.41820313 13.43592773 -4 12.3125 C-3.45672176 10.83001668 -2.91500132 9.34696135 -2.375 7.86328125 C-2.13523437 7.21657471 -1.89546875 6.56986816 -1.6484375 5.90356445 C-0.98446302 3.95438936 -0.47175365 2.00356221 0 0 Z " fill="#EDF9F9" transform="translate(117,37)"/>
<path d="M0 0 C0.66 0 1.32 0 2 0 C3.50514646 4.12314058 5.00324372 8.24880702 6.5 12.375 C7.14388672 14.1384375 7.14388672 14.1384375 7.80078125 15.9375 C8.20683594 17.05898438 8.61289062 18.18046875 9.03125 19.3359375 C9.40830078 20.37282715 9.78535156 21.4097168 10.17382812 22.47802734 C11 25 11 25 11 27 C4.4 27 -2.2 27 -9 27 C-6.03 18.09 -3.06 9.18 0 0 Z " fill="#EFFBF9" transform="translate(574,38)"/>
<path d="M0 0 C7.02749429 0.56219954 10.79877367 2.74758236 15.6875 7.75 C18.26840894 11.37722337 19.7313232 14.76536256 21 19 C21.18949219 19.60070312 21.37898438 20.20140625 21.57421875 20.8203125 C22.15987911 23.8184637 22.09301418 26.69858168 22.0625 29.75 C22.05347656 30.92046875 22.04445313 32.0909375 22.03515625 33.296875 C22.02355469 34.18890625 22.01195312 35.0809375 22 36 C21.01 36.33 20.02 36.66 19 37 C18.95101562 35.89140625 18.90203125 34.7828125 18.8515625 33.640625 C18.77650785 32.17705935 18.70096119 30.71351888 18.625 29.25 C18.5940625 28.52039063 18.563125 27.79078125 18.53125 27.0390625 C18.26167333 21.71089086 18.26167333 21.71089086 16 17 C15.34 16.67 14.68 16.34 14 16 C14.24556641 16.94939453 14.24556641 16.94939453 14.49609375 17.91796875 C15.17453601 22.06751093 15.10555375 26.11641498 15.0625 30.3125 C15.05798828 31.14845703 15.05347656 31.98441406 15.04882812 32.84570312 C15.03710548 34.89716649 15.01917203 36.94859273 15 39 C14.34 39 13.68 39 13 39 C12.67 40.32 12.34 41.64 12 43 C11.67 42.34 11.34 41.68 11 41 C11.33 40.01 11.66 39.02 12 38 C12.25105336 34.90025179 12.23122942 31.79637729 12.25 28.6875 C12.270625 27.84509766 12.29125 27.00269531 12.3125 26.13476562 C12.34940794 20.23410824 11.58179659 15.96977149 7.5703125 11.35546875 C1.70287694 6.6139465 -4.07360475 6.78601824 -11.3125 6.4375 C-12.14845703 6.39431641 -12.98441406 6.35113281 -13.84570312 6.30664062 C-15.89696935 6.20114693 -17.9484648 6.10012685 -20 6 C-20 5.67 -20 5.34 -20 5 C-16.79168609 4.9707517 -13.58340693 4.95311811 -10.375 4.9375 C-9.01955078 4.92493164 -9.01955078 4.92493164 -7.63671875 4.91210938 C1.64000119 4.87825273 1.64000119 4.87825273 6 6 C6.33 6.66 6.66 7.32 7 8 C7.33 7.67 7.66 7.34 8 7 C6.576875 5.824375 6.576875 5.824375 5.125 4.625 C3.32295116 3.13635096 1.65621152 1.65621152 0 0 Z " fill="#1B20A5" transform="translate(364,31)"/>
<path d="M0 0 C3.33333333 0 6.66666667 0 10 0 C11.26372044 2.52744088 11.12022795 4.26380308 11.11352539 7.09228516 C11.11344986 8.15323395 11.11337433 9.21418274 11.11329651 10.30728149 C11.10813522 11.45626923 11.10297394 12.60525696 11.09765625 13.7890625 C11.0962413 14.96262299 11.09482635 16.13618347 11.09336853 17.3453064 C11.08775689 21.10522985 11.07520238 24.86509445 11.0625 28.625 C11.0574865 31.16926998 11.05292333 33.71354088 11.04882812 36.2578125 C11.03778368 42.50522853 11.02103418 48.75261006 11 55 C11.99 55 12.98 55 14 55 C14 53.02 14 51.04 14 49 C14.99 48.505 14.99 48.505 16 48 C16 50.31 16 52.62 16 55 C16.72703125 54.98839844 17.4540625 54.97679687 18.203125 54.96484375 C25.52631959 54.89912277 32.71366686 55.2765343 40 56 C40 56.33 40 56.66 40 57 C30.1 57 20.2 57 10 57 C10 39.51 10 22.02 10 4 C7.36 4 4.72 4 2 4 C2 23.8 2 43.6 2 64 C1.67 64 1.34 64 1 64 C0.67 42.88 0.34 21.76 0 0 Z " fill="#DDF7FA" transform="translate(608,26)"/>
<path d="M0 0 C2.51314157 3.76971235 2.15974372 5.58627894 1.9765625 10.07421875 C1.93096191 11.32549561 1.88536133 12.57677246 1.83837891 13.8659668 C1.76796387 15.45707275 1.69754883 17.04817871 1.625 18.6875 C1.41875 23.740625 1.2125 28.79375 1 34 C14.2 34 27.4 34 41 34 C41 33.01 41 32.02 41 31 C30.11 31 19.22 31 8 31 C7.67 30.34 7.34 29.68 7 29 C19.21 29 31.42 29 44 29 C44 31.31 44 33.62 44 36 C29.48 36 14.96 36 0 36 C0 24.12 0 12.24 0 0 Z " fill="#1F868B" transform="translate(201,54)"/>
<path d="M0 0 C14.52 0 29.04 0 44 0 C44 2.31 44 4.62 44 7 C32.45 7 20.9 7 9 7 C9 6.34 9 5.68 9 5 C15.82824952 3.64638225 22.51531705 4.10895122 29.4375 4.4375 C31.25024414 4.51581055 31.25024414 4.51581055 33.09960938 4.59570312 C36.06671084 4.72470754 39.03341748 4.8596435 42 5 C41.505 3.515 41.505 3.515 41 2 C21.2 1.505 21.2 1.505 1 1 C1 20.47 1 39.94 1 60 C0.67 60 0.34 60 0 60 C0 40.2 0 20.4 0 0 Z " fill="#34929C" transform="translate(200,30)"/>
<path d="M0 0 C2 1 2 1 3.0625 3.125 C4 6 4 6 4.4375 9.4375 C4.8219958 13.0375383 4.8219958 13.0375383 6.5625 16.125 C8.05575327 19.11150654 8.45551116 20.72031962 8 24 C6 26 6 26 3.75341797 26.22705078 C2.84221191 26.21657715 1.93100586 26.20610352 0.9921875 26.1953125 C0.00605469 26.18886719 -0.98007813 26.18242188 -1.99609375 26.17578125 C-3.54490234 26.15064453 -3.54490234 26.15064453 -5.125 26.125 C-6.16527344 26.11597656 -7.20554687 26.10695313 -8.27734375 26.09765625 C-10.85179092 26.07403747 -13.42578212 26.04110149 -16 26 C-16 25.34 -16 24.68 -16 24 C-16.66 24 -17.32 24 -18 24 C-18 23.34 -18 22.68 -18 22 C-11.4 22 -4.8 22 2 22 C2.33 20.68 2.66 19.36 3 18 C2.34 18 1.68 18 1 18 C0.87625 16.865625 0.7525 15.73125 0.625 14.5625 C0.41875 13.386875 0.2125 12.21125 0 11 C-0.66 10.67 -1.32 10.34 -2 10 C-2 9.34 -2 8.68 -2 8 C-1.01 7.67 -0.02 7.34 1 7 C0.67 4.69 0.34 2.38 0 0 Z " fill="#068687" transform="translate(127,44)"/>
<path d="M0 0 C2.31 0 4.62 0 7 0 C6.67 0.99 6.34 1.98 6 3 C3.525 2.01 3.525 2.01 1 1 C1 20.14 1 39.28 1 59 C9.25 59 17.5 59 26 59 C26 57.02 26 55.04 26 53 C29.96 53 33.92 53 38 53 C38 55.31 38 57.62 38 60 C25.46 60 12.92 60 0 60 C0 40.2 0 20.4 0 0 Z " fill="#246F87" transform="translate(610,30)"/>
<path d="M0 0 C0.33 0.66 0.66 1.32 1 2 C3.32156597 2.40729228 5.6568787 2.74438677 8 3 C7.65066406 3.67546875 7.30132812 4.3509375 6.94140625 5.046875 C6.48636719 5.93890625 6.03132813 6.8309375 5.5625 7.75 C4.88380859 9.07257812 4.88380859 9.07257812 4.19140625 10.421875 C0.84514164 17.66297219 1.69266312 25.31939581 3 33 C2.01 33 1.02 33 0 33 C-0.33 26.07 -0.66 19.14 -1 12 C-3.50176648 18.67137728 -4.36524149 21.36431762 -4.1875 28 C-4.17396484 28.67933594 -4.16042969 29.35867187 -4.14648438 30.05859375 C-4.11167822 31.70608512 -4.05789677 33.35315841 -4 35 C-8.09093423 28.86359866 -7.86684995 21.39798872 -6.46875 14.3046875 C-4.99029884 9.04975784 -2.90660863 4.61048265 0 0 Z " fill="#158684" transform="translate(425,38)"/>
<path d="M0 0 C9.24 0 18.48 0 28 0 C28 1.98 28 3.96 28 6 C18.43 6 8.86 6 -1 6 C-0.67 4.02 -0.34 2.04 0 0 Z " fill="#147C7D" transform="translate(162,83)"/>
<path d="M0 0 C8.58 0 17.16 0 26 0 C25.34 0.66 24.68 1.32 24 2 C24.33 2.99 24.66 3.98 25 5 C24.67 5.66 24.34 6.32 24 7 C18.92469156 8.27282972 13.81917675 8.11634713 8.625 8.0625 C7.37783203 8.05573242 7.37783203 8.05573242 6.10546875 8.04882812 C4.07028103 8.03713164 2.03513077 8.01919935 0 8 C0 5.36 0 2.72 0 0 Z " fill="#2E9797" transform="translate(448,59)"/>
<path d="M0 0 C2.31 0 4.62 0 7 0 C7.21914063 0.53109375 7.43828125 1.0621875 7.6640625 1.609375 C9.93409063 6.66618563 11.95311051 9.31548432 17 12 C24.35082636 14.45027545 30.98770081 12.78502663 38 10 C38 10.66 38 11.32 38 12 C36.68 12.33 35.36 12.66 34 13 C34 13.66 34 14.32 34 15 C17.29157175 15.55353075 17.29157175 15.55353075 9 12 C9 12.99 9 13.98 9 15 C9.99 15.33 10.98 15.66 12 16 C10.68 16.33 9.36 16.66 8 17 C2.99772101 12.2066935 0.24673368 8.74201468 -0.02734375 1.6875 C-0.01832031 1.130625 -0.00929687 0.57375 0 0 Z " fill="#0D0FB0" transform="translate(254,70)"/>
<path d="M0 0 C5.11970957 3.34750241 7.12332184 6.36996553 9 12 C9 12.99 9 13.98 9 15 C6.36 15 3.72 15 1 15 C0.5875 14.071875 0.175 13.14375 -0.25 12.1875 C-2.90603255 7.34972642 -5.9079421 5.83879869 -11 4 C-11 2 -11 2 -9.4375 0.3125 C-5.86631975 -1.61044321 -3.86485482 -1.06616685 0 0 Z " fill="#0B12C1" transform="translate(291,32)"/>
<path d="M0 0 C0.33 0 0.66 0 1 0 C1 8.58 1 17.16 1 26 C-0.32 25.34 -1.64 24.68 -3 24 C-3 23.01 -3 22.02 -3 21 C-3.66 21 -4.32 21 -5 21 C-5.33 21.99 -5.66 22.98 -6 24 C-6 16.41 -6 8.82 -6 1 C-3.525 1.495 -3.525 1.495 -1 2 C-0.67 1.34 -0.34 0.68 0 0 Z " fill="#0F8A9B" transform="translate(617,30)"/>
<path d="M0 0 C4.06055478 2.86627396 6.77502829 5.10011316 8 10 C8.125 12.8125 8.125 12.8125 8 15 C5.69 15 3.38 15 1 15 C0.5875 14.071875 0.175 13.14375 -0.25 12.1875 C-2.3567292 8.35024325 -4.06628561 6.59085717 -8.25 5.3125 C-8.8275 5.209375 -9.405 5.10625 -10 5 C-10 4.34 -10 3.68 -10 3 C-9.34 3 -8.68 3 -8 3 C-7.67 2.01 -7.34 1.02 -7 0 C-4.18514379 -1.40742811 -2.99225935 -0.95208252 0 0 Z " fill="#0E1345" transform="translate(76,32)"/>
<path d="M0 0 C11.88 0 23.76 0 36 0 C36 0.33 36 0.66 36 1 C35.17798096 1.02505615 34.35596191 1.0501123 33.5090332 1.07592773 C29.77670626 1.19212655 26.04461683 1.31474505 22.3125 1.4375 C21.01892578 1.47681641 19.72535156 1.51613281 18.39257812 1.55664062 C17.14541016 1.59853516 15.89824219 1.64042969 14.61328125 1.68359375 C12.89298706 1.73858032 12.89298706 1.73858032 11.13793945 1.79467773 C7.66590727 1.95270193 7.66590727 1.95270193 3 3 C2.67 7.62 2.34 12.24 2 17 C12.23 17 22.46 17 33 17 C33.495 17.99 33.495 17.99 34 19 C22.78 19 11.56 19 0 19 C0 12.73 0 6.46 0 0 Z " fill="#C0ECEE" transform="translate(208,37)"/>
<path d="M0 0 C0 0.66 0 1.32 0 2 C1.65 2 3.3 2 5 2 C5 2.66 5 3.32 5 4 C6.32 4.33 7.64 4.66 9 5 C9 6.32 9 7.64 9 9 C6.13275314 8.42655063 5.1385485 8.1385485 3 6 C0.41645782 5.83312552 0.41645782 5.83312552 -2 6 C-2 5.34 -2 4.68 -2 4 C-3.299375 4.061875 -4.59875 4.12375 -5.9375 4.1875 C-10.88197393 4.1875 -15.61256854 3.37978983 -20 1 C-20.33 0.01 -20.66 -0.98 -21 -2 C-15.28471243 -4.85764379 -5.90834549 -1.42943843 0 0 Z " fill="#0303D6" transform="translate(285,57)"/>
<path d="M0 0 C5.82311975 1.9964982 9.48424547 4.62782923 12.3125 10.125 C14 13.66007905 14 13.66007905 14 16 C11.69 16.66 9.38 17.32 7 18 C3.82324489 13.16580744 0.93122392 8.47180111 -1 3 C-0.67 2.01 -0.34 1.02 0 0 Z " fill="#0B0D3D" transform="translate(459,31)"/>
<path d="M0 0 C-1.65 1.32 -3.3 2.64 -5 4 C-5.33 3.34 -5.66 2.68 -6 2 C-14.1599506 2.13497663 -19.88566965 2.30255581 -26 8 C-26.33 8.66 -26.66 9.32 -27 10 C-27.66 10 -28.32 10 -29 10 C-28.484375 10.78375 -27.96875 11.5675 -27.4375 12.375 C-26.963125 13.24125 -26.48875 14.1075 -26 15 C-26.33 15.66 -26.66 16.32 -27 17 C-27.66 16.67 -28.32 16.34 -29 16 C-27.6910428 19.12197478 -27.6910428 19.12197478 -25 21 C-24.26924352 23.3140622 -23.59861742 25.64828869 -23 28 C-26.37329915 26.60415208 -28.04232662 25.07634389 -30 22 C-31.55417619 17.33747142 -31.54448802 13.51246673 -29.875 8.875 C-26.81054044 4.17616201 -23.56196983 1.21847447 -18.1875 -0.3125 C-12.15691133 -1.5371023 -5.9712456 -1.54096661 0 0 Z " fill="#2080A2" transform="translate(287,30)"/>
<path d="M0 0 C0.66 0.66 1.32 1.32 2 2 C2.66 1.34 3.32 0.68 4 0 C4 0.66 4 1.32 4 2 C4.66 2 5.32 2 6 2 C6.99 4.97 7.98 7.94 9 11 C8.34 10.67 7.68 10.34 7 10 C7 9.34 7 8.68 7 8 C6.01 8.33 5.02 8.66 4 9 C4 10.98 4 12.96 4 15 C4.66 15 5.32 15 6 15 C6.508783 16.55966218 7.00663469 18.12289241 7.5 19.6875 C7.7784375 20.55761719 8.056875 21.42773438 8.34375 22.32421875 C9 25 9 25 9 30 C2.07 30 -4.86 30 -12 30 C-12 29.67 -12 29.34 -12 29 C-5.4 29 1.2 29 8 29 C7.33871094 27.32550781 6.67742188 25.65101562 5.99609375 23.92578125 C5.14256421 21.72161155 4.28973607 19.51717014 3.4375 17.3125 C2.99986328 16.20970703 2.56222656 15.10691406 2.11132812 13.97070312 C1.70205078 12.90400391 1.29277344 11.83730469 0.87109375 10.73828125 C0.29766235 9.26935425 0.29766235 9.26935425 -0.28735352 7.77075195 C-1.06409334 4.75080666 -0.85469852 2.96658517 0 0 Z " fill="#148384" transform="translate(577,36)"/>
<path d="M0 0 C3 1 3 1 4.17089844 2.78710938 C5.05682062 5.15165551 5.25805094 6.8894992 5.265625 9.40625 C5.26820313 10.23253906 5.27078125 11.05882812 5.2734375 11.91015625 C5.26570313 12.76480469 5.25796875 13.61945312 5.25 14.5 C5.25773437 15.35464844 5.26546875 16.20929687 5.2734375 17.08984375 C5.27085937 17.91613281 5.26828125 18.74242188 5.265625 19.59375 C5.26336914 20.34333984 5.26111328 21.09292969 5.25878906 21.86523438 C4.96733891 24.26942314 4.19255983 25.90857928 3 28 C1.68 27.67 0.36 27.34 -1 27 C-1 25.68 -1 24.36 -1 23 C-0.34 23 0.32 23 1 23 C0.67 15.41 0.34 7.82 0 0 Z " fill="#0202CF" transform="translate(378,47)"/>
<path d="M0 0 C8.25 0 16.5 0 25 0 C25 7.26 25 14.52 25 22 C24.01 22.33 23.02 22.66 22 23 C22 21.35 22 19.7 22 18 C22.66 18 23.32 18 24 18 C24 16.68 24 15.36 24 14 C23.34 14 22.68 14 22 14 C21.67 12.02 21.34 10.04 21 8 C20.34 8 19.68 8 19 8 C19 11.3 19 14.6 19 18 C18.34 18 17.68 18 17 18 C17 14.04 17 10.08 17 6 C18.98 6 20.96 6 23 6 C23 4.68 23 3.36 23 2 C11.615 1.505 11.615 1.505 0 1 C0 0.67 0 0.34 0 0 Z " fill="#187D7B" transform="translate(449,60)"/>
<path d="M0 0 C2.125 0.9375 2.125 0.9375 4 2 C3.01 3.485 3.01 3.485 2 5 C1.34 5 0.68 5 0 5 C-0.12375 5.55816406 -0.2475 6.11632812 -0.375 6.69140625 C-1.29224665 10.07948605 -2.70397863 13.23336094 -4.0625 16.46484375 C-4.98911235 18.97055798 -5.54852522 21.37109996 -6 24 C-7.65 24 -9.3 24 -11 24 C-9.66666667 20 -8.33333333 16 -7 12 C-7 10.68 -7 9.36 -7 8 C-5.625 6.5 -5.625 6.5 -4 5 C-3.649375 4.29875 -3.29875 3.5975 -2.9375 2.875 C-2 1 -2 1 0 0 Z " fill="#05888A" transform="translate(561,65)"/>
<path d="M0 0 C-1.98 0.99 -1.98 0.99 -4 2 C-4.99 1.34 -5.98 0.68 -7 0 C-7 0.66 -7 1.32 -7 2 C-10.3 2 -13.6 2 -17 2 C-16.67 2.99 -16.34 3.98 -16 5 C-17.65 5 -19.3 5 -21 5 C-19.88145414 8.72614153 -19.88145414 8.72614153 -17 11 C-17 11.66 -17 12.32 -17 13 C-14.525 13.99 -14.525 13.99 -12 15 C-12.66 15.33 -13.32 15.66 -14 16 C-15.91015625 15.29296875 -15.91015625 15.29296875 -18.0625 14.1875 C-18.77535156 13.83042969 -19.48820312 13.47335938 -20.22265625 13.10546875 C-22 12 -22 12 -23 10 C-23.38861928 6.42470261 -23.50519819 4.67359759 -21.3125 1.75 C-15.02494234 -3.00815174 -7.07041108 -3.64924443 0 0 Z " fill="#E0EFF8" transform="translate(287,38)"/>
<path d="M0 0 C4.37477474 -0.11651725 8.74914827 -0.18736 13.125 -0.25 C14.3625 -0.28351562 15.6 -0.31703125 16.875 -0.3515625 C28.266582 -0.47405263 28.266582 -0.47405263 33 4 C35.375 6.75 35.375 6.75 37 9 C35.68 8.67 34.36 8.34 33 8 C33 7.34 33 6.68 33 6 C20.13 5.505 20.13 5.505 7 5 C7 4.67 7 4.34 7 4 C11.95 4 16.9 4 22 4 C22 3.34 22 2.68 22 2 C14.74 1.67 7.48 1.34 0 1 C0 0.67 0 0.34 0 0 Z " fill="#0309B7" transform="translate(337,31)"/>
<path d="M0 0 C2.64 0 5.28 0 8 0 C8 0.66 8 1.32 8 2 C7.01 2.495 7.01 2.495 6 3 C6 3.99 6 4.98 6 6 C4.68 5.67 3.36 5.34 2 5 C2 22.82 2 40.64 2 59 C1.67 59 1.34 59 1 59 C0.67 39.53 0.34 20.06 0 0 Z " fill="#107681" transform="translate(487,30)"/>
<path d="M0 0 C0.66 0 1.32 0 2 0 C2.33 1.98 2.66 3.96 3 6 C3.66 6 4.32 6 5 6 C5 7.32 5 8.64 5 10 C4.34 10 3.68 10 3 10 C3.103125 10.928125 3.20625 11.85625 3.3125 12.8125 C3 16 3 16 0.6875 17.9375 C-2 19 -2 19 -5 18 C-3.68 17.67 -2.36 17.34 -1 17 C-1.33 16.01 -1.66 15.02 -2 14 C-3.98 14.99 -3.98 14.99 -6 16 C-5.67 14.35 -5.34 12.7 -5 11 C-3.35 10.67 -1.7 10.34 0 10 C0 6.7 0 3.4 0 0 Z " fill="#14888A" transform="translate(468,68)"/>
<path d="M0 0 C0.66 0 1.32 0 2 0 C2 0.66 2 1.32 2 2 C4.31 2 6.62 2 9 2 C9.33 2.66 9.66 3.32 10 4 C7.36 4 4.72 4 2 4 C2 23.8 2 43.6 2 64 C1.67 64 1.34 64 1 64 C0.67 42.88 0.34 21.76 0 0 Z " fill="#E5FBFA" transform="translate(396,26)"/>
<path d="M0 0 C12.21 0 24.42 0 37 0 C37 1.98 37 3.96 37 6 C36.01 6 35.02 6 34 6 C34 4.68 34 3.36 34 2 C23.11 2 12.22 2 1 2 C0.67 1.34 0.34 0.68 0 0 Z " fill="#187978" transform="translate(208,83)"/>
<path d="M0 0 C6.92597152 0.55407772 11.22771853 2.77689713 15.75 8 C19.2 12.6 19.2 12.6 20 15 C19.70763193 16.34291094 19.37829212 17.67871882 19 19 C18.5875 18.5153125 18.175 18.030625 17.75 17.53125 C12.3083737 11.21507662 6.79181316 4.89432212 0 0 Z " fill="#1C6C8D" transform="translate(364,31)"/>
<path d="M0 0 C2 2 2 2 2.15234375 3.91796875 C1.60302648 9.72075662 0.31565802 13.92762662 -4 18 C-12.1615097 23.32765217 -20.5113442 24.05584159 -29.9375 22.125 C-32.89475433 21.46783237 -33.79956918 21.20043082 -36 19 C-35.18660156 19.16242188 -34.37320312 19.32484375 -33.53515625 19.4921875 C-29.46356052 20.07705761 -25.54290088 20.14651302 -21.4375 20.125 C-20.69564453 20.12886719 -19.95378906 20.13273437 -19.18945312 20.13671875 C-15.33499694 20.12985418 -11.74568938 19.93456804 -8 19 C-8 18.34 -8 17.68 -8 17 C-7.01 17 -6.02 17 -5 17 C-5 15.68 -5 14.36 -5 13 C-4.01 12.67 -3.02 12.34 -2 12 C-1.34 8.04 -0.68 4.08 0 0 Z " fill="#1D1F9F" transform="translate(300,68)"/>
<path d="M0 0 C1.43655854 -0.08131463 2.8744483 -0.13933559 4.3125 -0.1875 C5.51326172 -0.23970703 5.51326172 -0.23970703 6.73828125 -0.29296875 C9 0 9 0 10.79296875 1.32421875 C12 3 12 3 12 6 C12.99 6 13.98 6 15 6 C15 6.66 15 7.32 15 8 C14.37633545 7.79141357 13.7526709 7.58282715 13.11010742 7.36791992 C5.14872174 4.92831511 -2.39666756 4.46292983 -10.6875 4.3125 C-11.97333984 4.27833984 -13.25917969 4.24417969 -14.58398438 4.20898438 C-17.72256889 4.12731117 -20.86090231 4.05790041 -24 4 C-24 3.67 -24 3.34 -24 3 C-16.08 3 -8.16 3 0 3 C0 2.01 0 1.02 0 0 Z " fill="#E2E8FB" transform="translate(360,26)"/>
<path d="M0 0 C0.99 0.33 1.98 0.66 3 1 C4.77882289 6.33646866 4.44723163 10.95258476 2 16 C1.34 16 0.68 16 0 16 C-0.33 14.68 -0.66 13.36 -1 12 C-1 12.99 -1 13.98 -1 15 C-1.99 15 -2.98 15 -4 15 C-3.5253725 12.6865641 -3.04517721 10.37426981 -2.5625 8.0625 C-2.29566406 6.77472656 -2.02882813 5.48695312 -1.75390625 4.16015625 C-1 1 -1 1 0 0 Z " fill="#0D0EC2" transform="translate(296,65)"/>
<path d="M0 0 C0.7425 1.0828125 0.7425 1.0828125 1.5 2.1875 C4.58567566 5.65888511 7.99631864 7.7163468 12 10 C11.01 10.99 10.02 11.98 9 13 C8.34 12.01 7.68 11.02 7 10 C6.01 10 5.02 10 4 10 C4 10.99 4 11.98 4 13 C1 13 1 13 -0.7890625 11.35546875 C-1.39492188 10.64003906 -2.00078125 9.92460938 -2.625 9.1875 C-3.23601562 8.47980469 -3.84703125 7.77210937 -4.4765625 7.04296875 C-6 5 -6 5 -7 2 C-6.34 2 -5.68 2 -5 2 C-5 2.66 -5 3.32 -5 4 C-4.34 4 -3.68 4 -3 4 C-2.67 4.66 -2.34 5.32 -2 6 C-1.01 5.67 -0.02 5.34 1 5 C0.67 3.35 0.34 1.7 0 0 Z " fill="#148182" transform="translate(428,72)"/>
<path d="M0 0 C0.31435058 3.22646569 0.56866446 6.45500133 0.8125 9.6875 C0.90208984 10.59951172 0.99167969 11.51152344 1.08398438 12.45117188 C1.55493014 19.26749221 1.55493014 19.26749221 -1.34375 23.09375 C-3.70984562 24.79177157 -5.14051106 25.68227901 -8 26 C-7.360625 25.071875 -6.72125 24.14375 -6.0625 23.1875 C-2.82291446 18.18086781 -2.25709665 13.83709778 -3 8 C-4.09182127 5.38248962 -5.39123689 3.36287082 -7 1 C-4.50935112 0.31292445 -2.62113708 0 0 0 Z " fill="#ECFCFC" transform="translate(88,60)"/>
<path d="M0 0 C10.89 0 21.78 0 33 0 C33 1.65 33 3.3 33 5 C22.11 5 11.22 5 0 5 C0 4.67 0 4.34 0 4 C9.9 4 19.8 4 30 4 C30 3.34 30 2.68 30 2 C15.15 1.505 15.15 1.505 0 1 C0 0.67 0 0.34 0 0 Z " fill="#0E827F" transform="translate(208,56)"/>
<path d="M0 0 C0.66 0.33 1.32 0.66 2 1 C2 1.99 2 2.98 2 4 C2.66 4 3.32 4 4 4 C5.2890625 5.64453125 5.2890625 5.64453125 6.625 7.8125 C7.07101563 8.52019531 7.51703125 9.22789063 7.9765625 9.95703125 C9 12 9 12 9 15 C7.02 15 5.04 15 3 15 C2.71125 14.0925 2.4225 13.185 2.125 12.25 C1.1371082 9.1278968 1.1371082 9.1278968 -0.125 6.875 C-1 5 -1 5 -1 1 C-0.67 0.67 -0.34 0.34 0 0 Z " fill="#048685" transform="translate(137,74)"/>
<path d="M0 0 C0.66 0 1.32 0 2 0 C0.33846988 5.85659906 -1.47041916 11.4590134 -4 17 C-6.64 17 -9.28 17 -12 17 C-10.43551329 11.3856009 -8.83604813 6.13189662 -6 1 C-5 4 -5 4 -5 7 C-5.99 7.495 -5.99 7.495 -7 8 C-7.73075648 10.3140622 -8.40138258 12.64828869 -9 15 C-7.68 15.33 -6.36 15.66 -5 16 C-5.0515625 15.29488281 -5.103125 14.58976562 -5.15625 13.86328125 C-4.97052275 10.45982939 -3.97507855 8.24828799 -2.5 5.1875 C-2.0359375 4.21167969 -1.571875 3.23585938 -1.09375 2.23046875 C-0.7328125 1.49441406 -0.371875 0.75835937 0 0 Z " fill="#2B8482" transform="translate(560,73)"/>
<path d="M0 0 C1.98 0 3.96 0 6 0 C6.33 2.64 6.66 5.28 7 8 C6.01 7.34 5.02 6.68 4 6 C2.00136244 6.57944932 2.00136244 6.57944932 0 8 C-1.29231642 11.04199472 -1.29231642 11.04199472 -2 14 C-2.66 14 -3.32 14 -4 14 C-4 11.69 -4 9.38 -4 7 C-3.34 7 -2.68 7 -2 7 C-1.855625 6.21625 -1.71125 5.4325 -1.5625 4.625 C-1 2 -1 2 0 0 Z " fill="#088891" transform="translate(573,31)"/>
<path d="M0 0 C0.83724609 -0.00128906 1.67449219 -0.00257812 2.53710938 -0.00390625 C3.41302734 -0.00003906 4.28894531 0.00382812 5.19140625 0.0078125 C6.06345703 0.00394531 6.93550781 0.00007813 7.83398438 -0.00390625 C8.67251953 -0.00261719 9.51105469 -0.00132813 10.375 0 C11.14255615 0.00112793 11.9101123 0.00225586 12.70092773 0.00341797 C14.75390625 0.1328125 14.75390625 0.1328125 17.75390625 1.1328125 C17.42390625 2.1228125 17.09390625 3.1128125 16.75390625 4.1328125 C5.36890625 3.6378125 5.36890625 3.6378125 -6.24609375 3.1328125 C-6.24609375 2.4728125 -6.24609375 1.8128125 -6.24609375 1.1328125 C-3.93085336 -0.0248077 -2.57493313 0.00378945 0 0 Z " fill="#03888A" transform="translate(170.24609375,84.8671875)"/>
<path d="M0 0 C0.99 0 1.98 0 3 0 C3.33 1.98 3.66 3.96 4 6 C5.32 6.33 6.64 6.66 8 7 C8 7.99 8 8.98 8 10 C11.71429898 11.1161656 15.39161508 11.3124195 19.25 11.5625 C20.51328125 11.64628906 21.7765625 11.73007813 23.078125 11.81640625 C24.04234375 11.87699219 25.0065625 11.93757813 26 12 C21.60579399 14.46865506 17.94917597 14.63248255 13 14 C8.04992936 12.60828685 4.79886166 10.93525268 1.4375 7 C0 4 0 4 0 0 Z " fill="#C7EDED" transform="translate(46,70)"/>
<path d="M0 0 C4.39642348 0.5024484 6.7948982 1.97295941 10 5 C11.1577506 8.47325181 11.06866652 11.36067448 11 15 C10.01 15.33 9.02 15.66 8 16 C7.01879536 12.94736336 7.01879536 11.05263664 8 8 C7.01 7.67 6.02 7.34 5 7 C5.33 6.34 5.66 5.68 6 5 C3.69 4.67 1.38 4.34 -1 4 C-0.67 2.68 -0.34 1.36 0 0 Z " fill="#05868E" transform="translate(73,60)"/>
<path d="M0 0 C0.99 1.485 0.99 1.485 2 3 C4.05925139 3.72382467 4.05925139 3.72382467 6 4 C6.33 3.34 6.66 2.68 7 2 C7.33 3.98 7.66 5.96 8 8 C7.34 8 6.68 8 6 8 C6 9.32 6 10.64 6 12 C5.34 12 4.68 12 4 12 C3.67 14.97 3.34 17.94 3 21 C2.67 21 2.34 21 2 21 C1.93941406 20.154375 1.87882812 19.30875 1.81640625 18.4375 C1.36040967 12.2640078 0.84179888 6.13310616 0 0 Z " fill="#F7F9F8" transform="translate(384,46)"/>
<path d="M0 0 C0.66 0 1.32 0 2 0 C2.67057887 1.7902061 3.3363469 3.58221489 4 5.375 C4.556875 6.87160156 4.556875 6.87160156 5.125 8.3984375 C6 11 6 11 6 13 C3 12 3 12 1 9 C0.01 11.31 -0.98 13.62 -2 16 C-2.66 16 -3.32 16 -4 16 C-4 16.99 -4 17.98 -4 19 C-4.66 18.67 -5.32 18.34 -6 18 C-4.02 12.06 -2.04 6.12 0 0 Z " fill="#E2F8F9" transform="translate(574,38)"/>
<path d="M0 0 C2.8125 0.1875 2.8125 0.1875 6 1 C8.74469461 4.29363353 9.36303085 6.76464012 9 11 C7.02 11 5.04 11 3 11 C3 8.69 3 6.38 3 4 C2.01 3.67 1.02 3.34 0 3 C0 2.01 0 1.02 0 0 Z " fill="#0203DC" transform="translate(290,35)"/>
<path d="M0 0 C3.3 0 6.6 0 10 0 C10 1.98 10 3.96 10 6 C6.7 6 3.4 6 0 6 C0 4.02 0 2.04 0 0 Z " fill="#0408AF" transform="translate(637,83)"/>
<path d="M0 0 C8.58 0 17.16 0 26 0 C26.99 1.98 27.98 3.96 29 6 C28.67 6.99 28.34 7.98 28 9 C26.68 8.67 25.36 8.34 24 8 C24.33 5.69 24.66 3.38 25 1 C17.08 1 9.16 1 1 1 C0.67 2.65 0.34 4.3 0 6 C-0.66 6.66 -1.32 7.32 -2 8 C-1.125 2.25 -1.125 2.25 0 0 Z " fill="#D4F4F3" transform="translate(105,72)"/>
<path d="M0 0 C0.66 0 1.32 0 2 0 C2 0.66 2 1.32 2 2 C2.66 2.33 3.32 2.66 4 3 C6.04698414 5.04698414 5.70045693 9.30411241 6 12 C4.02 12.99 4.02 12.99 2 14 C2 14.66 2 15.32 2 16 C1.34 16 0.68 16 0 16 C0 15.34 0 14.68 0 14 C-2.31 13.67 -4.62 13.34 -7 13 C-6.34 12.67 -5.68 12.34 -5 12 C-5.33 10.02 -5.66 8.04 -6 6 C-4 8 -4 8 -4 11 C-1.36 11 1.28 11 4 11 C2.68 7.37 1.36 3.74 0 0 Z " fill="#D7DDF4" transform="translate(296,36)"/>
<path d="M0 0 C6.6 0 13.2 0 20 0 C20.33 1.65 20.66 3.3 21 5 C20.45472656 4.855625 19.90945313 4.71125 19.34765625 4.5625 C10.98296955 2.5035002 3.4733796 2.76750842 -5 4 C-5 3.34 -5 2.68 -5 2 C-3.35 2 -1.7 2 0 2 C0 1.34 0 0.68 0 0 Z " fill="#CEE5F2" transform="translate(270,27)"/>
<path d="M0 0 C0.33 0.66 0.66 1.32 1 2 C2.65 2 4.3 2 6 2 C7 5 7 5 7.5 8.0625 C7.84043772 10.92319905 7.84043772 10.92319905 9 13 C8.01 12.67 7.02 12.34 6 12 C4.64560332 9.29120665 4.93498549 6.99066732 5 4 C3.68 4 2.36 4 1 4 C1.66 8.29 2.32 12.58 3 17 C-1 13 -1 13 -1.42578125 10.2734375 C-1.38839844 9.31695312 -1.35101563 8.36046875 -1.3125 7.375 C-1.28800781 6.41335937 -1.26351562 5.45171875 -1.23828125 4.4609375 C-1 2 -1 2 0 0 Z " fill="#318A8C" transform="translate(42,38)"/>
<path d="M0 0 C1.20535336 1.94195819 1.7380131 3.56797595 2.125 5.8125 C-0.185 6.4725 -2.495 7.1325 -4.875 7.8125 C-6.195 5.1725 -7.515 2.5325 -8.875 -0.1875 C-2.41351907 -1.52856208 -2.41351907 -1.52856208 0 0 Z " fill="#317C82" transform="translate(470.875,41.1875)"/>
<path d="M0 0 C0.66 0 1.32 0 2 0 C2 0.66 2 1.32 2 2 C3.65 2 5.3 2 7 2 C7 2.66 7 3.32 7 4 C11.95 3.67 16.9 3.34 22 3 C21.67 2.34 21.34 1.68 21 1 C21.99 1 22.98 1 24 1 C24 1.66 24 2.32 24 3 C27.465 2.505 27.465 2.505 31 2 C27.11930264 5.88069736 20.33825863 6.08371749 15 6.3125 C9.52202037 6.16716585 2.93790438 4.93790438 -1 1 C-0.67 0.67 -0.34 0.34 0 0 Z " fill="#2D8887" transform="translate(433,85)"/>
<path d="M0 0 C1.875 0.6875 1.875 0.6875 4 2 C5.0625 4.3125 5.0625 4.3125 6 7 C6.53625 7.845625 7.0725 8.69125 7.625 9.5625 C9 12 9 12 9 16 C11.31 16.33 13.62 16.66 16 17 C16 17.33 16 17.66 16 18 C13.03 18 10.06 18 7 18 C6.20558928 16.12616097 5.41460026 14.25087114 4.625 12.375 C4.18414062 11.33085938 3.74328125 10.28671875 3.2890625 9.2109375 C2.06863678 6.17096798 1.0018609 3.11794095 0 0 Z " fill="#28898A" transform="translate(131,72)"/>
<path d="M0 0 C1.9587043 0.14076315 3.91696093 0.2877676 5.875 0.4375 C7.51082031 0.55931641 7.51082031 0.55931641 9.1796875 0.68359375 C12 1 12 1 14 2 C14 2.66 14 3.32 14 4 C14.66 4.33 15.32 4.66 16 5 C15.55966813 10.19591612 15.11696661 13.66335081 12 18 C11.34 17.67 10.68 17.34 10 17 C10.66 16.34 11.32 15.68 12 15 C12.24253813 12.78927023 12.24253813 12.78927023 12.125 10.375 C12.10695313 9.55773437 12.08890625 8.74046875 12.0703125 7.8984375 C12.04710938 7.27195312 12.02390625 6.64546875 12 6 C11.46890625 5.73445313 10.9378125 5.46890625 10.390625 5.1953125 C6.92708333 3.46354167 3.46354167 1.73177083 0 0 Z " fill="#339292" transform="translate(65,63)"/>
<path d="M0 0 C6.33890086 0.60370484 10.22807695 2.94829962 14.375 7.75 C14.91125 8.4925 15.4475 9.235 16 10 C15.34 10.66 14.68 11.32 14 12 C13.67 11.01 13.34 10.02 13 9 C12.34 9 11.68 9 11 9 C10.34 10.65 9.68 12.3 9 14 C7.5 12.625 7.5 12.625 6 11 C6 10.34 6 9.68 6 9 C6.99 9 7.98 9 9 9 C8.73323796 7.01508358 8.73323796 7.01508358 8 5 C7.01 4.67 6.02 4.34 5 4 C5 3.34 5 2.68 5 2 C3.35 2 1.7 2 0 2 C0 1.34 0 0.68 0 0 Z " fill="#1114A8" transform="translate(285,57)"/>
<path d="M0 0 C0.66 0 1.32 0 2 0 C2 0.99 2 1.98 2 3 C2.66 3 3.32 3 4 3 C4.33 2.01 4.66 1.02 5 0 C5.37851209 5.93002267 4.10575375 10.47239641 2 16 C1.67 16 1.34 16 1 16 C0.855625 14.783125 0.71125 13.56625 0.5625 12.3125 C0.26657397 9.88504877 -0.09358799 7.57885406 -0.625 5.1875 C-1 3 -1 3 0 0 Z " fill="#02858F" transform="translate(612,51)"/>
<path d="M0 0 C0.66 0 1.32 0 2 0 C3.00926479 4.15626368 3.10239579 8.04365094 3.0625 12.3125 C3.05347656 13.56675781 3.04445313 14.82101563 3.03515625 16.11328125 C3.01775391 17.54220703 3.01775391 17.54220703 3 19 C2.01 18.67 1.02 18.34 0 18 C0 12.06 0 6.12 0 0 Z " fill="#0487AB" transform="translate(612,33)"/>
<path d="M0 0 C0.66 0.33 1.32 0.66 2 1 C1.25130208 2.66015625 0.50260417 4.3203125 -0.24609375 5.98046875 C-2.07337479 10.87530968 -2.12680886 15.64305714 -2.0625 20.8125 C-2.05798828 21.50537109 -2.05347656 22.19824219 -2.04882812 22.91210938 C-2.03713156 24.60811068 -2.01919924 26.30406703 -2 28 C-2.66 28.33 -3.32 28.66 -4 29 C-5.22771028 24.62612834 -5.22130279 20.45372372 -5.25 15.9375 C-5.270625 15.12216797 -5.29125 14.30683594 -5.3125 13.46679688 C-5.31765625 12.68240234 -5.3228125 11.89800781 -5.328125 11.08984375 C-5.3374707 10.37691162 -5.34681641 9.66397949 -5.35644531 8.92944336 C-4.897913 6.44740166 -3.85560104 5.64945555 -2 4 C-0.82425289 1.90010348 -0.82425289 1.90010348 0 0 Z " fill="#E8FDFE" transform="translate(421,42)"/>
<path d="M0 0 C10.89 0 21.78 0 33 0 C33 0.33 33 0.66 33 1 C32.09644775 1.02505615 31.19289551 1.0501123 30.26196289 1.07592773 C26.9203572 1.17087317 23.57893748 1.27011621 20.23754883 1.37231445 C18.7893576 1.4157163 17.34111346 1.45738744 15.89282227 1.49731445 C13.81510441 1.55489062 11.73765427 1.61862028 9.66015625 1.68359375 C8.40855713 1.72025146 7.15695801 1.75690918 5.86743164 1.79467773 C3.10369496 1.67803906 3.10369496 1.67803906 2 3 C1.76712992 4.68183948 1.58735834 6.3712416 1.4375 8.0625 C1.35371094 8.98160156 1.26992187 9.90070313 1.18359375 10.84765625 C1.12300781 11.55792969 1.06242188 12.26820312 1 13 C0.67 13 0.34 13 0 13 C0 8.71 0 4.42 0 0 Z " fill="#E7FCFE" transform="translate(209,63)"/>
<path d="M0 0 C0 3.33333333 0 6.66666667 0 10 C-0.66 10 -1.32 10 -2 10 C-2 10.66 -2 11.32 -2 12 C-2.66 12 -3.32 12 -4 12 C-4.28875 12.639375 -4.5775 13.27875 -4.875 13.9375 C-6 16 -6 16 -8 17 C-5.47835991 4.14578588 -5.47835991 4.14578588 0 0 Z " fill="#078788" transform="translate(567,48)"/>
<path d="M0 0 C5.28 0 10.56 0 16 0 C16 0.33 16 0.66 16 1 C15.18015625 1.10957031 14.3603125 1.21914063 13.515625 1.33203125 C11.89914063 1.56986328 11.89914063 1.56986328 10.25 1.8125 C9.18265625 1.96332031 8.1153125 2.11414062 7.015625 2.26953125 C3.8973938 3.02485409 2.4981116 4.09466065 0 6 C-3.75 5.6875 -3.75 5.6875 -7 5 C-6.67 3.68 -6.34 2.36 -6 1 C-5.67 1.66 -5.34 2.32 -5 3 C-3.35 3 -1.7 3 0 3 C0 2.01 0 1.02 0 0 Z " fill="#1A1846" transform="translate(50,35)"/>
<path d="M0 0 C0.66 0.33 1.32 0.66 2 1 C2.08107583 2.93681161 2.13922475 4.8745934 2.1875 6.8125 C2.22230469 7.89144531 2.25710938 8.97039063 2.29296875 10.08203125 C2 13 2 13 0.48828125 14.88671875 C-0.00285156 15.25410156 -0.49398438 15.62148437 -1 16 C-2.5516502 14.4483498 -2.1694916 12.96270239 -2.1875 10.8125 C-2.15596429 6.86422854 -1.51112262 3.68336139 0 0 Z " fill="#038891" transform="translate(423,49)"/>
<path d="M0 0 C1.32 0 2.64 0 4 0 C6.66436316 3.33045394 7.3619323 5.7774565 7 10 C4.625 9.8125 4.625 9.8125 2 9 C0.13992075 5.72271751 0 3.8340246 0 0 Z " fill="#068486" transform="translate(594,79)"/>
<path d="M0 0 C3.20831391 -0.0292483 6.41659307 -0.04688189 9.625 -0.0625 C10.98044922 -0.07506836 10.98044922 -0.07506836 12.36328125 -0.08789062 C21.64000119 -0.12174727 21.64000119 -0.12174727 26 1 C26.33 1.66 26.66 2.32 27 3 C29.01669827 4.13350534 29.01669827 4.13350534 31 5 C30.67 6.32 30.34 7.64 30 9 C29.55269531 8.57847656 29.10539062 8.15695313 28.64453125 7.72265625 C28.03996094 7.17480469 27.43539063 6.62695312 26.8125 6.0625 C26.22082031 5.51722656 25.62914062 4.97195312 25.01953125 4.41015625 C20.37737904 1.16873082 14.16630056 1.70127809 8.6875 1.4375 C7.85154297 1.39431641 7.01558594 1.35113281 6.15429688 1.30664062 C4.10303065 1.20114693 2.0515352 1.10012685 0 1 C0 0.67 0 0.34 0 0 Z " fill="#292FA0" transform="translate(344,36)"/>
<path d="M0 0 C4.95 0.33 9.9 0.66 15 1 C15 1.66 15 2.32 15 3 C10.05 3 5.1 3 0 3 C-0.33 3.99 -0.66 4.98 -1 6 C-1 5.34 -1 4.68 -1 4 C-1.66 4 -2.32 4 -3 4 C-3 3.34 -3 2.68 -3 2 C-2.01 2 -1.02 2 0 2 C0 1.34 0 0.68 0 0 Z " fill="#0102D4" transform="translate(344,32)"/>
<path d="M0 0 C2 2 2 2 2 4 C0.25034642 4.05429959 -1.49979787 4.09292823 -3.25 4.125 C-4.22453125 4.14820312 -5.1990625 4.17140625 -6.203125 4.1953125 C-9.0196498 3.99862781 -10.60949036 3.44568916 -13 2 C-8.49016424 -0.25491788 -4.94576735 -0.32431261 0 0 Z " fill="#048585" transform="translate(64,85)"/>
<path d="M0 0 C0.66 0 1.32 0 2 0 C2 1.65 2 3.3 2 5 C-2.62 5 -7.24 5 -12 5 C-11 3 -11 3 -10 2 C-8.31391034 1.92794489 -6.62499341 1.91613932 -4.9375 1.9375 C-4.01839844 1.94652344 -3.09929688 1.95554687 -2.15234375 1.96484375 C-1.44207031 1.97644531 -0.73179687 1.98804687 0 2 C0 1.34 0 0.68 0 0 Z " fill="#09868D" transform="translate(633,84)"/>
<path d="M0 0 C0.99 0 1.98 0 3 0 C3.27714844 0.78246094 3.55429688 1.56492188 3.83984375 2.37109375 C4.20207031 3.38300781 4.56429687 4.39492187 4.9375 5.4375 C5.29714844 6.44683594 5.65679687 7.45617187 6.02734375 8.49609375 C6.76877639 10.90313745 6.76877639 10.90313745 8 12 C8.04092937 14.33297433 8.04241723 16.66705225 8 19 C5.27227952 16.27227952 4.2539869 13.02994255 2.875 9.5 C2.59785156 8.81035156 2.32070312 8.12070313 2.03515625 7.41015625 C0 2.26712592 0 2.26712592 0 0 Z " fill="#C8ECEC" transform="translate(135,60)"/>
<path d="M0 0 C3.63 0 7.26 0 11 0 C11 0.99 11 1.98 11 3 C11.66 3.33 12.32 3.66 13 4 C12.01 5.485 12.01 5.485 11 7 C11 6.01 11 5.02 11 4 C7.7 4 4.4 4 1 4 C0.67 2.68 0.34 1.36 0 0 Z " fill="#E0F3F5" transform="translate(112,26)"/>
<path d="M0 0 C0 0.99 0 1.98 0 3 C-0.99 3 -1.98 3 -3 3 C-3.66 4.65 -4.32 6.3 -5 8 C-6.65 7.67 -8.3 7.34 -10 7 C-9.375 4.625 -9.375 4.625 -8 2 C-5.23085693 0.78849991 -3.03028259 0 0 0 Z " fill="#0503CE" transform="translate(379,77)"/>
<path d="M0 0 C2 1 2 1 3.125 4.25 C4 8 4 8 4 13 C-2.93 13 -9.86 13 -17 13 C-17 12.67 -17 12.34 -17 12 C-10.4 12 -3.8 12 3 12 C1.68 8.37 0.36 4.74 -1 1 C-0.67 0.67 -0.34 0.34 0 0 Z " fill="#3C9092" transform="translate(582,53)"/>
<path d="M0 0 C0.66 0 1.32 0 2 0 C1.91298828 1.30324219 1.91298828 1.30324219 1.82421875 2.6328125 C1.2397455 10.10764484 1.2397455 10.10764484 4.25 16.625 C7.51576848 19.45622349 7.51576848 19.45622349 11 22 C9.02 22 7.04 22 5 22 C5 21.34 5 20.68 5 20 C4.34 20 3.68 20 3 20 C0.2623713 15.32950485 -0.33996234 12.01200281 -0.1875 6.625 C-0.16042969 5.37976562 -0.13335937 4.13453125 -0.10546875 2.8515625 C-0.07066406 1.91054688 -0.03585938 0.96953125 0 0 Z " fill="#D5F9F9" transform="translate(40,38)"/>
<path d="M0 0 C0.66 0.33 1.32 0.66 2 1 C2.625 3.0625 2.625 3.0625 3 5 C2.01 5 1.02 5 0 5 C0 6.98 0 8.96 0 11 C-0.66 11 -1.32 11 -2 11 C-1.9175 12.093125 -1.835 13.18625 -1.75 14.3125 C-2 18 -2 18 -4 19.9375 C-4.66 20.288125 -5.32 20.63875 -6 21 C-5.21511292 16.42600291 -3.84473878 12.09842491 -2.4375 7.6875 C-2.20353516 6.94693359 -1.96957031 6.20636719 -1.72851562 5.44335938 C-1.15468028 3.62816595 -0.57765989 1.81397994 0 0 Z " fill="#A6DDDF" transform="translate(117,37)"/>
<path d="M0 0 C0 1.65 0 3.3 0 5 C-2.31 5 -4.62 5 -7 5 C-7.33 3.35 -7.66 1.7 -8 0 C-4.71303767 -0.79953138 -3.28976808 -1.09658936 0 0 Z " fill="#1F8688" transform="translate(84,42)"/>
<path d="M0 0 C4.33142291 0.79900034 8.56416268 1.91199334 12.8125 3.0625 C13.50537109 3.24876953 14.19824219 3.43503906 14.91210938 3.62695312 C16.60845641 4.08321198 18.3042818 4.54140954 20 5 C16.67142535 6.09927523 14.44999843 5.86109362 11.0625 5.0625 C7.63846038 4.26338102 4.52059511 3.61279411 1 4 C0.34 4.99 -0.32 5.98 -1 7 C-1.625 5.1875 -1.625 5.1875 -2 3 C-1.34 2.01 -0.68 1.02 0 0 Z " fill="#0D17AB" transform="translate(265,51)"/>
<path d="M0 0 C-0.33 5.61 -0.66 11.22 -1 17 C-1.33 17 -1.66 17 -2 17 C-2.03867188 16.14728516 -2.03867188 16.14728516 -2.078125 15.27734375 C-2.50434233 9.47497597 -3.79821783 5.8543149 -7 1 C-4.50935112 0.31292445 -2.62113708 0 0 0 Z " fill="#DFF3F2" transform="translate(88,60)"/>
<path d="M0 0 C0.66 0.33 1.32 0.66 2 1 C2 1.66 2 2.32 2 3 C0.01310269 4.35278115 -1.98745218 5.68568305 -4 7 C-4.33 7.66 -4.66 8.32 -5 9 C-5.66 9 -6.32 9 -7 9 C-7.33 11.97 -7.66 14.94 -8 18 C-8.33 18 -8.66 18 -9 18 C-9.31571333 12.73811115 -8.89914347 9.44535331 -6 5 C-4.08937284 3.15257424 -2.12847322 1.60817976 0 0 Z " fill="#2A8D9D" transform="translate(265,31)"/>
<path d="M0 0 C0.99 0 1.98 0 3 0 C3 4.29 3 8.58 3 13 C2.01 13.33 1.02 13.66 0 14 C0 9.38 0 4.76 0 0 Z " fill="#1F1CBB" transform="translate(383,54)"/>
<path d="M0 0 C-0.95712891 0.30744141 -0.95712891 0.30744141 -1.93359375 0.62109375 C-2.75988281 0.89050781 -3.58617187 1.15992187 -4.4375 1.4375 C-5.67306641 1.83775391 -5.67306641 1.83775391 -6.93359375 2.24609375 C-8.96219588 2.82155494 -8.96219588 2.82155494 -10 4 C-12.33297433 4.04092937 -14.66705225 4.04241723 -17 4 C-17.33 3.01 -17.66 2.02 -18 1 C-15.75152519 0.63627613 -13.50113812 0.28435904 -11.25 -0.0625 C-9.99703125 -0.25972656 -8.7440625 -0.45695312 -7.453125 -0.66015625 C-4.49983411 -0.95080818 -2.7397586 -0.98935727 0 0 Z " fill="#DEF7F7" transform="translate(462,90)"/>
<path d="M0 0 C0.99 0.33 1.98 0.66 3 1 C2.67 1.99 2.34 2.98 2 4 C1.49252661 10.72402241 3.3370572 14.5055858 7 20 C2.38642298 18.54308094 2.38642298 18.54308094 0.84375 16.375 C-0.31935611 13.10107168 -0.18913575 10.21333066 -0.125 6.75 C-0.10695312 5.48671875 -0.08890625 4.2234375 -0.0703125 2.921875 C-0.04710937 1.95765625 -0.02390625 0.9934375 0 0 Z " fill="#DAF9F9" transform="translate(255,38)"/>
<path d="M0 0 C2.31 0 4.62 0 7 0 C6.67 0.66 6.34 1.32 6 2 C5.34 1.67 4.68 1.34 4 1 C4 4.63 4 8.26 4 12 C0.8388984 8.8388984 0.61187259 8.4438418 0.3125 4.3125 C0.24675781 3.50425781 0.18101562 2.69601563 0.11328125 1.86328125 C0.07589844 1.24839844 0.03851563 0.63351563 0 0 Z " fill="#374EA3" transform="translate(254,70)"/>
<path d="M0 0 C0.99 0.33 1.98 0.66 3 1 C2.67 3.64 2.34 6.28 2 9 C-0.31 9.33 -2.62 9.66 -5 10 C-5 9.34 -5 8.68 -5 8 C-3.68 7.67 -2.36 7.34 -1 7 C-1.020625 6.030625 -1.04125 5.06125 -1.0625 4.0625 C-1 1 -1 1 0 0 Z " fill="#0A8081" transform="translate(106,57)"/>
<path d="M0 0 C1.32 0 2.64 0 4 0 C3.95875 1.093125 3.9175 2.18625 3.875 3.3125 C3.67925334 7.08892229 3.67925334 7.08892229 6 10 C4.68 10.99 3.36 11.98 2 13 C2 10.69 2 8.38 2 6 C1.34 5.67 0.68 5.34 0 5 C0 3.35 0 1.7 0 0 Z " fill="#F7FBF0" transform="translate(299,34)"/>
<path d="M0 0 C4.05364337 2.84850615 6.24977746 5.3327399 8 10 C7.6875 12.375 7.6875 12.375 7 14 C3.03810217 9.76486783 1.56818272 5.452999 0 0 Z " fill="#1D748D" transform="translate(376,36)"/>
<path d="M0 0 C-1 1.5 -1 1.5 -3 3 C-5.71846235 3.27345479 -8.25677199 3.13491285 -11 3 C-11 2.34 -11 1.68 -11 1 C-11.99 0.67 -12.98 0.34 -14 0 C-12.41773035 -0.19627391 -10.83410729 -0.38165538 -9.25 -0.5625 C-8.36828125 -0.66691406 -7.4865625 -0.77132812 -6.578125 -0.87890625 C-4.11567549 -0.99456676 -2.33461936 -0.73638695 0 0 Z " fill="#E4FBFB" transform="translate(72,91)"/>
<path d="M0 0 C0.66 0 1.32 0 2 0 C2 0.66 2 1.32 2 2 C2.66 2 3.32 2 4 2 C4 2.99 4 3.98 4 5 C4.763125 5.268125 5.52625 5.53625 6.3125 5.8125 C8.87380884 6.94424112 10.19692938 7.91223401 12 10 C11.67 10.66 11.34 11.32 11 12 C7.88036045 10.63981009 5.99165178 9.16739866 3.8125 6.5625 C3.30332031 5.96566406 2.79414063 5.36882812 2.26953125 4.75390625 C1 3 1 3 0 0 Z " fill="#218485" transform="translate(421,74)"/>
<path d="M0 0 C0.33 0.66 0.66 1.32 1 2 C1.94875 2.144375 2.8975 2.28875 3.875 2.4375 C7.11003166 3.0198057 8.02934054 3.48193513 10 6 C8 7 8 7 5.57421875 6.2578125 C4.14529297 5.69707031 4.14529297 5.69707031 2.6875 5.125 C-0.87350386 3.73557694 -4.22843163 2.64576945 -8 2 C-8 1.67 -8 1.34 -8 1 C-5.36 0.67 -2.72 0.34 0 0 Z " fill="#D3D8F8" transform="translate(285,53)"/>
<path d="M0 0 C8.41192037 -0.10094304 16.64399592 -0.10102642 25 1 C25 1.66 25 2.32 25 3 C25.66 3.33 26.32 3.66 27 4 C25.35 4 23.7 4 22 4 C22 3.34 22 2.68 22 2 C14.74 1.67 7.48 1.34 0 1 C0 0.67 0 0.34 0 0 Z " fill="#0003C0" transform="translate(337,31)"/>
<path d="M0 0 C0 0.66 0 1.32 0 2 C0.66 2 1.32 2 2 2 C1.625 3.9375 1.625 3.9375 1 6 C0.01 6.495 0.01 6.495 -1 7 C-1.33 5.35 -1.66 3.7 -2 2 C-4.97 2 -7.94 2 -11 2 C-4.31914894 -1.34042553 -4.31914894 -1.34042553 0 0 Z " fill="#E2F3F8" transform="translate(582,28)"/>
<path d="M0 0 C-0.1875 2.3125 -0.1875 2.3125 -1 5 C-3.5625 6.8125 -3.5625 6.8125 -6 8 C-6.33 6.02 -6.66 4.04 -7 2 C-2.25 0 -2.25 0 0 0 Z " fill="#158A8F" transform="translate(81,81)"/>
<path d="M0 0 C3.96 0 7.92 0 12 0 C12 3.63 12 7.26 12 11 C11.01 11.33 10.02 11.66 9 12 C9.66 8.37 10.32 4.74 11 1 C8.03 1 5.06 1 2 1 C2 1.66 2 2.32 2 3 C1.34 3 0.68 3 0 3 C0 2.01 0 1.02 0 0 Z " fill="#E1FCFB" transform="translate(454,67)"/>
<path d="M0 0 C1.98 0 3.96 0 6 0 C5.835 0.598125 5.67 1.19625 5.5 1.8125 C4.8885876 4.11344336 4.8885876 4.11344336 5 7 C0.125 5.25 0.125 5.25 -1 3 C-0.34 3 0.32 3 1 3 C0.67 2.01 0.34 1.02 0 0 Z " fill="#188B8A" transform="translate(46,52)"/>
<path d="M0 0 C0.433125 0.598125 0.86625 1.19625 1.3125 1.8125 C2.90681105 3.98975883 2.90681105 3.98975883 4.6875 5.625 C6 7 6 7 6 9 C8.475 9.99 8.475 9.99 11 11 C10.01 11.495 10.01 11.495 9 12 C7.08984375 11.29296875 7.08984375 11.29296875 4.9375 10.1875 C4.22464844 9.83042969 3.51179688 9.47335938 2.77734375 9.10546875 C1 8 1 8 0 6 C-0.039992 4.00039988 -0.04346799 1.99952758 0 0 Z " fill="#CEE4F7" transform="translate(264,42)"/>
<path d="M0 0 C5.94 0 11.88 0 18 0 C18 0.33 18 0.66 18 1 C16.58847656 1.19916016 16.58847656 1.19916016 15.1484375 1.40234375 C13.90320313 1.57894531 12.65796875 1.75554688 11.375 1.9375 C10.14523437 2.11152344 8.91546875 2.28554688 7.6484375 2.46484375 C4.42443816 2.93774301 1.21187824 3.45151002 -2 4 C-1.34 2.68 -0.68 1.36 0 0 Z " fill="#D4D8E3" transform="translate(435,28)"/>
<path d="M0 0 C0.66 0.33 1.32 0.66 2 1 C2.62645012 9.14385151 2.62645012 9.14385151 0.125 12.5625 C-2 14 -2 14 -4 14 C-4 13.34 -4 12.68 -4 12 C-3.34 12 -2.68 12 -2 12 C-2.33 11.01 -2.66 10.02 -3 9 C-2.01 8.34 -1.02 7.68 0 7 C-0.2784375 5.824375 -0.2784375 5.824375 -0.5625 4.625 C-1 2 -1 2 0 0 Z " fill="#DEF6F5" transform="translate(76,68)"/>
<path d="M0 0 C2.49310643 3.73965964 2.0603261 5.29070641 1.625 9.6875 C1.51414062 10.86699219 1.40328125 12.04648437 1.2890625 13.26171875 C1.19367188 14.16535156 1.09828125 15.06898437 1 16 C0.67 15.01 0.34 14.02 0 13 C-2.00016466 11.79117904 -2.00016466 11.79117904 -4 11 C-4 10.01 -4 9.02 -4 8 C-3.34 8 -2.68 8 -2 8 C-2 8.66 -2 9.32 -2 10 C-1.34 10 -0.68 10 0 10 C-0.08378906 9.36191406 -0.16757812 8.72382812 -0.25390625 8.06640625 C-0.35574219 7.24011719 -0.45757812 6.41382813 -0.5625 5.5625 C-0.66691406 4.73878906 -0.77132813 3.91507813 -0.87890625 3.06640625 C-0.91886719 2.38449219 -0.95882813 1.70257813 -1 1 C-0.67 0.67 -0.34 0.34 0 0 Z " fill="#0785AC" transform="translate(262,38)"/>
<path d="M0 0 C2.015625 1.453125 2.015625 1.453125 4 4 C4.36308003 6.9556515 4.05847259 9.79747665 3.75 12.75 C3.68425781 13.54277344 3.61851562 14.33554687 3.55078125 15.15234375 C3.38624584 17.10326366 3.19565518 19.05195497 3 21 C2.67 21 2.34 21 2 21 C1.93941406 20.154375 1.87882812 19.30875 1.81640625 18.4375 C1.36040967 12.2640078 0.84179888 6.13310616 0 0 Z " fill="#DBE7F9" transform="translate(384,46)"/>
<path d="M0 0 C2.1640625 -0.29296875 2.1640625 -0.29296875 4.625 -0.1875 C5.44226563 -0.16042969 6.25953125 -0.13335938 7.1015625 -0.10546875 C8.04128906 -0.05326172 8.04128906 -0.05326172 9 0 C9.99 2.64 10.98 5.28 12 8 C11.34 8 10.68 8 10 8 C10 7.34 10 6.68 10 6 C9.34 6 8.68 6 8 6 C8 4.35 8 2.7 8 1 C6.02 1 4.04 1 2 1 C1.67 1.99 1.34 2.98 1 4 C0.01 3.67 -0.98 3.34 -2 3 C-1.34 2.01 -0.68 1.02 0 0 Z " fill="#268691" transform="translate(571,30)"/>
<path d="M0 0 C1.52519276 0.08937803 3.04681929 0.24537146 4.5625 0.4375 C5.80193359 0.59025391 5.80193359 0.59025391 7.06640625 0.74609375 C7.70449219 0.82988281 8.34257813 0.91367188 9 1 C6.35261084 2.4606285 5.10551666 3 2 3 C2 4.32 2 5.64 2 7 C1.01 6.67 0.02 6.34 -1 6 C-1.042721 4.33388095 -1.04063832 2.66617115 -1 1 C-0.67 0.67 -0.34 0.34 0 0 Z " fill="#D0F0F0" transform="translate(37,68)"/>
<path d="M0 0 C1 3 1 3 0 6 C0.66 6 1.32 6 2 6 C1.67 7.32 1.34 8.64 1 10 C0.360625 10.12375 -0.27875 10.2475 -0.9375 10.375 C-1.618125 10.58125 -2.29875 10.7875 -3 11 C-3.33 11.66 -3.66 12.32 -4 13 C-3.40895235 8.15340923 -2.02055843 4.39251833 0 0 Z " fill="#329495" transform="translate(104,54)"/>
<path d="M0 0 C2.97 0.495 2.97 0.495 6 1 C6 3.31 6 5.62 6 8 C7.98 8 9.96 8 12 8 C12.33 7.34 12.66 6.68 13 6 C13 6.99 13 7.98 13 9 C10.36 9 7.72 9 5 9 C4.54625 8.071875 4.0925 7.14375 3.625 6.1875 C2.0578367 2.96078611 2.0578367 2.96078611 0 0 Z " fill="#2527B0" transform="translate(287,38)"/>
<path d="M0 0 C0.98120464 3.05263664 0.98120464 4.94736336 0 8 C-1.32 8 -2.64 8 -4 8 C-4.66 8.66 -5.32 9.32 -6 10 C-8.125 9.625 -8.125 9.625 -10 9 C-8.63875 8.1646875 -8.63875 8.1646875 -7.25 7.3125 C-4.15546609 5.1106201 -2.20718532 3.05610275 0 0 Z " fill="#D8DDF5" transform="translate(381,78)"/>
<path d="M0 0 C2 2 2 2 2 5 C1.34 5 0.68 5 0 5 C0 5.66 0 6.32 0 7 C-1.65 7 -3.3 7 -5 7 C-4.1875 4.0625 -4.1875 4.0625 -3 1 C-2.01 0.67 -1.02 0.34 0 0 Z " fill="#098485" transform="translate(97,82)"/>
<path d="M0 0 C1.32 0.33 2.64 0.66 4 1 C4.36552803 2.41377782 4.71695495 3.83120576 5.0625 5.25 C5.25972656 6.03890625 5.45695313 6.8278125 5.66015625 7.640625 C6.01497267 10.10394822 5.76877544 11.65604132 5 14 C4.16235732 12.04350603 3.33000941 10.08474444 2.5 8.125 C2.0359375 7.03445312 1.571875 5.94390625 1.09375 4.8203125 C0 2 0 2 0 0 Z " fill="#DBF9F9" transform="translate(598,74)"/>
<path d="M0 0 C0.33 0.66 0.66 1.32 1 2 C1.99 2.33 2.98 2.66 4 3 C4.33 3.99 4.66 4.98 5 6 C4.38125 5.731875 3.7625 5.46375 3.125 5.1875 C-1.17994393 3.5516213 -5.58031552 2.28728674 -10 1 C-10 0.67 -10 0.34 -10 0 C-3.375 -1.125 -3.375 -1.125 0 0 Z " fill="#C7EBEA" transform="translate(76,55)"/>
<path d="M0 0 C1.875 0.1875 1.875 0.1875 4 1 C5.25 3.5625 5.25 3.5625 6 6 C4.02 6 2.04 6 0 6 C0 5.34 0 4.68 0 4 C-0.66 3.67 -1.32 3.34 -2 3 C-1.34 2.01 -0.68 1.02 0 0 Z " fill="#ECF0F2" transform="translate(370,43)"/>
<path d="M0 0 C0.66 0.33 1.32 0.66 2 1 C-0.97 8.92 -0.97 8.92 -4 17 C-5.24142712 12.03429151 -4.37261666 9.84452938 -3 5 C-2.34 5 -1.68 5 -1 5 C-0.67 3.35 -0.34 1.7 0 0 Z " fill="#D1F5F4" transform="translate(553,71)"/>
<path d="M0 0 C0.33 0 0.66 0 1 0 C0.63495936 5.66442374 -0.0554321 10.00703705 -3 15 C-4 13 -5 11 -6 9 C-5.01 9 -4.02 9 -3 9 C-2.01 6.03 -1.02 3.06 0 0 Z " fill="#11119E" transform="translate(384,65)"/>
<path d="M0 0 C0.96070434 2.88211302 1.10581883 4.69850044 1.0625 7.6875 C1.05347656 8.49574219 1.04445313 9.30398437 1.03515625 10.13671875 C1.02355469 10.75160156 1.01195312 11.36648437 1 12 C-1.0625 10.375 -1.0625 10.375 -3 8 C-2.85205998 4.3014996 -2.64194427 2.64194427 0 0 Z " fill="#C2E7E9" transform="translate(51,39)"/>
<path d="M0 0 C0.66 0 1.32 0 2 0 C2.67119549 1.4562545 3.33681807 2.91507867 4 4.375 C4.556875 5.59316406 4.556875 5.59316406 5.125 6.8359375 C6 9 6 9 6 11 C3.03 11 0.06 11 -3 11 C-3 10.67 -3 10.34 -3 10 C-1.02 10 0.96 10 3 10 C2.05066101 6.64566891 1.10251165 3.30753495 0 0 Z " fill="#348889" transform="translate(598,79)"/>
<path d="M0 0 C0.66 0 1.32 0 2 0 C2.33 1.98 2.66 3.96 3 6 C3.66 6 4.32 6 5 6 C5 7.32 5 8.64 5 10 C4.34 10 3.68 10 3 10 C3 9.34 3 8.68 3 8 C2.34 8 1.68 8 1 8 C-0.35439668 5.29120665 -0.06501451 2.99066732 0 0 Z " fill="#038883" transform="translate(468,68)"/>
<path d="M0 0 C0.99 0.495 0.99 0.495 2 1 C2.625 3.5625 2.625 3.5625 3 6 C3.66 6 4.32 6 5 6 C5.33 8.97 5.66 11.94 6 15 C3.75848118 12.75848118 3.03698675 10.9932888 1.875 8.0625 C1.52179687 7.18722656 1.16859375 6.31195313 0.8046875 5.41015625 C0 3 0 3 0 0 Z " fill="#D8F5F5" transform="translate(590,54)"/>
<path d="M0 0 C2.64 0 5.28 0 8 0 C8 0.66 8 1.32 8 2 C5.36 2.99 2.72 3.98 0 5 C0 3.35 0 1.7 0 0 Z " fill="#0B2139" transform="translate(487,30)"/>
<path d="M0 0 C0.66 0 1.32 0 2 0 C1.57476184 1.60746056 1.13429874 3.21089836 0.6875 4.8125 C0.44386719 5.70582031 0.20023438 6.59914063 -0.05078125 7.51953125 C-1.0200819 10.05247738 -1.95009604 11.2716496 -4 13 C-4 9.70342144 -3.25666731 7.83635572 -2 4.8125 C-1.62875 3.91144531 -1.2575 3.01039062 -0.875 2.08203125 C-0.441875 1.05142578 -0.441875 1.05142578 0 0 Z " fill="#1E7E7E" transform="translate(560,73)"/>
<path d="M0 0 C3 2 3 2 3.51171875 4.1640625 C3.56972656 4.97617188 3.62773437 5.78828125 3.6875 6.625 C3.75324219 7.44226563 3.81898438 8.25953125 3.88671875 9.1015625 C3.92410156 9.72804688 3.96148437 10.35453125 4 11 C3.34 10.67 2.68 10.34 2 10 C2 9.01 2 8.02 2 7 C1.34 7 0.68 7 0 7 C0 4.69 0 2.38 0 0 Z " fill="#F7FDED" transform="translate(250,73)"/>
<path d="M0 0 C1.32 0.99 2.64 1.98 4 3 C3.67 4.32 3.34 5.64 3 7 C3 6.01 3 5.02 3 4 C0.69 4.66 -1.62 5.32 -4 6 C-2.25 1.125 -2.25 1.125 0 0 Z " fill="#1111BC" transform="translate(376,73)"/>
<path d="M0 0 C3.3 0 6.6 0 10 0 C10 1.65 10 3.3 10 5 C9.01 4.34 8.02 3.68 7 3 C4.67612053 2.60612212 2.34206251 2.26513915 0 2 C0 1.34 0 0.68 0 0 Z " fill="#F7F9F7" transform="translate(398,26)"/>
<path d="M0 0 C0.66 0 1.32 0 2 0 C2.66 3.63 3.32 7.26 4 11 C3.34 11 2.68 11 2 11 C-1 4.375 -1 4.375 -1 1 C-0.67 0.67 -0.34 0.34 0 0 Z " fill="#E7FAFB" transform="translate(252,70)"/>
<path d="M0 0 C4.99911924 0.47610659 7.97832683 2.03162219 12 5 C11.01 5.66 10.02 6.32 9 7 C8.67 6.34 8.34 5.68 8 5 C7.01 4.67 6.02 4.34 5 4 C5 3.34 5 2.68 5 2 C3.35 2 1.7 2 0 2 C0 1.34 0 0.68 0 0 Z " fill="#0B0AA1" transform="translate(285,57)"/>
<path d="M0 0 C2 1 2 1 3.1875 3.3125 C4.0391795 6.12959374 4.23132595 7.34791333 3 10 C2.01 10.33 1.02 10.66 0 11 C-0.66 10.67 -1.32 10.34 -2 10 C-2 9.34 -2 8.68 -2 8 C-1.01 7.67 -0.02 7.34 1 7 C0.67 4.69 0.34 2.38 0 0 Z " fill="#0E8181" transform="translate(127,44)"/>
<path d="M0 0 C0.99 0.33 1.98 0.66 3 1 C2.67 1.66 2.34 2.32 2 3 C3.32 3.33 4.64 3.66 6 4 C6 4.66 6 5.32 6 6 C3.36 5.67 0.72 5.34 -2 5 C-1.125 1.125 -1.125 1.125 0 0 Z " fill="#101F43" transform="translate(428,35)"/>
<path d="M0 0 C3.63 0 7.26 0 11 0 C11 0.33 11 0.66 11 1 C8.36 1 5.72 1 3 1 C3 1.66 3 2.32 3 3 C0.36 3.33 -2.28 3.66 -5 4 C-5 3.34 -5 2.68 -5 2 C-3.35 2 -1.7 2 0 2 C0 1.34 0 0.68 0 0 Z " fill="#D6F6F7" transform="translate(270,27)"/>
<path d="M0 0 C3 3.625 3 3.625 3 7 C1.02 7 -0.96 7 -3 7 C-3.33 5.68 -3.66 4.36 -4 3 C-2.515 3.99 -2.515 3.99 -1 5 C-0.67 3.35 -0.34 1.7 0 0 Z " fill="#138282" transform="translate(143,82)"/>
<path d="M0 0 C0.66 0.66 1.32 1.32 2 2 C1.66302652 8.17784711 1.66302652 8.17784711 -0.5625 10.9375 C-1.036875 11.288125 -1.51125 11.63875 -2 12 C-2.33 10.68 -2.66 9.36 -3 8 C-2.01 7.67 -1.02 7.34 0 7 C0 4.69 0 2.38 0 0 Z " fill="#E3EAFA" transform="translate(292,69)"/>
<path d="M0 0 C0.99 0.33 1.98 0.66 3 1 C3.33 3.31 3.66 5.62 4 8 C3.01 8.33 2.02 8.66 1 9 C1 8.01 1 7.02 1 6 C0.68578929 3.99690671 0.3548954 1.99628664 0 0 Z " fill="#F8FBF3" transform="translate(288,68)"/>
<path d="M0 0 C0.66 0.99 1.32 1.98 2 3 C1.67 3.33 1.34 3.66 1 4 C1.99 4.33 2.98 4.66 4 5 C4 6.32 4 7.64 4 9 C2.68 8.67 1.36 8.34 0 8 C-1.125 2.25 -1.125 2.25 0 0 Z " fill="#1A8C8C" transform="translate(99,67)"/>
<path d="M0 0 C0.99 0.33 1.98 0.66 3 1 C3 2.98 3 4.96 3 7 C2.01 7.495 2.01 7.495 1 8 C1 7.01 1 6.02 1 5 C0.34 5 -0.32 5 -1 5 C-0.67 3.35 -0.34 1.7 0 0 Z " fill="#0202D5" transform="translate(296,65)"/>
<path d="M0 0 C0.66 0.33 1.32 0.66 2 1 C1.525625 2.051875 1.05125 3.10375 0.5625 4.1875 C-0.69323741 7.10175851 -1.52234381 9.84746914 -2 13 C-2.33 13 -2.66 13 -3 13 C-3 11.35 -3 9.7 -3 8 C-3.66 7.67 -4.32 7.34 -5 7 C-4.54625 6.5875 -4.0925 6.175 -3.625 5.75 C-1.94049626 3.93591905 -1.00734029 2.24714373 0 0 Z " fill="#DBF6F6" transform="translate(421,42)"/>
<path d="M0 0 C0.99 0 1.98 0 3 0 C3.33 3.63 3.66 7.26 4 11 C1.6870518 8.6870518 1.50419025 7.52095125 0.875 4.375 C0.70742187 3.55773438 0.53984375 2.74046875 0.3671875 1.8984375 C0.24601562 1.27195313 0.12484375 0.64546875 0 0 Z " fill="#319290" transform="translate(120,41)"/>
<path d="M0 0 C0.66 0.33 1.32 0.66 2 1 C1.67 1.66 1.34 2.32 1 3 C0.85624578 6.37822416 0.92463652 8.77390955 2 12 C1.01 12.99 0.02 13.98 -1 15 C-1.02693575 12.87506859 -1.04636628 10.75004088 -1.0625 8.625 C-1.07410156 7.44164062 -1.08570313 6.25828125 -1.09765625 5.0390625 C-1 2 -1 2 0 0 Z " fill="#1E7BA6" transform="translate(264,39)"/>
<path d="M0 0 C0.66 0 1.32 0 2 0 C2.66 2.64 3.32 5.28 4 8 C2.68 7.34 1.36 6.68 0 6 C0 6.66 0 7.32 0 8 C-0.66 7.67 -1.32 7.34 -2 7 C-1.34 4.69 -0.68 2.38 0 0 Z " fill="#D1F5F6" transform="translate(574,38)"/>
<path d="M0 0 C1.65 0 3.3 0 5 0 C6.06775224 1.96466413 7.06553465 3.96855359 8 6 C7.67 6.66 7.34 7.32 7 8 C5.83035398 6.8572081 4.66435444 5.71068285 3.5 4.5625 C2.8503125 3.92441406 2.200625 3.28632812 1.53125 2.62890625 C0 1 0 1 0 0 Z " fill="#1166AB" transform="translate(371,36)"/>
<path d="M0 0 C1.32 0.66 2.64 1.32 4 2 C1.36 3.65 -1.28 5.3 -4 7 C-4 4 -4 4 -2 1.8125 C-1.34 1.214375 -0.68 0.61625 0 0 Z " fill="#E5EAF4" transform="translate(429,31)"/>
<path d="M0 0 C1.32 0 2.64 0 4 0 C4 0.66 4 1.32 4 2 C5.65 2 7.3 2 9 2 C9.33 2.66 9.66 3.32 10 4 C8.375 4.75 8.375 4.75 6 5 C2.75 3.125 2.75 3.125 0 1 C0 0.67 0 0.34 0 0 Z " fill="#318D8F" transform="translate(43,83)"/>
<path d="M0 0 C0.66 0 1.32 0 2 0 C2.66 1.98 3.32 3.96 4 6 C2.35 6.33 0.7 6.66 -1 7 C-1.04254356 5.00045254 -1.04080783 2.99958364 -1 1 C-0.67 0.67 -0.34 0.34 0 0 Z " fill="#E7F9F8" transform="translate(130,74)"/>
<path d="M0 0 C1.953125 0.7109375 1.953125 0.7109375 4 2 C4.609375 4.1640625 4.609375 4.1640625 4.75 6.625 C4.80671875 7.44226563 4.8634375 8.25953125 4.921875 9.1015625 C4.94765625 9.72804688 4.9734375 10.35453125 5 11 C2.77174356 8.77174356 2.30760631 7.34238372 1.375 4.375 C1.11460937 3.55773437 0.85421875 2.74046875 0.5859375 1.8984375 C0.39257812 1.27195312 0.19921875 0.64546875 0 0 Z " fill="#399391" transform="translate(131,72)"/>
<path d="M0 0 C1.65 0 3.3 0 5 0 C6.0625 1.75 6.0625 1.75 7 4 C6.67 5.32 6.34 6.64 6 8 C4.02 5.36 2.04 2.72 0 0 Z " fill="#C4E9EB" transform="translate(375,34)"/>
<path d="M0 0 C1.65 0 3.3 0 5 0 C5.33 1.98 5.66 3.96 6 6 C3.37812506 4.95125002 2.20628639 4.35068687 0.75 1.875 C0.5025 1.25625 0.255 0.6375 0 0 Z " fill="#D7F2F4" transform="translate(430,74)"/>
<path d="M0 0 C0.66 0.33 1.32 0.66 2 1 C2.75 3.375 2.75 3.375 3 6 C2.01 7.485 2.01 7.485 1 9 C-0.33333333 6.33333333 -1.66666667 3.66666667 -3 1 C-2.01 0.67 -1.02 0.34 0 0 Z " fill="#D8DDF4" transform="translate(300,61)"/>
<path d="M0 0 C1.45792884 -0.05399736 2.91642712 -0.09279177 4.375 -0.125 C5.18710937 -0.14820313 5.99921875 -0.17140625 6.8359375 -0.1953125 C9 0 9 0 11 2 C8.20129973 3.39935013 6.09501208 3.25265405 3 3 C1.30859375 1.484375 1.30859375 1.484375 0 0 Z " fill="#EDF2F8" transform="translate(358,38)"/>
<path d="M0 0 C0.33 0.66 0.66 1.32 1 2 C2.98 2 4.96 2 7 2 C6.67 2.99 6.34 3.98 6 5 C3.69 4.67 1.38 4.34 -1 4 C-0.67 2.68 -0.34 1.36 0 0 Z " fill="#0D2345" transform="translate(44,36)"/>
<path d="M0 0 C2.31 0 4.62 0 7 0 C7 0.99 7 1.98 7 3 C4.36 3 1.72 3 -1 3 C-0.67 2.01 -0.34 1.02 0 0 Z " fill="#DEF5F5" transform="translate(154,27)"/>
<path d="M0 0 C0.66 0 1.32 0 2 0 C3.125 5.75 3.125 5.75 2 8 C1.34 8 0.68 8 0 8 C0 5.36 0 2.72 0 0 Z " fill="#DAF2F2" transform="translate(245,82)"/>
<path d="M0 0 C0.33 0 0.66 0 1 0 C1 2.64 1 5.28 1 8 C0.34 8 -0.32 8 -1 8 C-1 8.66 -1 9.32 -1 10 C-1.66 10 -2.32 10 -3 10 C-2.01 6.7 -1.02 3.4 0 0 Z " fill="#C6E6E6" transform="translate(102,80)"/>
<path d="M0 0 C4.95 0.99 4.95 0.99 10 2 C10 2.33 10 2.66 10 3 C7.36 3.33 4.72 3.66 2 4 C1.34 2.68 0.68 1.36 0 0 Z " fill="#E5FAFA" transform="translate(51,60)"/>
<path d="M0 0 C0.33 0 0.66 0 1 0 C0.53199289 4.05606165 0.12046792 7.46588679 -2 11 C-2.95465783 8.83032311 -3.14401212 7.43671207 -2.3984375 5.17578125 C-1.64129615 3.4315257 -0.82390802 1.71372869 0 0 Z " fill="#28817F" transform="translate(422,43)"/>
<path d="M0 0 C0.66 0 1.32 0 2 0 C2 0.66 2 1.32 2 2 C2.99 2 3.98 2 5 2 C4.67 4.97 4.34 7.94 4 11 C3.67 11 3.34 11 3 11 C2.01 7.37 1.02 3.74 0 0 Z " fill="#C7DCE1" transform="translate(81,36)"/>
<path d="M0 0 C-0.20625 0.5775 -0.4125 1.155 -0.625 1.75 C-1.08661261 4.51967567 -0.42944945 5.64561267 1 8 C0.01 8 -0.98 8 -2 8 C-3.4606285 5.35261084 -4 4.10551666 -4 1 C-2 0 -2 0 0 0 Z " fill="#020340" transform="translate(77,33)"/>
<path d="M0 0 C1.32 0 2.64 0 4 0 C4.33 2.64 4.66 5.28 5 8 C3.33333333 6.33333333 1.66666667 4.66666667 0 3 C0 2.01 0 1.02 0 0 Z " fill="#058C9D" transform="translate(575,31)"/>
<path d="M0 0 C0 0.99 0 1.98 0 3 C0.99 3 1.98 3 3 3 C3 3.66 3 4.32 3 5 C-0.63 4.01 -4.26 3.02 -8 2 C-8 1.67 -8 1.34 -8 1 C-5.23735711 0.40267181 -2.83967231 0 0 0 Z " fill="#C2E3E7" transform="translate(372,29)"/>
<path d="M0 0 C0.66 0 1.32 0 2 0 C2 1.32 2 2.64 2 4 C-0.64 4.33 -3.28 4.66 -6 5 C-5.195625 4.360625 -4.39125 3.72125 -3.5625 3.0625 C-1.7249496 1.59396498 -1.7249496 1.59396498 0 0 Z " fill="#D7F7F5" transform="translate(472,82)"/>
<path d="M0 0 C0.99 0.33 1.98 0.66 3 1 C2.67 1.99 2.34 2.98 2 4 C-0.5625 5.1875 -0.5625 5.1875 -3 6 C-3.66 5.34 -4.32 4.68 -5 4 C-3.35 3.34 -1.7 2.68 0 2 C0 1.34 0 0.68 0 0 Z " fill="#F1F3F6" transform="translate(301,81)"/>
<path d="M0 0 C0.68707555 2.49064888 1 4.37886292 1 7 C0.01 7.66 -0.98 8.32 -2 9 C-2.99 8.67 -3.98 8.34 -5 8 C-4.360625 7.236875 -3.72125 6.47375 -3.0625 5.6875 C-0.85767219 3.11753287 -0.85767219 3.11753287 0 0 Z " fill="#C1E4E6" transform="translate(85,77)"/>
<path d="M0 0 C2 3 4 6 6 9 C3.5625 8.625 3.5625 8.625 1 8 C-0.35439668 5.29120665 -0.06501451 2.99066732 0 0 Z " fill="#14159C" transform="translate(261,72)"/>
<path d="M0 0 C0.99 0.33 1.98 0.66 3 1 C3 2.98 3 4.96 3 7 C2.01 6.67 1.02 6.34 0 6 C0 4.02 0 2.04 0 0 Z " fill="#0307C8" transform="translate(258,71)"/>
<path d="M0 0 C0.99 0 1.98 0 3 0 C3 4.29 3 8.58 3 13 C2.67 13 2.34 13 2 13 C1.93941406 12.39671875 1.87882812 11.7934375 1.81640625 11.171875 C1.69072266 9.97304687 1.69072266 9.97304687 1.5625 8.75 C1.48128906 7.96109375 1.40007812 7.1721875 1.31640625 6.359375 C1.02365007 4.17635361 0.57935581 2.1226818 0 0 Z " fill="#BCE2E1" transform="translate(84,64)"/>
<path d="M0 0 C0.66 0 1.32 0 2 0 C1.67 2.97 1.34 5.94 1 9 C-1 7 -1 7 -1.1875 3.9375 C-1 1 -1 1 0 0 Z " fill="#E0F4F3" transform="translate(134,50)"/>
<path d="M0 0 C0.99 0.33 1.98 0.66 3 1 C3 2.98 3 4.96 3 7 C2.34 6.34 1.68 5.68 1 5 C0.01 5.495 0.01 5.495 -1 6 C-0.67 4.02 -0.34 2.04 0 0 Z " fill="#06847E" transform="translate(108,47)"/>
<path d="M0 0 C2.64 0.33 5.28 0.66 8 1 C8 1.99 8 2.98 8 4 C5.36 3.67 2.72 3.34 0 3 C0 2.01 0 1.02 0 0 Z " fill="#CEF3F2" transform="translate(76,46)"/>
<path d="M0 0 C1.65 0.33 3.3 0.66 5 1 C4.67 1.99 4.34 2.98 4 4 C2.35 4 0.7 4 -1 4 C-0.67 2.68 -0.34 1.36 0 0 Z " fill="#0A8685" transform="translate(467,42)"/>
<path d="M0 0 C4.8 3.44615385 4.8 3.44615385 5.8125 6.25 C5.874375 6.8275 5.93625 7.405 6 8 C5.01 7.67 4.02 7.34 3 7 C2.66666667 5.66666667 2.33333333 4.33333333 2 3 C1.01 2.67 0.02 2.34 -1 2 C-0.67 1.34 -0.34 0.68 0 0 Z " fill="#131B43" transform="translate(77,33)"/>
<path d="M0 0 C0.66 0 1.32 0 2 0 C2.25 2.3125 2.25 2.3125 2 5 C0 6.8125 0 6.8125 -2 8 C-1.47731534 5.23723823 -0.89130413 2.6739124 0 0 Z " fill="#BAE5E8" transform="translate(113,50)"/>
<path d="M0 0 C1.485 0.99 1.485 0.99 3 2 C3 2.66 3 3.32 3 4 C3.66 4 4.32 4 5 4 C5 5.32 5 6.64 5 8 C4.34 8 3.68 8 3 8 C0 2.25 0 2.25 0 0 Z " fill="#0826A4" transform="translate(380,46)"/>
<path d="M0 0 C0.66 0 1.32 0 2 0 C2.33 1.98 2.66 3.96 3 6 C1.68 6 0.36 6 -1 6 C-1.042721 4.33388095 -1.04063832 2.66617115 -1 1 C-0.67 0.67 -0.34 0.34 0 0 Z " fill="#058A8B" transform="translate(126,46)"/>
<path d="M0 0 C2.0625 0.4375 2.0625 0.4375 4 1 C3.67 1.99 3.34 2.98 3 4 C2.34 4 1.68 4 1 4 C0.67 4.99 0.34 5.98 0 7 C-0.38133299 5.0085944 -0.71325582 3.00720923 -1 1 C-0.67 0.67 -0.34 0.34 0 0 Z " fill="#F4F9F7" transform="translate(131,42)"/>
<path d="M0 0 C0.33 0.66 0.66 1.32 1 2 C3.32156597 2.40729228 5.6568787 2.74438677 8 3 C7.01 4.485 7.01 4.485 6 6 C5.34 6 4.68 6 4 6 C4 5.01 4 4.02 4 3 C2.35 3.33 0.7 3.66 -1 4 C-0.67 2.68 -0.34 1.36 0 0 Z " fill="#237881" transform="translate(425,38)"/>
<path d="M0 0 C0.66 0.33 1.32 0.66 2 1 C1.01 3.64 0.02 6.28 -1 9 C-2.32 8.34 -3.64 7.68 -5 7 C-4.01 6.34 -3.02 5.68 -2 5 C-0.79549696 2.44816596 -0.79549696 2.44816596 0 0 Z " fill="#D1F4F3" transform="translate(569,30)"/>
<path d="M0 0 C1.32 0.33 2.64 0.66 4 1 C4 2.32 4 3.64 4 5 C2.68 5 1.36 5 0 5 C0 3.35 0 1.7 0 0 Z " fill="#F6FCF5" transform="translate(372,27)"/>
<path d="M0 0 C0.99 0 1.98 0 3 0 C4.00016187 2.00032373 4.49396008 3.83125748 5 6 C3.0625 5.25 3.0625 5.25 1 4 C0.25 1.875 0.25 1.875 0 0 Z " fill="#05817F" transform="translate(423,69)"/>
<path d="M0 0 C3.35595828 0.59927826 5.37801226 1.84622436 8 4 C6.02 4 4.04 4 2 4 C2 3.34 2 2.68 2 2 C1.34 2 0.68 2 0 2 C0 1.34 0 0.68 0 0 Z " fill="#E3FBFB" transform="translate(43,56)"/>
<path d="M0 0 C1.65 0 3.3 0 5 0 C5 0.99 5 1.98 5 3 C3.02 3 1.04 3 -1 3 C-0.67 2.01 -0.34 1.02 0 0 Z " fill="#021A42" transform="translate(464,38)"/>
<path d="M0 0 C2.7972908 2.06756277 3.02692273 3.14440371 3.6875 6.6875 C3.790625 7.780625 3.89375 8.87375 4 10 C0 4 0 4 0 0 Z " fill="#080AA0" transform="translate(295,36)"/>
<path d="M0 0 C0 0.33 0 0.66 0 1 C-2.31 1 -4.62 1 -7 1 C-7 1.66 -7 2.32 -7 3 C-8.32 3.33 -9.64 3.66 -11 4 C-10.67 3.01 -10.34 2.02 -10 1 C-6.78548731 -0.60725635 -3.56387464 -0.05748185 0 0 Z " fill="#D4F7F9" transform="translate(276,38)"/>
<path d="M0 0 C0.99 0 1.98 0 3 0 C3.1875 2.375 3.1875 2.375 3 5 C2.01 5.66 1.02 6.32 0 7 C0 4.69 0 2.38 0 0 Z " fill="#D9F3F5" transform="translate(244,30)"/>
</svg>
