<?xml version="1.0" encoding="UTF-8"?>
<svg version="1.1" xmlns="http://www.w3.org/2000/svg" width="170" height="170">
<path d="M0 0 C56.1 0 112.2 0 170 0 C170 56.1 170 112.2 170 170 C113.9 170 57.8 170 0 170 C0 113.9 0 57.8 0 0 Z " fill="#FCFCFC" transform="translate(0,0)"/>
<path d="M0 0 C0.85648636 -0.00570007 1.71297272 -0.01140015 2.59541321 -0.01727295 C4.41003193 -0.02669564 6.22466756 -0.03324604 8.03930664 -0.03710938 C10.74723595 -0.04668564 13.45436208 -0.07767938 16.16210938 -0.109375 C28.08708824 -0.18214853 39.41423356 0.90661627 51.11328125 3.203125 C52.13687744 3.40196289 53.16047363 3.60080078 54.21508789 3.80566406 C56.59353923 4.30438985 58.94598426 4.85334512 61.30078125 5.453125 C62.52921753 5.76564209 62.52921753 5.76564209 63.7824707 6.08447266 C71.85374718 8.24255123 79.85970363 11.00042818 87.11328125 15.203125 C87.91419189 15.66638184 88.71510254 16.12963867 89.5402832 16.60693359 C92.96335702 18.8754995 95.61371697 20.63378195 96.8918457 24.64892578 C97.15011117 27.51208762 97.10293892 30.20907556 96.92578125 33.078125 C96.89548828 34.08302979 96.86519531 35.08793457 96.83398438 36.12329102 C96.4285968 45.11532975 94.69833094 53.60552671 92.11328125 62.203125 C91.12328125 62.203125 90.13328125 62.203125 89.11328125 62.203125 C87.448903 60.25934751 85.96949227 58.34160801 84.48828125 56.265625 C74.76287694 43.23004672 62.72776763 32.63663696 47.11328125 27.203125 C46.30761719 26.90664063 45.50195312 26.61015625 44.671875 26.3046875 C28.78712664 21.37883381 8.82776492 22.55388659 -5.94921875 30.078125 C-11.20850434 33.19388808 -14.14062602 35.63843124 -15.88671875 41.640625 C-15.88671875 46.14751297 -14.76849052 47.79050053 -11.88671875 51.203125 C-8.1633088 54.57594072 -4.37245825 56.4710527 0.30859375 58.1484375 C1.35262863 58.53082077 1.35262863 58.53082077 2.41775513 58.92092896 C9.72337281 61.53041949 17.17877361 63.51580085 24.67999268 65.47229004 C38.03407188 68.97721059 50.87215036 72.67736533 63.11328125 79.203125 C64.54607422 79.95142578 64.54607422 79.95142578 66.0078125 80.71484375 C72.6345051 84.43027048 78.35597673 89.27767436 84.11328125 94.203125 C83.17326665 98.56692286 81.05926668 102.08640645 78.80078125 105.890625 C78.13743774 107.00969238 78.13743774 107.00969238 77.46069336 108.15136719 C69.49552952 121.38272066 60.42001766 133.7083847 50.11328125 145.203125 C49.45070313 145.96109375 48.788125 146.7190625 48.10546875 147.5 C39.17813144 157.13704195 28.35989133 163.01124477 15.23828125 163.578125 C4.48323039 163.33492033 -3.24616057 158.51455144 -10.88671875 151.203125 C-20.88671875 140.52492431 -20.88671875 140.52492431 -20.88671875 137.203125 C-21.54671875 137.203125 -22.20671875 137.203125 -22.88671875 137.203125 C-24.25390625 135.19140625 -24.25390625 135.19140625 -25.76171875 132.515625 C-27.90212935 128.80662918 -30.18401731 125.52952677 -32.88671875 122.203125 C-32.88671875 121.543125 -32.88671875 120.883125 -32.88671875 120.203125 C-29.7168462 121.25974918 -27.59957999 122.42917041 -24.94921875 124.515625 C-14.68658045 132.16719382 -1.27722888 134.01992958 11.11328125 133.203125 C14.05483384 132.47993786 16.35277119 131.50525239 19.11328125 130.203125 C20.10328125 129.873125 21.09328125 129.543125 22.11328125 129.203125 C23.2384421 127.37028057 23.2384421 127.37028057 24.11328125 125.203125 C24.45230469 124.605 24.79132813 124.006875 25.140625 123.390625 C27.03687569 119.12596481 26.79312102 114.75187113 26.11328125 110.203125 C21.55179572 98.99695583 10.64851557 93.02973811 0.06884766 88.5637207 C-3.71345404 87.01762818 -7.52403727 85.59979402 -11.38671875 84.265625 C-28.81882819 78.09612844 -46.42196131 68.37799517 -54.88671875 51.203125 C-57.65839212 43.05401491 -58.73580818 33.45127588 -55.82421875 25.1875 C-49.56090139 14.09053554 -38.84380858 7.3904373 -26.76953125 3.9765625 C-17.84565422 1.63251672 -9.23758515 0.04869266 0 0 Z " fill="#E5026A" transform="translate(64.88671875,4.796875)"/>
<path d="M0 0 C0.85648636 -0.00570007 1.71297272 -0.01140015 2.59541321 -0.01727295 C4.41003193 -0.02669564 6.22466756 -0.03324604 8.03930664 -0.03710938 C10.74723595 -0.04668564 13.45436208 -0.07767938 16.16210938 -0.109375 C28.08708824 -0.18214853 39.41423356 0.90661627 51.11328125 3.203125 C52.13687744 3.40196289 53.16047363 3.60080078 54.21508789 3.80566406 C56.59353923 4.30438985 58.94598426 4.85334512 61.30078125 5.453125 C62.52921753 5.76564209 62.52921753 5.76564209 63.7824707 6.08447266 C71.85374718 8.24255123 79.85970363 11.00042818 87.11328125 15.203125 C87.91419189 15.66638184 88.71510254 16.12963867 89.5402832 16.60693359 C92.96335702 18.8754995 95.61371697 20.63378195 96.8918457 24.64892578 C97.15011117 27.51208762 97.10293892 30.20907556 96.92578125 33.078125 C96.89548828 34.08302979 96.86519531 35.08793457 96.83398438 36.12329102 C96.4285968 45.11532975 94.69833094 53.60552671 92.11328125 62.203125 C91.12328125 62.203125 90.13328125 62.203125 89.11328125 62.203125 C87.448903 60.25934751 85.96949227 58.34160801 84.48828125 56.265625 C74.76287694 43.23004672 62.72776763 32.63663696 47.11328125 27.203125 C46.30761719 26.90664063 45.50195312 26.61015625 44.671875 26.3046875 C28.78712664 21.37883381 8.82776492 22.55388659 -5.94921875 30.078125 C-11.20850434 33.19388808 -14.14062602 35.63843124 -15.88671875 41.640625 C-15.88671875 46.14751297 -14.76849052 47.79050053 -11.88671875 51.203125 C-8.16471688 54.57474303 -4.37868698 56.46524552 0.30078125 58.140625 C0.98333984 58.39150879 1.66589844 58.64239258 2.36914062 58.90087891 C10.47806851 61.80712745 18.78506063 64.0246784 27.11328125 66.203125 C27.11328125 66.533125 27.11328125 66.863125 27.11328125 67.203125 C19.48627826 66.93558632 11.86091112 66.64010936 4.23583984 66.32226562 C1.82533836 66.2302934 -0.58053305 66.16343274 -2.9921875 66.125 C-18.28932272 65.60329502 -39.13171873 60.44009522 -50.88671875 50.203125 C-52.43359375 48.5 -52.43359375 48.5 -53.63671875 46.953125 C-54.37921875 46.045625 -55.12171875 45.138125 -55.88671875 44.203125 C-56.21671875 44.203125 -56.54671875 44.203125 -56.88671875 44.203125 C-57.56471544 34.08339667 -57.88050677 26.29250642 -50.88671875 18.203125 C-38.49322818 4.46012101 -17.80753859 0.09386613 0 0 Z " fill="#023FBF" transform="translate(64.88671875,4.796875)"/>
<path d="M0 0 C1.5431853 1.3286386 3.06477952 2.68281353 4.5625 4.0625 C5.32949219 4.76117188 6.09648437 5.45984375 6.88671875 6.1796875 C11.94413411 11.00526888 16.00922487 16.19313117 19.93359375 21.97265625 C20.47113281 22.66230469 21.00867188 23.35195312 21.5625 24.0625 C22.2225 24.0625 22.8825 24.0625 23.5625 24.0625 C23.5625 25.0525 23.5625 26.0425 23.5625 27.0625 C22.2425 27.0625 20.9225 27.0625 19.5625 27.0625 C19.5625 28.3825 19.5625 29.7025 19.5625 31.0625 C15.82762223 30.5645163 13.75012365 30.18758244 10.5625 28.0625 C10.5625 27.4025 10.5625 26.7425 10.5625 26.0625 C8.5825 25.7325 6.6025 25.4025 4.5625 25.0625 C4.5625 24.4025 4.5625 23.7425 4.5625 23.0625 C3.428125 22.918125 2.29375 22.77375 1.125 22.625 C-2.4375 22.0625 -2.4375 22.0625 -3.4375 21.0625 C-6.40537593 20.96219405 -9.34487172 20.92378215 -12.3125 20.9375 C-13.14136719 20.93363281 -13.97023438 20.92976563 -14.82421875 20.92578125 C-15.62214844 20.92707031 -16.42007813 20.92835937 -17.2421875 20.9296875 C-18.34022705 20.93137939 -18.34022705 20.93137939 -19.46044922 20.93310547 C-21.65015313 20.99249796 -21.65015313 20.99249796 -24.4375 22.0625 C-28.70444186 22.29799118 -32.97725497 22.24768164 -37.25 22.25 C-38.42626953 22.26224609 -39.60253906 22.27449219 -40.81445312 22.28710938 C-42.5247168 22.29000977 -42.5247168 22.29000977 -44.26953125 22.29296875 C-45.30827393 22.29707764 -46.3470166 22.30118652 -47.41723633 22.30541992 C-50.68945463 22.04223528 -53.37514002 21.21692592 -56.4375 20.0625 C-56.1075 20.7225 -55.7775 21.3825 -55.4375 22.0625 C-53.1234378 22.79325648 -50.78921131 23.46388258 -48.4375 24.0625 C-48.4375 24.7225 -48.4375 25.3825 -48.4375 26.0625 C-54.36137909 25.4186001 -59.7985886 23.97684634 -65.4375 22.0625 C-66.448125 21.72347656 -67.45875 21.38445312 -68.5 21.03515625 C-75.47648521 18.44513612 -80.55623561 15.58103378 -84.4375 9.0625 C-85.82940598 4.81352385 -85.88916175 3.0684739 -84.0625 -1 C-63.0717429 -24.48965675 -22.35944776 -17.38681786 0 0 Z " fill="#F6FAFA" transform="translate(133.4375,42.9375)"/>
<path d="M0 0 C4.28696589 0.55315689 7.84119445 2.16924562 11.7265625 3.95703125 C13.71928911 4.87122026 15.72375722 5.72634305 17.75 6.5625 C20.68147349 7.85911328 23.25817483 9.3549049 26 11 C27.7325 11.7115625 27.7325 11.7115625 29.5 12.4375 C37.03913967 15.80318735 40.24077191 20.87412144 44 28 C46.45146385 35.35439156 45.70801873 44.46266701 43.1484375 51.73046875 C38.5434371 60.83082668 27.90401851 67.02179594 18.80859375 70.9453125 C10.5334075 73.39849924 1.24070133 72.96856547 -6.5703125 69.375 C-15.79500597 64.15459469 -22.83865427 56.52101005 -29 48 C-29 47.34 -29 46.68 -29 46 C-29.66 46 -30.32 46 -31 46 C-32.3671875 43.98828125 -32.3671875 43.98828125 -33.875 41.3125 C-36.0154106 37.60350418 -38.29729856 34.32640177 -41 31 C-41 30.34 -41 29.68 -41 29 C-37.83012745 30.05662418 -35.71286124 31.22604541 -33.0625 33.3125 C-22.7998617 40.96406882 -9.39051013 42.81680458 3 42 C5.94155259 41.27681286 8.23948994 40.30212739 11 39 C11.99 38.67 12.98 38.34 14 38 C15.12516085 36.16715557 15.12516085 36.16715557 16 34 C16.33902344 33.401875 16.67804688 32.80375 17.02734375 32.1875 C18.92359444 27.92283981 18.67983977 23.54874613 18 19 C15.22863148 12.1915986 9.92539093 7.94404319 4.171875 3.62890625 C2 2 2 2 0 0 Z " fill="#BB0151" transform="translate(73,96)"/>
<path d="M0 0 C0.86597305 -0.0033284 1.73194611 -0.0066568 2.62416077 -0.01008606 C4.45557121 -0.01513495 6.2869908 -0.01749502 8.1184082 -0.01733398 C10.87011677 -0.01949974 13.62141021 -0.03761953 16.37304688 -0.05664062 C26.75496545 -0.08864559 36.72556918 0.43008957 46.97265625 2.16796875 C46.97265625 2.49796875 46.97265625 2.82796875 46.97265625 3.16796875 C45.45285156 3.15056641 45.45285156 3.15056641 43.90234375 3.1328125 C42.55078311 3.12342666 41.19922045 3.11432732 39.84765625 3.10546875 C39.1825 3.09708984 38.51734375 3.08871094 37.83203125 3.08007812 C34.69261833 3.06468885 31.76623799 3.20334777 28.66796875 3.734375 C25.97265625 4.16796875 25.97265625 4.16796875 22.97265625 3.16796875 C20.4589757 3.08328705 17.97396251 3.0519499 15.4609375 3.0703125 C14.73271286 3.07172745 14.00448822 3.0731424 13.25419617 3.07460022 C10.93114086 3.08019216 8.60818237 3.09274313 6.28515625 3.10546875 C4.70898577 3.11048479 3.13281377 3.11504752 1.55664062 3.11914062 C-2.30472473 3.13015895 -6.16601783 3.14741801 -10.02734375 3.16796875 C-10.35734375 3.82796875 -10.68734375 4.48796875 -11.02734375 5.16796875 C-13.00734375 5.16796875 -14.98734375 5.16796875 -17.02734375 5.16796875 C-17.35734375 5.82796875 -17.68734375 6.48796875 -18.02734375 7.16796875 C-20.00734375 7.16796875 -21.98734375 7.16796875 -24.02734375 7.16796875 C-24.35734375 7.82796875 -24.68734375 8.48796875 -25.02734375 9.16796875 C-24.38821045 9.15749512 -23.74907715 9.14702148 -23.09057617 9.13623047 C-20.1320404 9.0940838 -17.17356814 9.0684593 -14.21484375 9.04296875 C-13.21001953 9.02621094 -12.20519531 9.00945313 -11.16992188 8.9921875 C-4.23788831 8.94760851 2.20206209 9.68530809 8.97265625 11.16796875 C8.97265625 11.49796875 8.97265625 11.82796875 8.97265625 12.16796875 C8.01601074 12.17731445 7.05936523 12.18666016 6.07373047 12.19628906 C2.45382585 12.23678748 -1.16528097 12.3026953 -4.78466797 12.37548828 C-6.33794749 12.40335698 -7.89135986 12.42473716 -9.44482422 12.43896484 C-22.82476422 12.56869923 -36.95570645 13.72521337 -48.02734375 22.16796875 C-50.09543219 24.76604927 -50.09543219 24.76604927 -51.02734375 27.16796875 C-49.03333559 27.25526733 -49.03333559 27.25526733 -47.19921875 26.671875 C-44.81825962 26.11945822 -42.71783691 26.06957914 -40.27734375 26.10546875 C-39.478125 26.11449219 -38.67890625 26.12351562 -37.85546875 26.1328125 C-37.2521875 26.14441406 -36.64890625 26.15601562 -36.02734375 26.16796875 C-35.36734375 27.48796875 -34.70734375 28.80796875 -34.02734375 30.16796875 C-32.70734375 30.16796875 -31.38734375 30.16796875 -30.02734375 30.16796875 C-30.02734375 31.15796875 -30.02734375 32.14796875 -30.02734375 33.16796875 C-28.78984375 32.98234375 -27.55234375 32.79671875 -26.27734375 32.60546875 C-23.26454798 32.22085652 -20.92723548 32.08050935 -18.02734375 33.16796875 C-18.02734375 33.82796875 -18.02734375 34.48796875 -18.02734375 35.16796875 C-18.68734375 35.16796875 -19.34734375 35.16796875 -20.02734375 35.16796875 C-19.53234375 38.13796875 -19.53234375 38.13796875 -19.02734375 41.16796875 C-18.36734375 39.84796875 -17.70734375 38.52796875 -17.02734375 37.16796875 C-16.03734375 37.66296875 -16.03734375 37.66296875 -15.02734375 38.16796875 C-15.27484375 39.19921875 -15.52234375 40.23046875 -15.77734375 41.29296875 C-16.08783423 46.10557119 -15.09596166 47.53407912 -12.02734375 51.16796875 C-8.30534188 54.53958678 -4.51931198 56.43008927 0.16015625 58.10546875 C0.84271484 58.35635254 1.52527344 58.60723633 2.22851562 58.86572266 C10.33744351 61.7719712 18.64443563 63.98952215 26.97265625 66.16796875 C26.97265625 66.49796875 26.97265625 66.82796875 26.97265625 67.16796875 C19.34565326 66.90043007 11.72028612 66.60495311 4.09521484 66.28710938 C1.68471336 66.19513715 -0.72115805 66.12827649 -3.1328125 66.08984375 C-18.42994772 65.56813877 -39.27234373 60.40493897 -51.02734375 50.16796875 C-52.57421875 48.46484375 -52.57421875 48.46484375 -53.77734375 46.91796875 C-54.51984375 46.01046875 -55.26234375 45.10296875 -56.02734375 44.16796875 C-56.35734375 44.16796875 -56.68734375 44.16796875 -57.02734375 44.16796875 C-57.70534044 34.04824042 -58.02113177 26.25735017 -51.02734375 18.16796875 C-38.60036995 4.38783558 -17.85068784 0.02426066 0 0 Z " fill="#0352C5" transform="translate(65.02734375,4.83203125)"/>
<path d="M0 0 C6.57730025 5.20626768 12.70471668 10.73819007 17 18 C17 18.66 17 19.32 17 20 C13.05822814 18.47415283 9.22037158 16.75923994 5.37890625 15 C4.59386719 14.67 3.80882812 14.34 3 14 C2.1754834 13.65050293 1.3509668 13.30100586 0.50146484 12.94091797 C-4.20501125 11.67618788 -8.55580952 11.82903439 -13.40234375 11.9453125 C-15.4472589 11.97060189 -17.49218113 11.99532404 -19.53710938 12.01953125 C-22.74103164 12.06915115 -25.94458044 12.12514752 -29.14819336 12.19189453 C-32.25376692 12.25249342 -35.35886579 12.28789957 -38.46484375 12.3203125 C-39.89170753 12.36069138 -39.89170753 12.36069138 -41.34739685 12.40188599 C-48.74838856 12.45738981 -52.91169062 10.85074712 -58.4375 5.75 C-60.11964286 2.78942857 -60.75469733 0.42712275 -60.5859375 -3 C-59.45701557 -6.85338686 -56.40553672 -9.09632474 -53 -11 C-35.21930073 -16.17545354 -14.82144081 -10.05090335 0 0 Z " fill="#F96B05" transform="translate(133,51)"/>
<path d="M0 0 C0 0.33 0 0.66 0 1 C-0.71953857 1.01458252 -1.43907715 1.02916504 -2.18041992 1.04418945 C-31.48671892 1.28192338 -31.48671892 1.28192338 -56 16 C-56.95547581 18.67108098 -56.95547581 18.67108098 -57 21 C-58.5625 19.25 -58.5625 19.25 -60 17 C-59.6875 14.75 -59.6875 14.75 -59 13 C-58.34 13 -57.68 13 -57 13 C-57 12.34 -57 11.68 -57 11 C-60.96 11 -64.92 11 -69 11 C-69 10.01 -69 9.02 -69 8 C-70.32 8 -71.64 8 -73 8 C-73.66 7.01 -74.32 6.02 -75 5 C-78.12557959 4.63469768 -78.12557959 4.63469768 -81.625 4.8125 C-82.81351563 4.83957031 -84.00203125 4.86664063 -85.2265625 4.89453125 C-86.14179687 4.92933594 -87.05703125 4.96414062 -88 5 C-88.33 5.66 -88.66 6.32 -89 7 C-89.66 7.33 -90.32 7.66 -91 8 C-90.8105582 3.9270013 -90.33032031 2.3383769 -87.4375 -0.625 C-63.60988259 -18.19998022 -25.24220808 -11.13626827 0 0 Z " fill="#0103B2" transform="translate(104,27)"/>
<path d="M0 0 C4.61547404 1.01572932 7.99781122 3.03947491 11.21875 6.48828125 C12.85235902 9.7960355 14.05209235 13.04201389 15.1484375 16.5625 C16.2059336 19.45324664 17.0029385 20.48936135 19.21875 22.48828125 C20.140625 24.21484375 20.140625 24.21484375 20.96875 26.11328125 C24.90782468 34.15432467 29.42156131 39.91907057 37.7109375 43.6328125 C41.22222395 44.83058778 44.53332909 45.15324299 48.21875 45.48828125 C48.54875 46.14828125 48.87875 46.80828125 49.21875 47.48828125 C31.58599892 48.57523166 15.08540293 43.51693455 1.15625 32.55078125 C-2.53155024 29.08158772 -5.22990789 24.83267184 -7.78125 20.48828125 C-8.34779297 19.54855469 -8.34779297 19.54855469 -8.92578125 18.58984375 C-10.05249419 15.82193708 -10.1189723 13.47049755 -10.15625 10.48828125 C-10.18460938 9.45703125 -10.21296875 8.42578125 -10.2421875 7.36328125 C-9.32096696 1.61736333 -5.66429982 -0.36987032 0 0 Z " fill="#049B05" transform="translate(30.78125,87.51171875)"/>
<path d="M0 0 C5 5 5 5 7.046875 7.41796875 C11.01620223 10.88850486 15.14537726 12.35413587 20.0625 14.125 C20.94099609 14.45886719 21.81949219 14.79273438 22.72460938 15.13671875 C25.46579479 16.15344934 28.22075136 17.09271356 31 18 C31.84667236 18.28190186 32.69334473 18.56380371 33.56567383 18.85424805 C43.95359169 21.88604772 54.82337008 21.97884221 65.5625 22.5625 C68.58992572 22.72974115 71.61695432 22.90041025 74.64353943 23.08226013 C76.51499404 23.19456318 78.38697618 23.29846929 80.25941467 23.39295959 C81.10136887 23.44318771 81.94332306 23.49341583 82.81079102 23.54516602 C83.54959 23.58497086 84.28838898 23.6247757 85.04957581 23.66578674 C87 24 87 24 90 26 C87.45955299 25.89838212 84.9191065 25.79675161 82.37866211 25.69506836 C80.14641128 25.60583092 77.91415199 25.51680492 75.68188477 25.42797852 C69.80593911 25.19386234 63.93017191 24.95637547 58.0546875 24.7109375 C56.94472412 24.66509521 55.83476074 24.61925293 54.69116211 24.57202148 C52.56952544 24.48430318 50.44794004 24.39533324 48.32641602 24.30493164 C45.55122808 24.1909896 42.77593192 24.09370013 40 24 C39.21383301 23.96213379 38.42766602 23.92426758 37.61767578 23.88525391 C33.47078584 23.75215318 32.31798965 23.73500863 29 26.5 C28.01 27.7375 28.01 27.7375 27 29 C27.598125 29.103125 28.19625 29.20625 28.8125 29.3125 C31 30 31 30 32.3125 31.40625 C34.42981984 33.40594096 36.47087147 34.16435419 39.1875 35.1875 C40.08855469 35.53167969 40.98960938 35.87585938 41.91796875 36.23046875 C42.60503906 36.48441406 43.29210938 36.73835938 44 37 C44 37.66 44 38.32 44 39 C45.65 39 47.3 39 49 39 C49 39.66 49 40.32 49 41 C49.804375 40.9175 50.60875 40.835 51.4375 40.75 C56.18189247 41.08293982 59.78455517 42.90164524 64 45 C64 45.99 64 46.98 64 48 C18.48320915 33.36960294 18.48320915 33.36960294 6 16 C5.52691406 15.36191406 5.05382812 14.72382812 4.56640625 14.06640625 C1.32453542 9.35513221 0.30548294 5.70234824 0 0 Z " fill="#990341" transform="translate(9,48)"/>
<path d="M0 0 C2.66314939 0.02368872 5.32529628 0.02051967 7.98852539 0.01391602 C18.19175615 0.03197859 28.02730633 0.65982269 38.09985352 2.33618164 C38.09985352 2.66618164 38.09985352 2.99618164 38.09985352 3.33618164 C36.58004883 3.3187793 36.58004883 3.3187793 35.02954102 3.30102539 C33.67798037 3.29163955 32.32641772 3.28254021 30.97485352 3.27368164 C30.30969727 3.26530273 29.64454102 3.25692383 28.95922852 3.24829102 C25.8198156 3.23290174 22.89343526 3.37156066 19.79516602 3.90258789 C17.09985352 4.33618164 17.09985352 4.33618164 14.09985352 3.33618164 C11.58617297 3.25149994 9.10115977 3.22016279 6.58813477 3.23852539 C5.85991013 3.23994034 5.13168549 3.24135529 4.38139343 3.24281311 C2.05833813 3.24840505 -0.26462037 3.26095602 -2.58764648 3.27368164 C-4.16381697 3.27869768 -5.73998896 3.28326041 -7.31616211 3.28735352 C-11.17752747 3.29837184 -15.03882057 3.3156309 -18.90014648 3.33618164 C-19.23014648 3.99618164 -19.56014648 4.65618164 -19.90014648 5.33618164 C-21.88014648 5.33618164 -23.86014648 5.33618164 -25.90014648 5.33618164 C-26.23014648 5.99618164 -26.56014648 6.65618164 -26.90014648 7.33618164 C-28.88014648 7.33618164 -30.86014648 7.33618164 -32.90014648 7.33618164 C-33.23014648 7.99618164 -33.56014648 8.65618164 -33.90014648 9.33618164 C-33.26101318 9.32570801 -32.62187988 9.31523437 -31.96337891 9.30444336 C-29.00484313 9.2622967 -26.04637087 9.23667219 -23.08764648 9.21118164 C-22.08282227 9.19442383 -21.07799805 9.17766602 -20.04272461 9.16040039 C-13.11069105 9.1158214 -6.67074065 9.85352098 0.09985352 11.33618164 C0.09985352 11.66618164 0.09985352 11.99618164 0.09985352 12.33618164 C-0.85679199 12.34552734 -1.8134375 12.35487305 -2.79907227 12.36450195 C-6.41897688 12.40500037 -10.0380837 12.47090819 -13.6574707 12.54370117 C-15.21075023 12.57156987 -16.76416259 12.59295005 -18.31762695 12.60717773 C-31.73430937 12.73726838 -45.77730944 13.93124523 -56.90014648 22.33618164 C-58.64269438 24.14271077 -60.20534625 25.9719044 -61.70874023 27.98071289 C-62.1019043 28.42801758 -62.49506836 28.87532227 -62.90014648 29.33618164 C-63.56014648 29.33618164 -64.22014648 29.33618164 -64.90014648 29.33618164 C-65.23014648 30.65618164 -65.56014648 31.97618164 -65.90014648 33.33618164 C-65.57433535 25.67962009 -62.09374884 20.60128256 -56.80639648 15.19555664 C-41.10961914 1.48703776 -19.91961069 -0.18887231 0 0 Z " fill="#04C0D9" transform="translate(73.900146484375,4.663818359375)"/>
<path d="M0 0 C3.16987255 1.05662418 5.28713876 2.22604541 7.9375 4.3125 C14.93831199 9.53213195 25.52634993 13.16052607 34.328125 13.09765625 C35.12734375 13.09443359 35.9265625 13.09121094 36.75 13.08789062 C37.575 13.07951172 38.4 13.07113281 39.25 13.0625 C40.09046875 13.05798828 40.9309375 13.05347656 41.796875 13.04882812 C43.86461401 13.03707961 45.93231624 13.01914522 48 13 C47.67 13.99 47.34 14.98 47 16 C39.77998751 16.94048259 32.9983225 16.94214841 25.75 16.25390625 C22.96240043 15.95403075 22.96240043 15.95403075 20 16 C19.6050217 20.47642077 20.88140128 23.10177835 23 27 C23.33 27.99 23.66 28.98 24 30 C25.65 30.33 27.3 30.66 29 31 C29 31.66 29 32.32 29 33 C30.485 32.505 30.485 32.505 32 32 C32 32.99 32 33.98 32 35 C33.11375 35.12375 34.2275 35.2475 35.375 35.375 C39 36 39 36 41 38 C43.06874034 38.6425235 43.06874034 38.6425235 45 39 C45 39.33 45 39.66 45 40 C39.03476581 41.46686087 35.8221616 41.40031405 30.5 38.1875 C24.80205898 34.19974044 20.36510878 29.37643102 16 24 C15.25621094 23.11570313 14.51242188 22.23140625 13.74609375 21.3203125 C12 19 12 19 12 17 C11.34 17 10.68 17 10 17 C8.6328125 14.98828125 8.6328125 14.98828125 7.125 12.3125 C4.9845894 8.60350418 2.70270144 5.32640177 0 2 C0 1.34 0 0.68 0 0 Z " fill="#E21C7A" transform="translate(32,125)"/>
<path d="M0 0 C9.62757303 -1.34786022 17.44964728 4.22680116 25.390625 9.06640625 C29.25269987 13.40834971 28.82324404 17.12528439 28.625 22.75 C28.60824219 23.76392822 28.59148437 24.77785645 28.57421875 25.82250977 C28.28867451 34.89639194 26.60610756 43.33236549 24 52 C23.01 52 22.02 52 21 52 C19.3356159 50.05621568 17.85568364 48.13889057 16.375 46.0625 C10.1392006 37.66617615 3.63086897 30.61899629 -5.34765625 25.09375 C-5.89292969 24.7328125 -6.43820313 24.371875 -7 24 C-7 23.67 -7 23.34 -7 23 C-4.3125 22.1875 -4.3125 22.1875 -1 22 C1.4375 24.0625 1.4375 24.0625 4 27 C5.11328117 27.93086401 6.23911451 28.84685719 7.375 29.75 C12.6496299 34.20515786 17.08956061 39.72480872 20 46 C20.66 46 21.32 46 22 46 C22.07347656 45.10861328 22.07347656 45.10861328 22.1484375 44.19921875 C22.659298 38.53571356 23.48398862 33.0217796 24.59765625 27.4453125 C25.10823585 24.75521019 25.10823585 24.75521019 25 21 C24.67 22.65 24.34 24.3 24 26 C23.67 26 23.34 26 23 26 C22.67 20.72 22.34 15.44 22 10 C17.42984885 8.17193954 13.09621009 6.99443418 8.328125 5.87890625 C7.55984375 5.58886719 6.7915625 5.29882812 6 5 C5.67 4.01 5.34 3.02 5 2 C3.35 1.67 1.7 1.34 0 1 C0 0.67 0 0.34 0 0 Z " fill="#272C91" transform="translate(133,15)"/>
<path d="M0 0 C3.47905046 1.15968349 3.81138872 1.83747927 5.625 4.875 C6.05039063 5.57367188 6.47578125 6.27234375 6.9140625 6.9921875 C10.60499972 13.81643833 9.78011456 22.96382193 8 30.3125 C5.27420941 38.19553756 -1.43044225 42.96293798 -8.23828125 47.28515625 C-10 48 -10 48 -13 47 C-12.34 47 -11.68 47 -11 47 C-10.67 45.68 -10.34 44.36 -10 43 C-9.34 43.33 -8.68 43.66 -8 44 C-8 43.34 -8 42.68 -8 42 C-7.34 42 -6.68 42 -6 42 C-5.855625 41.278125 -5.71125 40.55625 -5.5625 39.8125 C-5.04166667 37.20833333 -4.52083333 34.60416667 -4 32 C-3.34 32 -2.68 32 -2 32 C-0.32026817 27.01170548 -1.18849505 21.70171216 -1.453125 16.53125 C-1 13 -1 13 1.515625 10.53125 C2.74539062 9.77328125 2.74539062 9.77328125 4 9 C2.88213958 5.64641875 1.25245881 3.68841859 -1 1 C-0.67 0.67 -0.34 0.34 0 0 Z " fill="#56000D" transform="translate(109,115)"/>
<path d="M0 0 C0.64324219 0.43570313 1.28648438 0.87140625 1.94921875 1.3203125 C16.39750533 10.8425784 31.36753471 17.45537809 49 16 C49.99 15.67 50.98 15.34 52 15 C52.66 15.33 53.32 15.66 54 16 C54.33 15.34 54.66 14.68 55 14 C55.66 14.66 56.32 15.32 57 16 C47.77754021 21.49800488 39.20441202 22.53981342 28.47265625 20.24609375 C18.53272228 17.28847046 10.47703712 12.88683134 2 7 C1.67 7.66 1.34 8.32 1 9 C1.20625 8.2575 1.4125 7.515 1.625 6.75 C2.05154009 3.62203932 1.49700675 2.67404259 0 0 Z " fill="#F9E3F4" transform="translate(30,118)"/>
<path d="M0 0 C5 5 5 5 7.046875 7.41796875 C11.01620223 10.88850486 15.14537726 12.35413587 20.0625 14.125 C20.94099609 14.45886719 21.81949219 14.79273438 22.72460938 15.13671875 C25.46579479 16.15344934 28.22075136 17.09271356 31 18 C31.84667236 18.28190186 32.69334473 18.56380371 33.56567383 18.85424805 C43.95359169 21.88604772 54.82337008 21.97884221 65.5625 22.5625 C68.58992572 22.72974115 71.61695432 22.90041025 74.64353943 23.08226013 C76.51499404 23.19456318 78.38697618 23.29846929 80.25941467 23.39295959 C81.10136887 23.44318771 81.94332306 23.49341583 82.81079102 23.54516602 C83.54959 23.58497086 84.28838898 23.6247757 85.04957581 23.66578674 C87 24 87 24 90 26 C82.72146483 25.72710977 75.44371754 25.43850533 68.16650391 25.13232422 C66.27305719 25.05319946 64.37952534 24.97601972 62.48583984 24.90283203 C53.92559154 24.56545418 45.4873373 23.78290469 37 22.625 C36.13922852 22.5110791 35.27845703 22.3971582 34.39160156 22.27978516 C28.66805079 21.44801575 23.4205258 20.00356372 18 18 C17.13246094 17.68675781 16.26492187 17.37351562 15.37109375 17.05078125 C13.58072917 16.3671875 11.79036458 15.68359375 10 15 C10 15.99 10 16.98 10 18 C5.16119205 15.95717703 3.16257357 12.66660612 1 8 C0.36073584 5.2669141 0.15106359 2.81985368 0 0 Z " fill="#501874" transform="translate(9,48)"/>
<path d="M0 0 C0.99 0.33 1.98 0.66 3 1 C3 1.66 3 2.32 3 3 C4.423125 2.9690625 4.423125 2.9690625 5.875 2.9375 C12.58696034 3.87881151 17.60013397 10.14480224 21.75 15.08203125 C25 19.46768466 25 19.46768466 25 22 C21.92543756 20.8098468 18.92901021 19.50653381 15.9375 18.125 C6.35420349 13.88867522 -2.48644083 11.37282125 -13 11 C-13 10.67 -13 10.34 -13 10 C-12.40832031 9.95101562 -11.81664063 9.90203125 -11.20703125 9.8515625 C-4.82327267 9.37989629 -4.82327267 9.37989629 1 7 C1.89386164 4.45224694 1.89386164 4.45224694 2 2 C1.34 2 0.68 2 0 2 C0 1.34 0 0.68 0 0 Z " fill="#ED0904" transform="translate(125,49)"/>
<path d="M0 0 C0.66 0.66 1.32 1.32 2 2 C3.98821313 2.39764263 5.98944339 2.73775349 8 3 C8 3.33 8 3.66 8 4 C9.06927734 4.29003906 9.06927734 4.29003906 10.16015625 4.5859375 C11.59681641 4.97652344 11.59681641 4.97652344 13.0625 5.375 C14.58230469 5.78685547 14.58230469 5.78685547 16.1328125 6.20703125 C18.24423337 6.79098007 20.34451517 7.41557742 22.4375 8.0625 C27.56372917 9.41150768 32.76487961 10.19195186 38 11 C38 9.68 38 8.36 38 7 C37.36191406 6.82984375 36.72382812 6.6596875 36.06640625 6.484375 C35.24011719 6.24203125 34.41382813 5.9996875 33.5625 5.75 C32.73878906 5.51796875 31.91507813 5.2859375 31.06640625 5.046875 C29 4 29 4 28.21484375 1.890625 C28.14394531 1.26671875 28.07304688 0.6428125 28 0 C29.485 0.8353125 29.485 0.8353125 31 1.6875 C41.8269047 7.10095235 54.37660191 9.74908085 66 13 C66 13.33 66 13.66 66 14 C58.37299701 13.73246132 50.74762987 13.43698436 43.12255859 13.11914062 C40.71205711 13.0271684 38.3061857 12.96030774 35.89453125 12.921875 C22.50174229 12.46511728 8.78192314 8.3010053 -3 2 C-2.01 1.34 -1.02 0.68 0 0 Z " fill="#255DB8" transform="translate(26,58)"/>
<path d="M0 0 C4.28696589 0.55315689 7.84119445 2.16924562 11.7265625 3.95703125 C13.71928911 4.87122026 15.72375722 5.72634305 17.75 6.5625 C20.67738372 7.85730434 23.26828356 9.34659268 26 11 C26.886875 11.309375 27.77375 11.61875 28.6875 11.9375 C31 13 31 13 32.3125 15.125 C32.6528125 16.053125 32.6528125 16.053125 33 17 C32.01 17 31.02 17 30 17 C30 16.34 30 15.68 30 15 C26.62537285 15.54723683 24.91765 16.0549 22 18 C21.74969023 20.58380177 21.74969023 20.58380177 22 23 C21.67 23 21.34 23 21 23 C20.67 24.65 20.34 26.3 20 28 C19.67 28 19.34 28 19 28 C18.95875 26.700625 18.9175 25.40125 18.875 24.0625 C17.8992902 15.76246199 13.0815605 10.63874387 6.75 5.5625 C5.89921875 4.92441406 5.0484375 4.28632812 4.171875 3.62890625 C2 2 2 2 0 0 Z M28 17 C28.66 17.33 29.32 17.66 30 18 C29.01 18.99 28.02 19.98 27 21 C27.33 19.68 27.66 18.36 28 17 Z " fill="#B3014E" transform="translate(73,96)"/>
<path d="M0 0 C5 5 5 5 7.3125 7.5625 C11.8031192 11.63538718 16.37704719 13.99506046 22.4375 14.625 C23.613125 14.74875 24.78875 14.8725 26 15 C26.495 15.99 26.495 15.99 27 17 C11.22747128 17.97227917 -1.64359352 14.14191902 -15 6 C-12.41150579 4.7057529 -11.29019914 5.18289338 -8.5 5.8125 C-7.7059375 5.98394531 -6.911875 6.15539062 -6.09375 6.33203125 C-4 7 -4 7 -2 9 C-0.87483915 7.16715557 -0.87483915 7.16715557 0 5 C-0.33 4.01 -0.66 3.02 -1 2 C-0.67 1.34 -0.34 0.68 0 0 Z " fill="#045407" transform="translate(53,118)"/>
<path d="M0 0 C3.02346601 -0.2519555 4.6402007 -0.20421041 7.3125 1.3125 C9 3 9 3 9 6 C9.598125 6.144375 10.19625 6.28875 10.8125 6.4375 C12.56150404 6.8872439 14.28677023 7.42892341 16 8 C16 8.66 16 9.32 16 10 C16.60585937 10.09152344 17.21171875 10.18304688 17.8359375 10.27734375 C20.53674184 11.1792369 21.13435526 12.18227695 22.625 14.5625 C23.78640808 16.46605303 23.78640808 16.46605303 25 18 C25.66 18 26.32 18 27 18 C27 18.99 27 19.98 27 21 C25.68 21 24.36 21 23 21 C23 22.32 23 23.64 23 25 C19.26512223 24.5020163 17.18762365 24.12508244 14 22 C14 21.34 14 20.68 14 20 C12.02 19.67 10.04 19.34 8 19 C8 18.34 8 17.68 8 17 C6.865625 16.87625 5.73125 16.7525 4.5625 16.625 C3.386875 16.41875 2.21125 16.2125 1 16 C0.67 15.34 0.34 14.68 0 14 C7.55681999 15.32944055 13.6201079 17.7467386 20 22 C15.22527209 14.42683885 9.78014279 8.79631088 3 3 C1.98797289 2.01217354 0.98230498 1.0173873 0 0 Z " fill="#FBECE7" transform="translate(130,49)"/>
<path d="M0 0 C3.88089211 1.2936307 6.69353113 3.26113383 9.953125 5.69140625 C13.68691488 8.07846657 17.84627547 9.50399056 22 11 C20.68 11.33 19.36 11.66 18 12 C18 12.99 18 13.98 18 15 C18 15.99 18 16.98 18 18 C17.34 18 16.68 18 16 18 C16.66 20.31 17.32 22.62 18 25 C13.125 20.375 13.125 20.375 12 17 C11.34 17 10.68 17 10 17 C8.6328125 14.98828125 8.6328125 14.98828125 7.125 12.3125 C4.9845894 8.60350418 2.70270144 5.32640177 0 2 C0 1.34 0 0.68 0 0 Z " fill="#F15691" transform="translate(32,125)"/>
<path d="M0 0 C1.55025879 0.26043091 1.55025879 0.26043091 3.13183594 0.52612305 C10.34455797 1.84455797 10.34455797 1.84455797 12.625 4.125 C9.04153375 4.3087675 5.90216889 4.02874155 2.4375 3.1875 C-10.60922642 0.12662076 -24.32011037 0.51297043 -37.5625 2 C-38.28131348 2.07839111 -39.00012695 2.15678223 -39.74072266 2.23754883 C-43.3634123 2.68704506 -46.18270831 3.37978359 -49.375 5.125 C-52.625 5.25 -52.625 5.25 -55.375 5.125 C-54.375 3.125 -54.375 3.125 -51.57421875 2.08984375 C-49.83591797 1.58130859 -49.83591797 1.58130859 -48.0625 1.0625 C-46.91136719 0.72089844 -45.76023437 0.37929688 -44.57421875 0.02734375 C-43.51847656 -0.27042969 -42.46273437 -0.56820313 -41.375 -0.875 C-40.74795166 -1.05369629 -40.12090332 -1.23239258 -39.47485352 -1.41650391 C-26.99719105 -4.14096038 -12.41446796 -2.08764745 0 0 Z " fill="#0124AE" transform="translate(77.375,18.875)"/>
<path d="M0 0 C1.01009125 -0.00191345 2.0201825 -0.0038269 3.06088257 -0.00579834 C5.18023938 -0.00715011 7.29960475 -0.0035247 9.41894531 0.00488281 C12.64667451 0.01561914 15.87385008 0.00494138 19.1015625 -0.0078125 C21.17187622 -0.00649116 23.24218959 -0.00392931 25.3125 0 C26.2679068 -0.00404846 27.2233136 -0.00809692 28.20767212 -0.01226807 C33.81770178 0.02667881 38.63801924 0.6755015 44.0234375 2.265625 C44.0234375 2.595625 44.0234375 2.925625 44.0234375 3.265625 C43.41923981 3.26118378 42.81504211 3.25674255 42.1925354 3.25216675 C35.86519756 3.20768491 29.53790465 3.17765603 23.21044922 3.15576172 C20.85366001 3.14574658 18.49688309 3.13213058 16.14013672 3.11474609 C12.73922682 3.09029981 9.33848219 3.07909669 5.9375 3.0703125 C4.89542389 3.05998993 3.85334778 3.04966736 2.7796936 3.03903198 C-2.97189667 3.03816338 -8.24797256 3.50934889 -13.85391235 4.82278442 C-16.58525602 5.39261446 -19.19760214 5.41188607 -21.9765625 5.265625 C-21.6465625 4.275625 -21.3165625 3.285625 -20.9765625 2.265625 C-13.90940034 0.58607414 -7.25206576 -0.03086083 0 0 Z " fill="#DAFBFD" transform="translate(61.9765625,2.734375)"/>
<path d="M0 0 C0.66 0.33 1.32 0.66 2 1 C2 5.62 2 10.24 2 15 C2.66 15 3.32 15 4 15 C4 17.31 4 19.62 4 22 C4.66 22.33 5.32 22.66 6 23 C1.64489367 27.72256843 -2.97145358 32.48373715 -9 35 C-9.99 34.67 -10.98 34.34 -12 34 C-11.34 34 -10.68 34 -10 34 C-9.67 32.68 -9.34 31.36 -9 30 C-8.34 30.33 -7.68 30.66 -7 31 C-7 30.34 -7 29.68 -7 29 C-6.34 29 -5.68 29 -5 29 C-4.855625 28.278125 -4.71125 27.55625 -4.5625 26.8125 C-4.04166667 24.20833333 -3.52083333 21.60416667 -3 19 C-2.34 19 -1.68 19 -1 19 C0.26582219 15.13276369 0.1118765 11.26848738 0.0625 7.25 C0.05798828 6.55261719 0.05347656 5.85523438 0.04882812 5.13671875 C0.0371002 3.42444197 0.01916653 1.71220967 0 0 Z " fill="#680520" transform="translate(108,128)"/>
<path d="M0 0 C0.88365234 0.00451172 1.76730469 0.00902344 2.67773438 0.01367188 C4.84768559 0.02540134 7.01760172 0.04333505 9.1875 0.0625 C9.1875 0.3925 9.1875 0.7225 9.1875 1.0625 C5.2275 1.0625 1.2675 1.0625 -2.8125 1.0625 C-2.8125 1.7225 -2.8125 2.3825 -2.8125 3.0625 C-7.4325 3.3925 -12.0525 3.7225 -16.8125 4.0625 C-18.59831009 8.52702523 -19.30077067 10.47275572 -18.8125 15.0625 C-17.75356029 17.44692803 -17.75356029 17.44692803 -15.8125 19.0625 C-13.24188689 19.71017793 -13.24188689 19.71017793 -10.8125 20.0625 C-10.4825 20.7225 -10.1525 21.3825 -9.8125 22.0625 C-2.2225 22.3925 5.3675 22.7225 13.1875 23.0625 C13.1875 23.3925 13.1875 23.7225 13.1875 24.0625 C9.33359183 24.17943501 5.48014488 24.2499962 1.625 24.3125 C-0.00405273 24.36277344 -0.00405273 24.36277344 -1.66601562 24.4140625 C-9.81578967 24.5131479 -14.16861245 23.42608851 -20.25 17.8125 C-21.93214286 14.85192857 -22.56719733 12.48962275 -22.3984375 9.0625 C-21.26951557 5.20911314 -18.21803672 2.96617526 -14.8125 1.0625 C-10.02258967 -0.41673701 -4.9628783 -0.04811142 0 0 Z " fill="#E5A552" transform="translate(94.8125,38.9375)"/>
<path d="M0 0 C5 5 5 5 7.0625 7.5 C10.8220821 10.69964434 14.75131815 12.09727843 19.35546875 13.7890625 C22 15 22 15 24 18 C18.57960425 18.40652968 14.92984325 17.03993514 10 15 C10 15.99 10 16.98 10 18 C5.16119205 15.95717703 3.16257357 12.66660612 1 8 C0.36073584 5.2669141 0.15106359 2.81985368 0 0 Z " fill="#6E0A3E" transform="translate(9,48)"/>
<path d="M0 0 C0.66 0 1.32 0 2 0 C2 0.66 2 1.32 2 2 C2.9075 2.12375 3.815 2.2475 4.75 2.375 C7.58970323 2.92109677 9.52590591 3.57263803 12 5 C11.67 6.32 11.34 7.64 11 9 C2.03617282 9.3319936 -5.89337415 7.87708193 -14 4 C-14 3.67 -14 3.34 -14 3 C-12.60974609 2.80083984 -12.60974609 2.80083984 -11.19140625 2.59765625 C-9.99386719 2.42105469 -8.79632813 2.24445312 -7.5625 2.0625 C-6.36753906 1.88847656 -5.17257813 1.71445312 -3.94140625 1.53515625 C-1.12044324 1.31014787 -1.12044324 1.31014787 0 0 Z " fill="#0678D0" transform="translate(53,60)"/>
<path d="M0 0 C0.45890625 0.40992188 0.9178125 0.81984375 1.390625 1.2421875 C2.00421875 1.78101563 2.6178125 2.31984375 3.25 2.875 C3.85328125 3.40867188 4.4565625 3.94234375 5.078125 4.4921875 C8.56571468 7.22838591 11.23591593 8.25145101 15.67675781 8.22705078 C17.05773651 8.22682419 17.05773651 8.22682419 18.46661377 8.22659302 C19.45216248 8.21627045 20.43771118 8.20594788 21.453125 8.1953125 C22.46848328 8.1924826 23.48384155 8.18965271 24.52996826 8.18673706 C27.77009916 8.17555001 31.00995276 8.15044791 34.25 8.125 C36.44791267 8.1149683 38.64582968 8.10584278 40.84375 8.09765625 C46.22926114 8.07561551 51.61461076 8.04215251 57 8 C57 8.33 57 8.66 57 9 C55.73542969 9.06058594 54.47085938 9.12117188 53.16796875 9.18359375 C51.50780129 9.26800904 49.84764563 9.35265655 48.1875 9.4375 C46.93743164 9.49647461 46.93743164 9.49647461 45.66210938 9.55664062 C44.85966797 9.59853516 44.05722656 9.64042969 43.23046875 9.68359375 C42.49207764 9.72025146 41.75368652 9.75690918 40.99291992 9.79467773 C38.792505 9.94842141 38.792505 9.94842141 36 11 C34.01998809 11.09449003 32.03695165 11.1307174 30.0546875 11.1328125 C28.89582031 11.13410156 27.73695312 11.13539062 26.54296875 11.13671875 C24.72732422 11.13091797 24.72732422 11.13091797 22.875 11.125 C21.65683594 11.12886719 20.43867187 11.13273437 19.18359375 11.13671875 C18.02730469 11.13542969 16.87101562 11.13414063 15.6796875 11.1328125 C14.61476074 11.13168457 13.54983398 11.13055664 12.45263672 11.12939453 C10 11 10 11 9 10 C6.32941149 9.85884839 3.67567762 9.95752893 1 10 C0.67 9.34 0.34 8.68 0 8 C0.66 8 1.32 8 2 8 C1.67 7.4225 1.34 6.845 1 6.25 C0 4 0 4 0 0 Z " fill="#FDEFD2" transform="translate(73,54)"/>
<path d="M0 0 C4.32419982 1.01301185 8.04254998 3.47828278 11.234375 6.5234375 C11.98828125 8.7265625 11.98828125 8.7265625 12.234375 10.5234375 C9.06167704 9.04776403 6.37431841 7.63948813 3.671875 5.3984375 C1.09295106 3.41464985 -0.57293696 2.88831613 -3.765625 2.5234375 C-4.075 3.1628125 -4.384375 3.8021875 -4.703125 4.4609375 C-5.765625 6.5234375 -5.765625 6.5234375 -6.765625 7.5234375 C-7.44102768 13.57608462 -6.69713272 18.20329386 -3.765625 23.5234375 C-2.775625 24.1834375 -1.785625 24.8434375 -0.765625 25.5234375 C-0.078125 28.1484375 -0.078125 28.1484375 0.234375 30.5234375 C-5.07803833 25.81815713 -9.17177397 20.59848421 -10.21875 13.4140625 C-10.4905595 5.45392703 -10.4905595 5.45392703 -7.9609375 2.20703125 C-5.33258368 0.19133642 -3.29641755 -0.16110311 0 0 Z " fill="#47B536" transform="translate(30.765625,87.4765625)"/>
<path d="M0 0 C7.69695911 0.63089829 7.69695911 0.63089829 11 4 C13.48901793 5.2122949 13.48901793 5.2122949 16.1875 6.1875 C17.08855469 6.53167969 17.98960938 6.87585938 18.91796875 7.23046875 C19.60503906 7.48441406 20.29210937 7.73835938 21 8 C21 8.66 21 9.32 21 10 C22.65 10 24.3 10 26 10 C26 10.66 26 11.32 26 12 C27.2065625 11.87625 27.2065625 11.87625 28.4375 11.75 C33.18189247 12.08293982 36.78455517 13.90164524 41 16 C41 16.99 41 17.98 41 19 C26.7111513 14.40715578 13.29042118 8.96333237 0 2 C0 1.34 0 0.68 0 0 Z " fill="#B81B62" transform="translate(32,77)"/>
<path d="M0 0 C5.17385756 0.26440825 10.34759504 0.53102895 15.52124023 0.79956055 C17.27544185 0.8903145 19.02967302 0.98049952 20.78393555 1.07006836 C53.91465434 2.76301688 53.91465434 2.76301688 66 8 C62.42355152 9.2380014 59.66305234 8.74926071 56 8 C56 7.34 56 6.68 56 6 C55.45214844 6.02320312 54.90429688 6.04640625 54.33984375 6.0703125 C49.37114484 6.18342109 44.66417204 5.86939529 39.75 5.125 C34.30480342 4.32456738 28.8909783 3.82672299 23.3984375 3.4921875 C22.7230896 3.45070587 22.0477417 3.40922424 21.35192871 3.3664856 C17.90031255 3.15798742 14.44838733 2.96456031 10.99511719 2.78564453 C9.72055664 2.71200684 8.44599609 2.63836914 7.1328125 2.5625 C5.39862061 2.47162109 5.39862061 2.47162109 3.62939453 2.37890625 C2.76169434 2.25386719 1.89399414 2.12882812 1 2 C0.67 1.34 0.34 0.68 0 0 Z " fill="#9D0D69" transform="translate(51,71)"/>
<path d="M0 0 C0 0.66 0 1.32 0 2 C-4.66446577 4.85579537 -8.69956315 6.52765643 -14 8 C-16.67676547 9.37249963 -16.67676547 9.37249963 -19 11 C-19.721875 11.433125 -20.44375 11.86625 -21.1875 12.3125 C-23.61732027 14.57474646 -23.99623134 16.86322292 -25 20 C-27 22.875 -27 22.875 -29 25 C-29.66 25 -30.32 25 -31 25 C-31.33 26.32 -31.66 27.64 -32 29 C-31.67346828 21.32650447 -28.18387461 16.20111581 -22.8359375 10.82421875 C-16.84222848 5.64073424 -8.2244668 0 0 0 Z " fill="#2DBFCD" transform="translate(40,9)"/>
<path d="M0 0 C4.24994263 -0.05805933 8.49978324 -0.09361654 12.75 -0.125 C13.9565625 -0.14175781 15.163125 -0.15851562 16.40625 -0.17578125 C17.56640625 -0.18222656 18.7265625 -0.18867187 19.921875 -0.1953125 C20.99018555 -0.20578613 22.05849609 -0.21625977 23.15917969 -0.22705078 C26.03654543 0.00292087 27.53060956 0.59256523 30 2 C31.175625 2.33 32.35125 2.66 33.5625 3 C37 4 37 4 40 6 C40 6.66 40 7.32 40 8 C37.37426939 7.35702496 34.74942697 6.71075589 32.125 6.0625 C31.37863281 5.88009766 30.63226563 5.69769531 29.86328125 5.50976562 C24.2265625 4.11328125 24.2265625 4.11328125 22 3 C20.18658158 2.91528636 18.37005839 2.89278917 16.5546875 2.90234375 C15.47832031 2.90556641 14.40195313 2.90878906 13.29296875 2.91210938 C11.60107422 2.92467773 11.60107422 2.92467773 9.875 2.9375 C8.73933594 2.94201172 7.60367188 2.94652344 6.43359375 2.95117188 C3.62234362 2.96298385 0.8111977 2.97945493 -2 3 C-1.34 2.67 -0.68 2.34 0 2 C0 1.34 0 0.68 0 0 Z " fill="#FEFCE6" transform="translate(82,37)"/>
<path d="M0 0 C2.17232664 -0.00216009 4.34412218 -0.02027146 6.51635742 -0.03930664 C15.93762462 -0.07588394 24.96480838 0.68957517 34.2722168 2.18530273 C34.2722168 2.51530273 34.2722168 2.84530273 34.2722168 3.18530273 C33.25901367 3.17370117 32.24581055 3.16209961 31.2019043 3.15014648 C29.85034365 3.14076065 28.498781 3.1316613 27.1472168 3.12280273 C26.14948242 3.11023438 26.14948242 3.11023438 25.1315918 3.09741211 C21.99217888 3.08202283 19.06579854 3.22068175 15.9675293 3.75170898 C13.2722168 4.18530273 13.2722168 4.18530273 10.2722168 3.18530273 C7.9896469 3.03385175 5.70333974 2.93643295 3.41674805 2.86889648 C2.75511154 2.84811539 2.09347504 2.82733429 1.41178894 2.80592346 C-0.69713172 2.74065546 -2.80617455 2.68164929 -4.9152832 2.62280273 C-6.34693635 2.57959584 -7.77857724 2.53598085 -9.21020508 2.49194336 C-12.71593475 2.38499768 -16.22180106 2.28366633 -19.7277832 2.18530273 C-19.7277832 1.85530273 -19.7277832 1.52530273 -19.7277832 1.18530273 C-13.16267958 -0.0773383 -6.65566893 -0.0007378 0 0 Z " fill="#1F89C1" transform="translate(77.727783203125,4.814697265625)"/>
<path d="M0 0 C0.64324219 0.43570313 1.28648438 0.87140625 1.94921875 1.3203125 C8.1656372 5.41729585 14.43275602 8.7475432 21.25 11.73828125 C24 13 24 13 27 15 C26.24074219 14.9278125 25.48148438 14.855625 24.69921875 14.78125 C23.70535156 14.6884375 22.71148437 14.595625 21.6875 14.5 C20.70136719 14.4071875 19.71523438 14.314375 18.69921875 14.21875 C15.95297861 13.95961143 15.95297861 13.95961143 13 14 C11.06380882 12.90161079 9.17138641 11.7246781 7.3125 10.5 C5.82169922 9.52546875 5.82169922 9.52546875 4.30078125 8.53125 C3.54152344 8.0259375 2.78226563 7.520625 2 7 C1.67 7.66 1.34 8.32 1 9 C1.20625 8.2575 1.4125 7.515 1.625 6.75 C2.05154009 3.62203932 1.49700675 2.67404259 0 0 Z " fill="#E0F4E2" transform="translate(30,118)"/>
<path d="M0 0 C-0.95664551 0.0093457 -1.91329102 0.01869141 -2.89892578 0.02832031 C-6.5188304 0.06881873 -10.13793722 0.13472655 -13.75732422 0.20751953 C-15.31060374 0.23538823 -16.86401611 0.25676841 -18.41748047 0.27099609 C-27.96968211 0.36361602 -36.16388388 1.14393237 -45.27294922 4.24902344 C-48 5 -48 5 -51 4 C-39.32611953 -3.95946395 -12.83316219 -6.69665994 0 0 Z " fill="#169DE3" transform="translate(74,17)"/>
<path d="M0 0 C15.85166819 -0.63312876 27.65057193 2.69408108 41 11 C41.495 11.99 41.495 11.99 42 13 C39.0625 12.625 39.0625 12.625 36 12 C35.505 11.01 35.505 11.01 35 10 C33.02 10 31.04 10 29 10 C29 9.01 29 8.02 29 7 C27.35 7.66 25.7 8.32 24 9 C23.67 7.35 23.34 5.7 23 4 C15.41 3.01 7.82 2.02 0 1 C0 0.67 0 0.34 0 0 Z " fill="#E66B1B" transform="translate(92,40)"/>
<path d="M0 0 C2.89589652 -0.02706445 5.79153795 -0.04687029 8.6875 -0.0625 C9.91243164 -0.07506836 9.91243164 -0.07506836 11.16210938 -0.08789062 C19.42440257 -0.1213412 19.42440257 -0.1213412 23 1 C23.33 1.66 23.66 2.32 24 3 C26.54706232 3.65374742 26.54706232 3.65374742 29.5 4.0625 C34.90534351 4.90534351 34.90534351 4.90534351 36 6 C38.32817964 6.36760731 40.6618385 6.70241581 43 7 C43 7.66 43 8.32 43 9 C36.76337644 9.63639016 32.21907483 8.13688705 26.36865234 6.00048828 C17.84253743 3.04081942 8.91873262 2.11370976 0 1 C0 0.67 0 0.34 0 0 Z " fill="#0D71D8" transform="translate(64,17)"/>
<path d="M0 0 C0.99 0 1.98 0 3 0 C-0.75618451 8.18311625 -7.05714678 15.31429013 -13 22 C-14.26706235 18.19881294 -13.57172296 16.6149628 -12 13 C-11.01 12.67 -10.02 12.34 -9 12 C-9 9.69 -9 7.38 -9 5 C-8.34 5.66 -7.68 6.32 -7 7 C-5.35 6.34 -3.7 5.68 -2 5 C-2 4.34 -2 3.68 -2 3 C-1.34 3 -0.68 3 0 3 C0 2.01 0 1.02 0 0 Z " fill="#DF2788" transform="translate(129,127)"/>
<path d="M0 0 C18.34042553 -0.38297872 18.34042553 -0.38297872 27 2 C27 2.33 27 2.66 27 3 C25.88927124 3.03758423 25.88927124 3.03758423 24.75610352 3.07592773 C21.35810351 3.1929172 17.96031183 3.31517147 14.5625 3.4375 C13.39783203 3.47681641 12.23316406 3.51613281 11.03320312 3.55664062 C4.63953328 3.79077501 -1.65265809 4.19215648 -8 5 C-8 4.34 -8 3.68 -8 3 C-5.69 3 -3.38 3 -1 3 C-0.67 2.01 -0.34 1.02 0 0 Z " fill="#1C27A0" transform="translate(77,25)"/>
<path d="M0 0 C1.0725 0.268125 2.145 0.53625 3.25 0.8125 C3.0625 3.1875 3.0625 3.1875 2.25 5.8125 C-0.125 6.9375 -0.125 6.9375 -2.75 7.8125 C-4.62640419 9.02168882 -4.62640419 9.02168882 -5.75 10.8125 C-6.00069913 13.43820704 -6.00069913 13.43820704 -5.75 15.8125 C-5.09 15.8125 -4.43 15.8125 -3.75 15.8125 C-3.75 17.4625 -3.75 19.1125 -3.75 20.8125 C-7.33420281 16.29328776 -8.11606527 12.71569423 -8.0234375 7.046875 C-7.75 4.8125 -7.75 4.8125 -6.1875 1.6875 C-3.75 -0.1875 -3.75 -0.1875 0 0 Z " fill="#0DBC04" transform="translate(30.75,90.1875)"/>
<path d="M0 0 C9.95545456 0.13225845 19.32259002 0.99345123 29 3.4375 C30.2988916 3.7636731 30.2988916 3.7636731 31.62402344 4.09643555 C37.72071405 5.72071405 37.72071405 5.72071405 40 8 C38.86111328 7.98259766 38.86111328 7.98259766 37.69921875 7.96484375 C36.70535156 7.95582031 35.71148437 7.94679688 34.6875 7.9375 C33.70136719 7.92589844 32.71523437 7.91429687 31.69921875 7.90234375 C28.90036151 7.87670138 28.90036151 7.87670138 26 9 C25.4740625 8.071875 25.4740625 8.071875 24.9375 7.125 C20.81040805 2.59851205 13.38971544 2.52543027 7.5625 1.875 C6.83095703 1.78863281 6.09941406 1.70226562 5.34570312 1.61328125 C3.56439906 1.40371607 1.78227719 1.20112132 0 1 C0 0.67 0 0.34 0 0 Z " fill="#0F3FA5" transform="translate(98,7)"/>
<path d="M0 0 C3.53391969 1.48171072 5.59930326 3.45548562 8.125 6.3125 C8.80820313 7.07175781 9.49140625 7.83101562 10.1953125 8.61328125 C12.00891715 11.01179303 13.02777353 13.16851568 14 16 C10.80597022 14.76360138 7.68156679 13.41200997 4.5625 12 C1.09659439 10.44671789 -2.36530465 9.1183678 -6 8 C-2.42355152 6.7619986 0.33694766 7.25073929 4 8 C3.67 6.35 3.34 4.7 3 3 C2.01 2.67 1.02 2.34 0 2 C0 1.34 0 0.68 0 0 Z " fill="#CF2B21" transform="translate(136,55)"/>
<path d="M0 0 C4.08963819 2.28538605 7.46362104 4.95706926 11 8 C10.00856307 12.78580867 7.53584902 16.52824969 5.0625 20.6875 C4.60681641 21.47189453 4.15113281 22.25628906 3.68164062 23.06445312 C3.24142578 23.81017578 2.80121094 24.55589844 2.34765625 25.32421875 C1.94554932 26.00572998 1.54344238 26.68724121 1.12915039 27.3894043 C0 29 0 29 -2 30 C-2 28.35 -2 26.7 -2 25 C-1.34 24.67 -0.68 24.34 0 24 C0.33 23.01 0.66 22.02 1 21 C1.66 21 2.32 21 3 21 C3.12375 20.443125 3.2475 19.88625 3.375 19.3125 C4.05976855 16.77885636 4.99133763 14.42078968 6 12 C6.66 12 7.32 12 8 12 C8 10.35 8 8.7 8 7 C7.21625 6.855625 6.4325 6.71125 5.625 6.5625 C3 6 3 6 1 5 C0.375 2.4375 0.375 2.4375 0 0 Z " fill="#D82781" transform="translate(138,91)"/>
<path d="M0 0 C5.94 0.66 11.88 1.32 18 2 C17.67 2.66 17.34 3.32 17 4 C15.783125 3.896875 14.56625 3.79375 13.3125 3.6875 C9.65330576 3.66177631 9.23120535 3.78530932 6.375 6.4375 C5.59125 7.283125 4.8075 8.12875 4 9 C0.875 10 0.875 10 -2 10 C-3.875 8.5625 -3.875 8.5625 -5 7 C-3.02 6.67 -1.04 6.34 1 6 C0.67 4.02 0.34 2.04 0 0 Z " fill="#A5084C" transform="translate(32,68)"/>
<path d="M0 0 C1.485 0.8353125 1.485 0.8353125 3 1.6875 C7.97962882 4.22684056 13.2538719 5.69239825 18.62695312 7.16088867 C20.44587568 7.68536195 22.22793278 8.33417027 24 9 C24.33 9.99 24.66 10.98 25 12 C19.84828377 12.09038099 15.08086796 11.84681133 10 11 C10 9.68 10 8.36 10 7 C9.36191406 6.82984375 8.72382812 6.6596875 8.06640625 6.484375 C7.24011719 6.24203125 6.41382813 5.9996875 5.5625 5.75 C4.73878906 5.51796875 3.91507813 5.2859375 3.06640625 5.046875 C1 4 1 4 0.21484375 1.890625 C0.14394531 1.26671875 0.07304688 0.6428125 0 0 Z " fill="#1274BD" transform="translate(54,58)"/>
<path d="M0 0 C7.55681999 1.32944055 13.6201079 3.7467386 20 8 C19.01 6.02 18.02 4.04 17 2 C17.66 2 18.32 2 19 2 C19 2.66 19 3.32 19 4 C20.32 4.66 21.64 5.32 23 6 C23 7.65 23 9.3 23 11 C19.26512223 10.5020163 17.18762365 10.12508244 14 8 C14 7.34 14 6.68 14 6 C11.03 5.505 11.03 5.505 8 5 C8 4.34 8 3.68 8 3 C6.865625 2.87625 5.73125 2.7525 4.5625 2.625 C3.386875 2.41875 2.21125 2.2125 1 2 C0.67 1.34 0.34 0.68 0 0 Z " fill="#F7DCCF" transform="translate(130,63)"/>
<path d="M0 0 C4.01351521 2.19443997 7.0297437 4.76046073 10.25 8 C11.12140625 8.86625 11.9928125 9.7325 12.890625 10.625 C15 13 15 13 16 16 C15.34 16 14.68 16 14 16 C14 15.34 14 14.68 14 14 C13.401875 13.855625 12.80375 13.71125 12.1875 13.5625 C10.43849596 13.1127561 8.71322977 12.57107659 7 12 C7 11.01 7 10.02 7 9 C6.38125 8.690625 5.7625 8.38125 5.125 8.0625 C3.75 7.375 2.375 6.6875 1 6 C0.375 2.9375 0.375 2.9375 0 0 Z " fill="#E4EDFA" transform="translate(132,43)"/>
<path d="M0 0 C2.48989249 0.57736637 4.38027891 0.3968197 6.90625 0.0625 C7.70546875 -0.03933594 8.5046875 -0.14117187 9.328125 -0.24609375 C9.93140625 -0.32988281 10.5346875 -0.41367187 11.15625 -0.5 C6.54086538 4.24358974 6.54086538 4.24358974 3.90625 6 C1.60637455 7.97132182 1.47466635 9.5546488 1.15625 12.5 C-0.40625 10.75 -0.40625 10.75 -1.84375 8.5 C-1.53125 6.25 -1.53125 6.25 -0.84375 4.5 C-0.18375 4.5 0.47625 4.5 1.15625 4.5 C1.15625 3.84 1.15625 3.18 1.15625 2.5 C-1.15375 2.5 -3.46375 2.5 -5.84375 2.5 C-5.84375 1.84 -5.84375 1.18 -5.84375 0.5 C-3.64338208 -0.20726112 -2.26136048 -0.6132503 0 0 Z " fill="#0325B6" transform="translate(45.84375,35.5)"/>
<path d="M0 0 C1.98 0 3.96 0 6 0 C3.77885771 3.05407064 1.0591115 3.85985592 -2.54296875 4.6484375 C-14.81862688 6.40489097 -14.81862688 6.40489097 -19.359375 3.48046875 C-19.90078125 2.99191406 -20.4421875 2.50335938 -21 2 C-13.81191259 1.11173825 -7.17757765 0.98797712 0 2 C0 1.34 0 0.68 0 0 Z " fill="#C5246D" transform="translate(91,163)"/>
<path d="M0 0 C0.495 0.46535156 0.99 0.93070313 1.5 1.41015625 C3.12809451 2.98975155 3.12809451 2.98975155 5.0625 4.43359375 C10.02589335 8.2862277 10.02589335 8.2862277 10.5625 11.8125 C10.418125 12.51375 10.27375 13.215 10.125 13.9375 C9.196875 13.1125 8.26875 12.2875 7.3125 11.4375 C3.17050576 7.86652143 -1.25130116 4.72813512 -5.71484375 1.57421875 C-6.42769531 1.03410156 -7.14054687 0.49398437 -7.875 -0.0625 C-7.875 -0.3925 -7.875 -0.7225 -7.875 -1.0625 C-4.20433785 -2.46598847 -3.26408932 -2.34162929 0 0 Z " fill="#1424A3" transform="translate(133.875,39.0625)"/>
<path d="M0 0 C0 0.33 0 0.66 0 1 C-1.98 1 -3.96 1 -6 1 C-6 1.66 -6 2.32 -6 3 C-6.99 3 -7.98 3 -9 3 C-9.33 3.66 -9.66 4.32 -10 5 C-11.98 5 -13.96 5 -16 5 C-16.33 5.66 -16.66 6.32 -17 7 C-19.31 6.67 -21.62 6.34 -24 6 C-24 5.01 -24 4.02 -24 3 C-21.50159546 2.49061655 -19.00176612 1.99236886 -16.5 1.5 C-15.80390625 1.35691406 -15.1078125 1.21382813 -14.390625 1.06640625 C-9.50912797 0.11722627 -4.97281701 -0.13440046 0 0 Z " fill="#2CAFCF" transform="translate(64,5)"/>
<path d="M0 0 C4.00756123 1.33585374 6.99750913 3.34163339 10.3515625 5.82421875 C12.14868084 7.1060496 13.97983386 8.1111269 16 9 C13.66666667 9 11.33333333 9 9 9 C9.33 10.65 9.66 12.3 10 14 C10.66 14 11.32 14 12 14 C12 14.99 12 15.98 12 17 C11.34 17 10.68 17 10 17 C8.6328125 14.98828125 8.6328125 14.98828125 7.125 12.3125 C4.9845894 8.60350418 2.70270144 5.32640177 0 2 C0 1.34 0 0.68 0 0 Z " fill="#E590A9" transform="translate(32,125)"/>
<path d="M0 0 C3.47905046 1.15968349 3.81138872 1.83747927 5.625 4.875 C6.05039063 5.57367188 6.47578125 6.27234375 6.9140625 6.9921875 C10.30461069 13.26104278 9.81306735 21.27501701 8.328125 28.078125 C7.61951075 30.41788902 6.86672664 32.71452439 6 35 C5.67 35 5.34 35 5 35 C6 28 6 28 6.5625 24.5625 C7.6235484 15.92253449 7.04599464 11.20653319 2 4 C1.02769803 2.97304874 0.03578541 1.96288555 -1 1 C-0.67 0.67 -0.34 0.34 0 0 Z " fill="#85032B" transform="translate(109,115)"/>
<path d="M0 0 C0 0.33 0 0.66 0 1 C-13.86 0.67 -27.72 0.34 -42 0 C-42 -0.33 -42 -0.66 -42 -1 C-8.68407161 -2.67202203 -8.68407161 -2.67202203 0 0 Z " fill="#B4E7F6" transform="translate(106,5)"/>
<path d="M0 0 C0 0.66 0 1.32 0 2 C-0.99 2 -1.98 2 -3 2 C-2.34 2.33 -1.68 2.66 -1 3 C-1 3.66 -1 4.32 -1 5 C1.97 5.495 1.97 5.495 5 6 C4.67 6.66 4.34 7.32 4 8 C0.7 8 -2.6 8 -6 8 C-6.33 8.66 -6.66 9.32 -7 10 C-7.99 10.495 -7.99 10.495 -9 11 C-8.8615024 8.02230154 -8.68881566 5.78173508 -6.66796875 3.48828125 C-2.55999284 0 -2.55999284 0 0 0 Z " fill="#0217B7" transform="translate(22,24)"/>
<path d="M0 0 C6.70126536 -0.48736475 11.06561592 0.92291196 17 4 C17 4.99 17 5.98 17 7 C13.37 6.34 9.74 5.68 6 5 C5.67 4.01 5.34 3.02 5 2 C3.35 1.67 1.7 1.34 0 1 C0 0.67 0 0.34 0 0 Z " fill="#0A1099" transform="translate(133,15)"/>
<path d="M0 0 C4.37236486 4.31112725 6.19554829 7.28887595 6.3125 13.5625 C6.29695822 17.29770845 5.9082309 19.76893174 4 23 C3.19411689 20.08949655 2.79983735 17.3203877 2.5625 14.3125 C2.11074897 9.40881541 1.1573861 4.78386253 0 0 Z " fill="#F2C9E2" transform="translate(86,107)"/>
<path d="M0 0 C1.89453125 0.234375 1.89453125 0.234375 4 1 C5.01171875 2.890625 5.01171875 2.890625 5.6875 5.25 C5.9246875 6.05824219 6.161875 6.86648437 6.40625 7.69921875 C7.03120875 10.1209339 7.60160467 12.52994892 8 15 C8.66 15 9.32 15 10 15 C10 16.32 10 17.64 10 19 C10.66 19 11.32 19 12 19 C11.67 20.32 11.34 21.64 11 23 C6.21874216 15.63216005 2.14118424 8.56473695 0 0 Z " fill="#BFEDC2" transform="translate(41,93)"/>
<path d="M0 0 C8.0614841 0.66077739 8.0614841 0.66077739 11 4 C12.546875 4.4640625 12.546875 4.4640625 14.125 4.9375 C15.07375 5.288125 16.0225 5.63875 17 6 C17.6796875 8.06640625 17.6796875 8.06640625 18 10 C11.48180123 8.10463724 5.82185199 5.4821006 0 2 C0 1.34 0 0.68 0 0 Z " fill="#AC2462" transform="translate(32,77)"/>
<path d="M0 0 C0.99 0.33 1.98 0.66 3 1 C3 1.66 3 2.32 3 3 C4.134375 3.12375 5.26875 3.2475 6.4375 3.375 C7.613125 3.58125 8.78875 3.7875 10 4 C10.33 4.66 10.66 5.32 11 6 C8.69 5.67 6.38 5.34 4 5 C3.67 7.31 3.34 9.62 3 12 C-2.28 11.67 -7.56 11.34 -13 11 C-13 10.67 -13 10.34 -13 10 C-12.40832031 9.95101562 -11.81664063 9.90203125 -11.20703125 9.8515625 C-4.82327267 9.37989629 -4.82327267 9.37989629 1 7 C1.89386164 4.45224694 1.89386164 4.45224694 2 2 C1.34 2 0.68 2 0 2 C0 1.34 0 0.68 0 0 Z " fill="#EC2505" transform="translate(125,49)"/>
<path d="M0 0 C7.26 0.99 14.52 1.98 22 3 C22 3.99 22 4.98 22 6 C17.13192655 6.22712629 12.84941911 5.40759628 8.1875 4.125 C7.50751953 3.95097656 6.82753906 3.77695313 6.12695312 3.59765625 C4.3984467 3.13235542 2.69586581 2.5729559 1 2 C0.67 1.34 0.34 0.68 0 0 Z " fill="#F7F5F7" transform="translate(45,131)"/>
<path d="M0 0 C0.66 0.66 1.32 1.32 2 2 C3.98821313 2.39764263 5.98944339 2.73775349 8 3 C8 3.33 8 3.66 8 4 C9.17369141 4.29003906 9.17369141 4.29003906 10.37109375 4.5859375 C11.38300781 4.84632812 12.39492188 5.10671875 13.4375 5.375 C14.44683594 5.63023438 15.45617187 5.88546875 16.49609375 6.1484375 C19 7 19 7 20 9 C12.09136132 8.60456807 2.79373751 6.79373751 -3 1 C-2.01 0.67 -1.02 0.34 0 0 Z " fill="#1A68C4" transform="translate(26,58)"/>
<path d="M0 0 C5 5 5 5 7.0625 7.5 C11.47155654 11.25238854 16.61954383 12.9834016 22 15 C19.10832227 16.20544638 18.06686448 16.02629704 15.08984375 14.85546875 C14.04957031 14.30503906 13.00929688 13.75460938 11.9375 13.1875 C10.89464844 12.64480469 9.85179687 12.10210937 8.77734375 11.54296875 C6 10 6 10 3 8 C3 7.34 3 6.68 3 6 C2.34 6 1.68 6 1 6 C0.67 4.02 0.34 2.04 0 0 Z " fill="#251A61" transform="translate(9,48)"/>
<path d="M0 0 C7.486774 0.2798794 13.36270688 1.47649871 20 5 C20 5.33 20 5.66 20 6 C19.24074219 5.9278125 18.48148438 5.855625 17.69921875 5.78125 C16.70535156 5.6884375 15.71148437 5.595625 14.6875 5.5 C13.20830078 5.36078125 13.20830078 5.36078125 11.69921875 5.21875 C8.95297861 4.95961143 8.95297861 4.95961143 6 5 C2.8125 3.0625 2.8125 3.0625 0 1 C0 0.67 0 0.34 0 0 Z " fill="#E9E9E4" transform="translate(37,127)"/>
<path d="M0 0 C0.98097656 0.32742187 1.96195312 0.65484375 2.97265625 0.9921875 C7.16980492 2.19137284 11.10064102 2.22816407 15.4375 2.125 C16.16904297 2.11597656 16.90058594 2.10695312 17.65429688 2.09765625 C19.43634298 2.07436153 21.21821759 2.0385019 23 2 C22 4 22 4 20.33984375 4.609375 C17.39296195 5.10134191 14.55033466 5.20855027 11.5625 5.25 C9.89380859 5.28867188 9.89380859 5.28867188 8.19140625 5.328125 C4.66987098 4.96605773 2.78979738 4.14840471 0 2 C0 1.34 0 0.68 0 0 Z " fill="#FCDEF2" transform="translate(67,165)"/>
<path d="M0 0 C2.13262124 3.19893186 2.59021548 5.22998243 3 9 C2.67 9.33 2.34 9.66 2 10 C1.76924918 11.34747084 1.58846937 12.70377565 1.4375 14.0625 C1.2209375 16.0115625 1.2209375 16.0115625 1 18 C0.34 18 -0.32 18 -1 18 C-1.22119939 15.37549914 -1.42746669 12.75129514 -1.625 10.125 C-1.68945312 9.37863281 -1.75390625 8.63226563 -1.8203125 7.86328125 C-1.96087365 5.9129953 -1.98759849 3.95530533 -2 2 C-1.34 1.34 -0.68 0.68 0 0 Z " fill="#620114" transform="translate(111,125)"/>
<path d="M0 0 C0.33 0.99 0.66 1.98 1 3 C-2.03409019 7.6736296 -6.01165156 11.50582578 -11 14 C-11.99 14.66 -12.98 15.32 -14 16 C-14.66 15.34 -15.32 14.68 -16 14 C-15.43152344 13.57589844 -14.86304687 13.15179688 -14.27734375 12.71484375 C-9.12443923 8.80070091 -4.44499803 4.7022648 0 0 Z " fill="#EDD4DF" transform="translate(117,147)"/>
<path d="M0 0 C0.33 0 0.66 0 1 0 C1.01417969 0.61746094 1.02835938 1.23492187 1.04296875 1.87109375 C1.4295958 8.73633629 3.30865004 13.26542574 7 19 C7.8971875 20.5159375 7.8971875 20.5159375 8.8125 22.0625 C9.204375 22.701875 9.59625 23.34125 10 24 C9.34 24 8.68 24 8 24 C8 23.34 8 22.68 8 22 C7.071875 21.9071875 7.071875 21.9071875 6.125 21.8125 C4 21 4 21 2.875 18.5 C2.58625 17.675 2.2975 16.85 2 16 C1.34 15.67 0.68 15.34 0 15 C0 10.05 0 5.1 0 0 Z " fill="#C4F2BE" transform="translate(20,94)"/>
<path d="M0 0 C2.97 0.495 2.97 0.495 6 1 C5 4 5 4 4 5 C4.10417827 7.00339546 4.10417827 7.00339546 5 9 C6.9837767 10.28436734 6.9837767 10.28436734 9 11 C5.22089522 11 4.53893899 10.00296038 1.8125 7.5 C1.09707031 6.8503125 0.38164062 6.200625 -0.35546875 5.53125 C-0.89816406 5.0259375 -1.44085937 4.520625 -2 4 C-1.34 3.67 -0.68 3.34 0 3 C0 2.01 0 1.02 0 0 Z " fill="#8D1846" transform="translate(19,63)"/>
<path d="M0 0 C0.99 0.309375 1.98 0.61875 3 0.9375 C5.80021258 1.7547049 8.47366348 2.21196118 11.375 2.5 C12.57125 2.665 13.7675 2.83 15 3 C15.33 3.66 15.66 4.32 16 5 C13.95840905 5.0272616 11.91671037 5.04651345 9.875 5.0625 C8.73804687 5.07410156 7.60109375 5.08570313 6.4296875 5.09765625 C3.1870844 5.005327 0.18067388 4.61389906 -3 4 C-2.01 3.34 -1.02 2.68 0 2 C0 1.34 0 0.68 0 0 Z " fill="#48554C" transform="translate(64,130)"/>
<path d="M0 0 C0.66 0.99 1.32 1.98 2 3 C0.05463044 6.69620217 -1.25715094 8.25333711 -5 10 C-5.33 10.99 -5.66 11.98 -6 13 C-7.65 13 -9.3 13 -11 13 C-11 12.34 -11 11.68 -11 11 C-6.61538462 8 -6.61538462 8 -4 8 C-3.71125 7.4225 -3.4225 6.845 -3.125 6.25 C-1.5625 3.125 -1.5625 3.125 0 0 Z " fill="#AF1D5B" transform="translate(91,126)"/>
<path d="M0 0 C3.02565053 1.70677722 3.49108987 3.10558318 4.4375 6.375 C1.4675 5.88 1.4675 5.88 -1.5625 5.375 C-1.5625 4.385 -1.5625 3.395 -1.5625 2.375 C-3.8725 2.705 -6.1825 3.035 -8.5625 3.375 C-5.8923963 0.45060071 -4.10347615 -1.00084784 0 0 Z " fill="#07330B" transform="translate(60.5625,126.625)"/>
<path d="M0 0 C3.02346601 -0.2519555 4.6402007 -0.20421041 7.3125 1.3125 C9 3 9 3 9 6 C10.32 6.33 11.64 6.66 13 7 C12.67 8.32 12.34 9.64 12 11 C10.56145942 9.73034469 9.12420873 8.45922782 7.6875 7.1875 C6.88699219 6.47980469 6.08648437 5.77210937 5.26171875 5.04296875 C3.45016838 3.40662878 1.70318297 1.74727832 0 0 Z " fill="#FDE0D0" transform="translate(130,49)"/>
<path d="M0 0 C0.88816406 0.01804688 1.77632812 0.03609375 2.69140625 0.0546875 C4.87870848 0.10172626 7.06379816 0.16742991 9.25 0.25 C9.25 0.58 9.25 0.91 9.25 1.25 C5.29 1.25 1.33 1.25 -2.75 1.25 C-2.75 1.91 -2.75 2.57 -2.75 3.25 C-6.38 3.58 -10.01 3.91 -13.75 4.25 C-10.09018696 -0.97242984 -5.79569289 -0.222582 0 0 Z " fill="#E9A52F" transform="translate(94.75,38.75)"/>
<path d="M0 0 C0.66 0.33 1.32 0.66 2 1 C-1.55015735 5.59506182 -4.47710509 8.76454254 -10 11 C-9.6783251 8.02450717 -9.48410699 6.44952792 -7.25 4.375 C-6.5075 3.92125 -5.765 3.4675 -5 3 C-4.13375 2.4225 -3.2675 1.845 -2.375 1.25 C-1.59125 0.8375 -0.8075 0.425 0 0 Z " fill="#0FC7D7" transform="translate(26,16)"/>
<path d="M0 0 C6.625 -0.25 6.625 -0.25 10 2 C8.35 2 6.7 2 5 2 C5.33 3.98 5.66 5.96 6 8 C5.01 8.33 4.02 8.66 3 9 C2.01 6.03 1.02 3.06 0 0 Z " fill="#ED3E8C" transform="translate(44,135)"/>
<path d="M0 0 C0.66 0 1.32 0 2 0 C2.38613383 2.62571005 2.38493778 4.3843879 0.95703125 6.66796875 C-0.375 8.3125 -0.375 8.3125 -3 11 C-3.66 11 -4.32 11 -5 11 C-5.33 12.32 -5.66 13.64 -6 15 C-5.62834433 9.05350921 -3.85341397 4.62169588 0 0 Z " fill="#4CC1D6" transform="translate(14,23)"/>
<path d="M0 0 C-0.33 0.66 -0.66 1.32 -1 2 C-7.34616009 3.36145995 -12.94913762 3.28588134 -19 1 C-19 0.67 -19 0.34 -19 0 C-16.58373582 -0.19534474 -14.16734771 -0.38153404 -11.75 -0.5625 C-11.06808594 -0.61857422 -10.38617188 -0.67464844 -9.68359375 -0.73242188 C-6.2579419 -0.98186254 -3.27298823 -1.13879745 0 0 Z " fill="#C91E6F" transform="translate(80,139)"/>
<path d="M0 0 C4.5076467 0.53031138 7.41954788 2.25221116 11 5 C11 5.66 11 6.32 11 7 C12.32 7.66 13.64 8.32 15 9 C15 9.99 15 10.98 15 12 C14.50371094 11.62488281 14.00742188 11.24976562 13.49609375 10.86328125 C10.03090771 8.25288493 6.55537475 5.67408111 3 3.1875 C2.01 2.465625 1.02 1.74375 0 1 C0 0.67 0 0.34 0 0 Z " fill="#AD1F60" transform="translate(73,96)"/>
<path d="M0 0 C5.23724464 0.41076429 8.29192047 1.18285931 12 5 C12.8125 7.25 12.8125 7.25 13 9 C7.94981252 6.65107559 3.93677951 3.93677951 0 0 Z " fill="#30B42B" transform="translate(30,89)"/>
<path d="M0 0 C1.43739513 -0.02712066 2.87493863 -0.04645067 4.3125 -0.0625 C5.51326172 -0.07990234 5.51326172 -0.07990234 6.73828125 -0.09765625 C10.42319251 0.06145045 13.61560838 1.62794934 17 3 C17 3.66 17 4.32 17 5 C11.0870696 4.35729017 5.65755469 2.80996216 0 1 C0 0.67 0 0.34 0 0 Z " fill="#BCE3F2" transform="translate(68,64)"/>
<path d="M0 0 C2.31 0.33 4.62 0.66 7 1 C3.38813161 3.74501997 -0.30395263 6.37012014 -4 9 C-3.46930939 5.17902761 -2.50298434 2.93828597 0 0 Z " fill="#20C703" transform="translate(27,90)"/>
<path d="M0 0 C3.39417765 3.12621626 5.6062718 5.56541027 7 10 C3.2089881 8.55049545 -0.3874638 6.84827434 -4 5 C-2.68 4.67 -1.36 4.34 0 4 C0 2.68 0 1.36 0 0 Z " fill="#BA3D36" transform="translate(143,61)"/>
<path d="M0 0 C1.05380859 -0.01611328 2.10761719 -0.03222656 3.19335938 -0.04882812 C4.70833008 -0.04979492 4.70833008 -0.04979492 6.25390625 -0.05078125 C7.17631104 -0.05376221 8.09871582 -0.05674316 9.04907227 -0.05981445 C11.83776263 0.374894 12.70826295 1.14027384 14.4375 3.3125 C13.56786621 3.14951416 12.69823242 2.98652832 11.80224609 2.81860352 C8.66526422 2.34675883 5.76845346 2.19781745 2.6015625 2.21484375 C1.00634766 2.21967773 1.00634766 2.21967773 -0.62109375 2.22460938 C-2.26271484 2.23717773 -2.26271484 2.23717773 -3.9375 2.25 C-5.05511719 2.25451172 -6.17273438 2.25902344 -7.32421875 2.26367188 C-10.07036804 2.27540756 -12.81640586 2.29182637 -15.5625 2.3125 C-10.62349048 -0.59335262 -5.57879555 -0.01712337 0 0 Z " fill="#FDEBB1" transform="translate(95.5625,37.6875)"/>
<path d="M0 0 C0.99 1.051875 0.99 1.051875 2 2.125 C5.34985941 5.49416695 9.15652564 8.22468725 13 11 C10 12 10 12 7.8125 11.0625 C7.214375 10.711875 6.61625 10.36125 6 10 C6 9.34 6 8.68 6 8 C5.34 8 4.68 8 4 8 C4 7.34 4 6.68 4 6 C2.68 5.67 1.36 5.34 0 5 C0 3.35 0 1.7 0 0 Z " fill="#FCD2EE" transform="translate(50,151)"/>
<path d="M0 0 C0.66 0 1.32 0 2 0 C0.63629701 2.99220268 -0.94908083 5.29026529 -3.125 7.75 C-3.93324219 8.67039063 -3.93324219 8.67039063 -4.7578125 9.609375 C-5.16773437 10.06828125 -5.57765625 10.5271875 -6 11 C-7.25541557 7.23375329 -6.37061958 5.62811066 -5 2 C-3.35 2 -1.7 2 0 2 C0 1.34 0 0.68 0 0 Z " fill="#C9407D" transform="translate(122,138)"/>
<path d="M0 0 C3.17119503 1.09351553 4.00783543 2.0126988 5.8125 4.9375 C7 8 7 8 6 11 C5.65179959 12.66362417 5.31595508 14.32995171 5 16 C4.67 16 4.34 16 4 16 C3.96261719 15.40832031 3.92523438 14.81664063 3.88671875 14.20703125 C3.48131892 9.33428431 2.85719103 6.09944801 0 2 C0 1.34 0 0.68 0 0 Z " fill="#A4235E" transform="translate(88,108)"/>
<path d="M0 0 C0.58265625 0.21527344 1.1653125 0.43054687 1.765625 0.65234375 C-1.234375 2.65234375 -1.234375 2.65234375 -4.234375 2.65234375 C-5.72577521 6.27431569 -7.0218012 9.92800993 -8.234375 13.65234375 C-8.564375 13.65234375 -8.894375 13.65234375 -9.234375 13.65234375 C-10.06534422 6.76717022 -10.06534422 6.76717022 -7.81640625 3.75 C-3.13916662 -0.48843676 -3.13916662 -0.48843676 0 0 Z " fill="#EDC153" transform="translate(82.234375,40.34765625)"/>
<path d="M0 0 C1.47906892 -0.02689216 2.95827483 -0.04634621 4.4375 -0.0625 C5.26121094 -0.07410156 6.08492188 -0.08570312 6.93359375 -0.09765625 C9 0 9 0 10 1 C12.32817964 1.36760731 14.6618385 1.70241581 17 2 C17 2.66 17 3.32 17 4 C10.66606918 4.34548714 5.89738492 3.29342747 0 1 C0 0.67 0 0.34 0 0 Z " fill="#0C55D1" transform="translate(90,22)"/>
<path d="M0 0 C1.65 0.33 3.3 0.66 5 1 C2.25576034 3.94751667 -0.36219655 6.22773678 -4 8 C-4.99 7.67 -5.98 7.34 -7 7 C-6.34 7 -5.68 7 -5 7 C-4.67 5.68 -4.34 4.36 -4 3 C-3.34 3.33 -2.68 3.66 -2 4 C-2 3.34 -2 2.68 -2 2 C-1.34 2 -0.68 2 0 2 C0 1.34 0 0.68 0 0 Z " fill="#7F173E" transform="translate(103,155)"/>
<path d="M0 0 C0.8971875 0.309375 0.8971875 0.309375 1.8125 0.625 C0.843125 1.285 -0.12625 1.945 -1.125 2.625 C-3.87733267 4.87219867 -4.65550363 6.41228525 -5.0625 9.9375 C-5.10375 11.154375 -5.145 12.37125 -5.1875 13.625 C-5.8475 13.295 -6.5075 12.965 -7.1875 12.625 C-7.4850048 4.88987524 -7.4850048 4.88987524 -5.1875 1.625 C-2.1875 -0.375 -2.1875 -0.375 0 0 Z " fill="#FEF8CC" transform="translate(78.1875,40.375)"/>
<path d="M0 0 C0.90105469 0.00902344 1.80210938 0.01804687 2.73046875 0.02734375 C3.41753906 0.03894531 4.10460938 0.05054687 4.8125 0.0625 C5.1425 1.3825 5.4725 2.7025 5.8125 4.0625 C5.3175 3.8975 4.8225 3.7325 4.3125 3.5625 C0.28040828 2.75608166 -4.44775568 2.19262784 -8.1875 4.0625 C-8.1875 3.0725 -8.1875 2.0825 -8.1875 1.0625 C-5.17259443 0.05753148 -3.14568308 -0.04085303 0 0 Z " fill="#E1FAD7" transform="translate(31.1875,85.9375)"/>
<path d="M0 0 C3.22269618 3.79817765 5.74520378 7.57391854 8 12 C7.67 12.66 7.34 13.32 7 14 C5.68 13.67 4.36 13.34 3 13 C3 11.68 3 10.36 3 9 C2.505 8.175 2.01 7.35 1.5 6.5 C0 4 0 4 0 0 Z " fill="#26872A" transform="translate(45,104)"/>
<path d="M0 0 C0.66 0.33 1.32 0.66 2 1 C0.34208274 4.55267985 -1.10174181 7.35376426 -4 10 C-4.66 10.99 -5.32 11.98 -6 13 C-5.63118644 6.85310727 -4.09949571 4.30972626 0 0 Z " fill="#B4CCEC" transform="translate(54,37)"/>
<path d="M0 0 C1.79503184 0.20111561 3.5862074 0.4368851 5.375 0.6875 C6.37273438 0.81511719 7.37046875 0.94273438 8.3984375 1.07421875 C11 2 11 2 12.3515625 4.58203125 C12.56554688 5.37996094 12.77953125 6.17789063 13 7 C8.1725201 5.58707905 4.2837641 3.57025846 0 1 C0 0.67 0 0.34 0 0 Z " fill="#1F7224" transform="translate(38,123)"/>
<path d="M0 0 C2.31 0.33 4.62 0.66 7 1 C7.33 1.99 7.66 2.98 8 4 C10.97 4.495 10.97 4.495 14 5 C14 5.66 14 6.32 14 7 C8.38385727 5.83803944 4.54314542 4.5209377 0 1 C0 0.67 0 0.34 0 0 Z " fill="#C4ECF7" transform="translate(54,57)"/>
<path d="M0 0 C0.66 0 1.32 0 2 0 C3.8725185 3.15987497 4.34846322 5.34113615 4 9 C3.39072482 11.01822402 2.73519522 13.02416285 2 15 C1.67 15 1.34 15 1 15 C0.67 10.05 0.34 5.1 0 0 Z " fill="#010297" transform="translate(155,26)"/>
<path d="M0 0 C-0.66 0 -1.32 0 -2 0 C-2.33 1.32 -2.66 2.64 -3 4 C-5.31 3.67 -7.62 3.34 -10 3 C-10 2.01 -10 1.02 -10 0 C-6.33694766 -0.74926071 -3.57644848 -1.2380014 0 0 Z " fill="#1EB4CE" transform="translate(50,8)"/>
<path d="M0 0 C0.66 0 1.32 0 2 0 C1.67 1.32 1.34 2.64 1 4 C0.34 4 -0.32 4 -1 4 C-1.33 4.99 -1.66 5.98 -2 7 C-2.99 7.33 -3.98 7.66 -5 8 C-5 7.34 -5 6.68 -5 6 C-5.66 6 -6.32 6 -7 6 C-7 5.34 -7 4.68 -7 4 C-6.401875 3.896875 -5.80375 3.79375 -5.1875 3.6875 C-2.70138466 2.90614947 -1.77056558 1.85104584 0 0 Z " fill="#C80257" transform="translate(88,135)"/>
<path d="M0 0 C0.66 0 1.32 0 2 0 C3.03159626 3.09478879 2.97482862 4.52631393 2.5625 7.6875 C2.46066406 8.49574219 2.35882813 9.30398437 2.25390625 10.13671875 C2.17011719 10.75160156 2.08632812 11.36648437 2 12 C2.66 12.33 3.32 12.66 4 13 C2.68 13 1.36 13 0 13 C0 8.71 0 4.42 0 0 Z " fill="#DB126C" transform="translate(118,127)"/>
<path d="M0 0 C1.33333333 1.33333333 2.66666667 2.66666667 4 4 C5.0828125 5.0209375 5.0828125 5.0209375 6.1875 6.0625 C8 8 8 8 9 11 C7.35 10.67 5.7 10.34 4 10 C3.67 8.35 3.34 6.7 3 5 C2.01 4.67 1.02 4.34 0 4 C0 2.68 0 1.36 0 0 Z " fill="#C7D0EA" transform="translate(148,59)"/>
<path d="M0 0 C-1.1196986 1.00593243 -2.2459412 2.0045849 -3.375 3 C-4.00148438 3.556875 -4.62796875 4.11375 -5.2734375 4.6875 C-7 6 -7 6 -9 6 C-8.814375 5.38125 -8.62875 4.7625 -8.4375 4.125 C-7.76313824 1.95839822 -7.76313824 1.95839822 -9 0 C-3.375 -1.125 -3.375 -1.125 0 0 Z " fill="#0B189D" transform="translate(57,36)"/>
<path d="M0 0 C1.98 0 3.96 0 6 0 C3.77682992 2.55664559 2.31154106 3.3936615 -1 4 C-2.74886981 4.06624507 -4.50002748 4.08552595 -6.25 4.0625 C-7.14203125 4.05347656 -8.0340625 4.04445312 -8.953125 4.03515625 C-9.62859375 4.02355469 -10.3040625 4.01195312 -11 4 C-11 3.67 -11 3.34 -11 3 C-5.555 2.505 -5.555 2.505 0 2 C0 1.34 0 0.68 0 0 Z " fill="#A0215B" transform="translate(91,163)"/>
<path d="M0 0 C3.33717549 1.3809002 5.22301036 2.8201238 7 6 C6.6875 8.25 6.6875 8.25 6 10 C0.42857143 3.71428571 0.42857143 3.71428571 0 0 Z " fill="#E02983" transform="translate(49,147)"/>
<path d="M0 0 C0.75 1.625 0.75 1.625 1 4 C-2.136 9.712 -2.136 9.712 -6 11 C-4.54955729 6.89041233 -2.48889248 3.56741255 0 0 Z " fill="#FBC6E9" transform="translate(142,112)"/>
<path d="M0 0 C0.99 0.99 1.98 1.98 3 3 C2.6875 6.6875 2.6875 6.6875 2 10 C1.01 10 0.02 10 -1 10 C-0.67 6.7 -0.34 3.4 0 0 Z " fill="#9A0B49" transform="translate(93,118)"/>
<path d="M0 0 C9.41002278 -0.18451025 9.41002278 -0.18451025 14 1 C13.01 2.485 13.01 2.485 12 4 C10.68 3.67 9.36 3.34 8 3 C8 2.34 8 1.68 8 1 C5.69 1.33 3.38 1.66 1 2 C0.67 1.34 0.34 0.68 0 0 Z " fill="#BE015A" transform="translate(55,73)"/>
<path d="M0 0 C0 0.66 0 1.32 0 2 C-0.99 2 -1.98 2 -3 2 C-3 2.99 -3 3.98 -3 5 C-4.875 7.0625 -4.875 7.0625 -7 9 C-7.66 9.66 -8.32 10.32 -9 11 C-8.8615024 8.02230154 -8.68881566 5.78173508 -6.66796875 3.48828125 C-2.55999284 0 -2.55999284 0 0 0 Z " fill="#0136AB" transform="translate(22,24)"/>
<path d="M0 0 C0.66 0.33 1.32 0.66 2 1 C-0.35700047 4.79738964 -2.90552223 6.2939676 -7 8 C-7.99 8 -8.98 8 -10 8 C-6.7 5.36 -3.4 2.72 0 0 Z " fill="#40CACD" transform="translate(25,14)"/>
<path d="M0 0 C3.375 0.3125 3.375 0.3125 7 1 C7.66 1.99 8.32 2.98 9 4 C8.01 4 7.02 4 6 4 C6 3.34 6 2.68 6 2 C4.02 2.33 2.04 2.66 0 3 C0 2.01 0 1.02 0 0 Z M4 4 C4.66 4.33 5.32 4.66 6 5 C5.01 5.99 4.02 6.98 3 8 C3.33 6.68 3.66 5.36 4 4 Z " fill="#99003A" transform="translate(97,109)"/>
<path d="M0 0 C0.99 0.33 1.98 0.66 3 1 C2.01 2.485 2.01 2.485 1 4 C0.5396236 7.19806665 0.5396236 7.19806665 0.375 10.6875 C0.30023437 11.86699219 0.22546875 13.04648438 0.1484375 14.26171875 C0.09945313 15.16535156 0.05046875 16.06898437 0 17 C-0.33 17 -0.66 17 -1 17 C-1.22185844 14.73044814 -1.42705515 12.45926245 -1.625 10.1875 C-1.74101562 8.92292969 -1.85703125 7.65835938 -1.9765625 6.35546875 C-2 3 -2 3 0 0 Z " fill="#E9FEE3" transform="translate(20,90)"/>
<path d="M0 0 C0.88935377 3.303314 1.46274105 6.62294375 2 10 C1.01 10 0.02 10 -1 10 C-2.25 3.375 -2.25 3.375 0 0 Z " fill="#DBF6FE" transform="translate(51,44)"/>
<path d="M0 0 C1.5994614 3.19892281 2.42595236 5.35462576 3.125 8.75 C3.29257813 9.54921875 3.46015625 10.3484375 3.6328125 11.171875 C3.81457031 12.07679687 3.81457031 12.07679687 4 13 C2.68 12.34 1.36 11.68 0 11 C0 7.37 0 3.74 0 0 Z " fill="#215DAA" transform="translate(8,38)"/>
<path d="M0 0 C0 0.66 0 1.32 0 2 C-1.6232687 2.6708712 -3.24867578 3.33657029 -4.875 4 C-6.23238281 4.556875 -6.23238281 4.556875 -7.6171875 5.125 C-10 6 -10 6 -12 6 C-12 5.34 -12 4.68 -12 4 C-11.34 4 -10.68 4 -10 4 C-10 3.34 -10 2.68 -10 2 C-3.375 0 -3.375 0 0 0 Z " fill="#192094" transform="translate(69,29)"/>
<path d="M0 0 C1.60517097 0.08733576 3.20921662 0.19552224 4.8125 0.3125 C6.15248047 0.39951172 6.15248047 0.39951172 7.51953125 0.48828125 C10.30604 1.06313581 11.24135754 1.8206856 13 4 C8.28596212 3.52060632 4.33420699 3.03165952 0 1 C0 0.67 0 0.34 0 0 Z " fill="#FCCBEC" transform="translate(49,134)"/>
<path d="M0 0 C0.33 1.32 0.66 2.64 1 4 C0.38125 4.2475 -0.2375 4.495 -0.875 4.75 C-3.37818306 6.22246063 -3.83045281 7.41028837 -5 10 C-5.99 10.495 -5.99 10.495 -7 11 C-5.22054913 6.95579349 -2.60470327 3.53921513 0 0 Z " fill="#FAB7E0" transform="translate(131,129)"/>
<path d="M0 0 C0.66 0.99 1.32 1.98 2 3 C0.68 4.32 -0.64 5.64 -2 7 C-2.99 6.34 -3.98 5.68 -5 5 C-5 4.34 -5 3.68 -5 3 C-2.5 1.375 -2.5 1.375 0 0 Z " fill="#056504" transform="translate(52,121)"/>
<path d="M0 0 C2.97 0.99 5.94 1.98 9 3 C8.01 3.495 8.01 3.495 7 4 C7 4.66 7 5.32 7 6 C4.12549673 4.71142957 2.07476576 3.38598062 0 1 C0 0.67 0 0.34 0 0 Z " fill="#C6035B" transform="translate(83,100)"/>
<path d="M0 0 C2.31 0.66 4.62 1.32 7 2 C7.33 3.32 7.66 4.64 8 6 C8.66 6 9.32 6 10 6 C9.67 6.66 9.34 7.32 9 8 C7.49712782 6.85793642 5.99776716 5.71125043 4.5 4.5625 C3.6646875 3.92441406 2.829375 3.28632812 1.96875 2.62890625 C1.3190625 2.09136719 0.669375 1.55382812 0 1 C0 0.67 0 0.34 0 0 Z " fill="#F7BBE0" transform="translate(138,90)"/>
<path d="M0 0 C3.93673644 1.31224548 6.22719294 2.91910327 9 6 C5.26512223 5.5020163 3.18762365 5.12508244 0 3 C0 2.01 0 1.02 0 0 Z " fill="#161A89" transform="translate(150,20)"/>
<path d="M0 0 C0.99 0.66 1.98 1.32 3 2 C-2.2734375 5.22265625 -2.2734375 5.22265625 -4 6 C-4.66 5.67 -5.32 5.34 -6 5 C-5.67 3.68 -5.34 2.36 -5 1 C-3.35 1.33 -1.7 1.66 0 2 C0 1.34 0 0.68 0 0 Z " fill="#F0CDE1" transform="translate(84,132)"/>
<path d="M0 0 C1.43931117 0.45261358 2.87638999 0.91232979 4.3125 1.375 C5.11300781 1.63023438 5.91351563 1.88546875 6.73828125 2.1484375 C9 3 9 3 12 5 C8.7 4.67 5.4 4.34 2 4 C2 3.34 2 2.68 2 2 C1.34 2 0.68 2 0 2 C0 1.34 0 0.68 0 0 Z " fill="#BB286E" transform="translate(105,75)"/>
<path d="M0 0 C2.5 2.25 2.5 2.25 5 5 C5 6.32 5 7.64 5 9 C2.5 6.75 2.5 6.75 0 4 C0 2.68 0 1.36 0 0 Z " fill="#101996" transform="translate(144,50)"/>
<path d="M0 0 C1.32 0 2.64 0 4 0 C4.66 1.65 5.32 3.3 6 5 C5.01 5.495 5.01 5.495 4 6 C2 4.6875 2 4.6875 0 3 C0 2.01 0 1.02 0 0 Z " fill="#0C6BCB" transform="translate(12,49)"/>
<path d="M0 0 C1.64936913 0.78427352 3.29441127 1.57765259 4.9375 2.375 C5.85402344 2.81585938 6.77054688 3.25671875 7.71484375 3.7109375 C10 5 10 5 11 7 C8.0625 6.625 8.0625 6.625 5 6 C4.67 5.34 4.34 4.68 4 4 C1.97536745 3.34786708 1.97536745 3.34786708 0 3 C0 2.01 0 1.02 0 0 Z " fill="#D64B21" transform="translate(123,46)"/>
<path d="M0 0 C0.66 0.33 1.32 0.66 2 1 C2 1.66 2 2.32 2 3 C2.66 3 3.32 3 4 3 C3.67 3.99 3.34 4.98 3 6 C0.0280615 4.87548273 -2.33440687 3.77706209 -5 2 C-3.35 2 -1.7 2 0 2 C0 1.34 0 0.68 0 0 Z " fill="#1C48A7" transform="translate(123,32)"/>
<path d="M0 0 C1.93607846 2.8471742 1.98954766 4.15417196 1.75 7.6875 C1.5025 8.780625 1.255 9.87375 1 11 C0.01 11.495 0.01 11.495 -1 12 C-1.08159574 7.83861737 -0.98248524 4.0527516 0 0 Z " fill="#010390" transform="translate(156,51)"/>
<path d="M0 0 C5.875 4.625 5.875 4.625 7 8 C6.34 8 5.68 8 5 8 C5 7.34 5 6.68 5 6 C3.68 5.67 2.36 5.34 1 5 C0.67 3.35 0.34 1.7 0 0 Z " fill="#CEDBF5" transform="translate(141,51)"/>
<path d="M0 0 C2.31 0.66 4.62 1.32 7 2 C7 3.65 7 5.3 7 7 C5.83040013 6.02433888 4.66438823 5.044375 3.5 4.0625 C2.8503125 3.51722656 2.200625 2.97195312 1.53125 2.41015625 C1.0259375 1.94480469 0.520625 1.47945312 0 1 C0 0.67 0 0.34 0 0 Z " fill="#1E2699" transform="translate(137,46)"/>
<path d="M0 0 C0.66 0 1.32 0 2 0 C3.50156874 3.00313748 3.09281204 5.79067522 3.0625 9.125 C3.05347656 10.40632813 3.04445312 11.68765625 3.03515625 13.0078125 C3.02355469 13.99523438 3.01195312 14.98265625 3 16 C2.67 16 2.34 16 2 16 C1.93941406 15.18015625 1.87882813 14.3603125 1.81640625 13.515625 C1.73261719 12.43796875 1.64882812 11.3603125 1.5625 10.25 C1.48128906 9.18265625 1.40007812 8.1153125 1.31640625 7.015625 C1.05909227 4.56320038 0.68187782 2.36078709 0 0 Z " fill="#070B7A" transform="translate(157,26)"/>
<path d="M0 0 C0.33 0.66 0.66 1.32 1 2 C0.06421005 4.35981813 -0.93347808 6.69631264 -2 9 C-2.66 8.67 -3.32 8.34 -4 8 C-4 6.68 -4 5.36 -4 4 C-3.34 4 -2.68 4 -2 4 C-1.34 2.68 -0.68 1.36 0 0 Z " fill="#125CAF" transform="translate(13,30)"/>
<path d="M0 0 C-2.64 1.98 -5.28 3.96 -8 6 C-7.75 3.625 -7.75 3.625 -7 1 C-4.12732844 -1.10662581 -3.46720491 -1.15573497 0 0 Z " fill="#CDFBFC" transform="translate(22,17)"/>
<path d="M0 0 C0.66 0.66 1.32 1.32 2 2 C2.66 1.67 3.32 1.34 4 1 C4 2.65 4 4.3 4 6 C2.68 6.33 1.36 6.66 0 7 C0 4.69 0 2.38 0 0 Z " fill="#F21084" transform="translate(120,132)"/>
<path d="M0 0 C0.66 0.99 1.32 1.98 2 3 C0.6875 5.5 0.6875 5.5 -1 8 C-1.99 8 -2.98 8 -4 8 C-2.66666667 5.33333333 -1.33333333 2.66666667 0 0 Z " fill="#AA2A66" transform="translate(91,126)"/>
<path d="M0 0 C1.70884005 1.62339805 3.37446717 3.29319053 5 5 C5 5.66 5 6.32 5 7 C3.125 6.75 3.125 6.75 1 6 C-0.3125 4.0625 -0.3125 4.0625 -1 2 C-0.67 1.34 -0.34 0.68 0 0 Z " fill="#1F6926" transform="translate(53,118)"/>
<path d="M0 0 C4.8 2.46153846 4.8 2.46153846 5.8125 5.1875 C5.874375 5.785625 5.93625 6.38375 6 7 C3.5625 6.3125 3.5625 6.3125 1 5 C0.1875 2.375 0.1875 2.375 0 0 Z " fill="#DB1675" transform="translate(138,91)"/>
<path d="M0 0 C2.64 0.33 5.28 0.66 8 1 C8.33 1.99 8.66 2.98 9 4 C3.375 4.25 3.375 4.25 0 2 C0 1.34 0 0.68 0 0 Z " fill="#A11958" transform="translate(32,77)"/>
<path d="M0 0 C1.65 1.65 3.3 3.3 5 5 C4.67 5.66 4.34 6.32 4 7 C2.68 7 1.36 7 0 7 C-1.125 2.25 -1.125 2.25 0 0 Z " fill="#2978B9" transform="translate(49,52)"/>
<path d="M0 0 C3.48331435 3.01887244 4.79157144 5.56909529 6 10 C2.46413986 6.82679218 0.41421969 4.83256305 0 0 Z " fill="#E05795" transform="translate(44,140)"/>
<path d="M0 0 C0 0.99 0 1.98 0 3 C0.66 3.33 1.32 3.66 2 4 C-4.625 3.25 -4.625 3.25 -8 1 C-2.25 0 -2.25 0 0 0 Z " fill="#365E39" transform="translate(59,129)"/>
<path d="M0 0 C3.91211733 1.15585285 6.8745041 2.35534962 10 5 C6.28111761 4.49287967 3.26545761 3.88391785 0 2 C0 1.34 0 0.68 0 0 Z " fill="#C62470" transform="translate(118,80)"/>
<path d="M0 0 C0.66 0 1.32 0 2 0 C2 0.66 2 1.32 2 2 C3.32 2.66 4.64 3.32 6 4 C6 5.65 6 7.3 6 9 C5.01 8.67 4.02 8.34 3 8 C3.66 8 4.32 8 5 8 C4.6390625 7.50628906 4.278125 7.01257813 3.90625 6.50390625 C3.4421875 5.86324219 2.978125 5.22257812 2.5 4.5625 C2.0359375 3.92441406 1.571875 3.28632812 1.09375 2.62890625 C0 1 0 1 0 0 Z " fill="#F8E2D9" transform="translate(147,65)"/>
<path d="M0 0 C2.31 0.66 4.62 1.32 7 2 C7 2.66 7 3.32 7 4 C5.02 4 3.04 4 1 4 C0.67 2.68 0.34 1.36 0 0 Z " fill="#1974BC" transform="translate(72,66)"/>
<path d="M0 0 C2.31 0.66 4.62 1.32 7 2 C7.33 3.65 7.66 5.3 8 7 C6.66382648 6.02471263 5.3311249 5.04466681 4 4.0625 C3.2575 3.51722656 2.515 2.97195312 1.75 2.41015625 C1.1725 1.94480469 0.595 1.47945312 0 1 C0 0.67 0 0.34 0 0 Z " fill="#F9CBB9" transform="translate(135,53)"/>
<path d="M0 0 C6.625 -0.25 6.625 -0.25 10 2 C10 2.66 10 3.32 10 4 C6.7 3.01 3.4 2.02 0 1 C0 0.67 0 0.34 0 0 Z " fill="#FEE6C0" transform="translate(112,41)"/>
<path d="M0 0 C1.8125 0.375 1.8125 0.375 4 1 C4.721875 1.144375 5.44375 1.28875 6.1875 1.4375 C6.785625 1.623125 7.38375 1.80875 8 2 C8.33 2.66 8.66 3.32 9 4 C6.69 4 4.38 4 2 4 C2 3.34 2 2.68 2 2 C1.01 1.67 0.02 1.34 -1 1 C-0.67 0.67 -0.34 0.34 0 0 Z " fill="#E5066A" transform="translate(68,161)"/>
<path d="M0 0 C0.66 0.33 1.32 0.66 2 1 C1.979375 1.78375 1.95875 2.5675 1.9375 3.375 C1.81315937 5.98114961 1.81315937 5.98114961 3 8 C0.525 7.01 0.525 7.01 -2 6 C-2 5.01 -2 4.02 -2 3 C-1.34 3 -0.68 3 0 3 C0 2.01 0 1.02 0 0 Z " fill="#F31080" transform="translate(50,140)"/>
<path d="M0 0 C1.65 0.99 3.3 1.98 5 3 C4.625 4.9375 4.625 4.9375 4 7 C3.01 7.495 3.01 7.495 2 8 C2 6.02 2 4.04 2 2 C1.34 2 0.68 2 0 2 C0 1.34 0 0.68 0 0 Z " fill="#D23A85" transform="translate(144,96)"/>
<path d="M0 0 C3.37462715 0.54723683 5.08235 1.0549 8 3 C7.67 3.99 7.34 4.98 7 6 C5.83054208 5.19152271 4.66449539 4.37810888 3.5 3.5625 C2.8503125 3.11003906 2.200625 2.65757813 1.53125 2.19140625 C1.0259375 1.79824219 0.520625 1.40507813 0 1 C0 0.67 0 0.34 0 0 Z " fill="#BF3072" transform="translate(73,96)"/>
<path d="M0 0 C1.9453125 -0.29296875 1.9453125 -0.29296875 4.125 -0.1875 C5.40375 -0.125625 6.6825 -0.06375 8 0 C4.55549263 2.29633824 2.06187717 2.54016485 -2 3 C-1.34 2.01 -0.68 1.02 0 0 Z " fill="#79C55C" transform="translate(25,88)"/>
<path d="M0 0 C2.31 0.66 4.62 1.32 7 2 C7 2.66 7 3.32 7 4 C4.69 3.67 2.38 3.34 0 3 C0 2.01 0 1.02 0 0 Z " fill="#CBEDF8" transform="translate(78,65)"/>
<path d="M0 0 C2.31 0 4.62 0 7 0 C7.33 1.32 7.66 2.64 8 4 C2.25 2.25 2.25 2.25 0 0 Z " fill="#FBD8BC" transform="translate(122,45)"/>
<path d="M0 0 C1.98 0 3.96 0 6 0 C3.87219421 2.34058637 1.88437779 3.70700306 -1 5 C-0.67 3.35 -0.34 1.7 0 0 Z " fill="#23B5DE" transform="translate(17,22)"/>
<path d="M0 0 C3.3 0 6.6 0 10 0 C10.33 0.99 10.66 1.98 11 3 C9.741875 2.87625 8.48375 2.7525 7.1875 2.625 C6.12595703 2.52058594 6.12595703 2.52058594 5.04296875 2.4140625 C3 2 3 2 0 0 Z " fill="#C0D5EE" transform="translate(125,10)"/>
<path d="M0 0 C0.33 0.99 0.66 1.98 1 3 C1.66 3 2.32 3 3 3 C3 4.32 3 5.64 3 7 C2.01 7 1.02 7 0 7 C-0.38133299 5.0085944 -0.71325582 3.00720923 -1 1 C-0.67 0.67 -0.34 0.34 0 0 Z " fill="#760227" transform="translate(105,149)"/>
<path d="M0 0 C0.33 1.32 0.66 2.64 1 4 C-0.32 4.33 -1.64 4.66 -3 5 C-3 5.66 -3 6.32 -3 7 C-3.66 6.67 -4.32 6.34 -5 6 C-3.35 4.02 -1.7 2.04 0 0 Z " fill="#FACBE9" transform="translate(123,140)"/>
<path d="M0 0 C0.66 0 1.32 0 2 0 C2.33 1.98 2.66 3.96 3 6 C2.01 6.33 1.02 6.66 0 7 C-1.33332095 4.3333581 -0.67102033 2.83319697 0 0 Z " fill="#FA298B" transform="translate(47,137)"/>
<path d="M0 0 C3.68802044 1.22934015 4.72356973 2.93859378 7 6 C4.69 5.34 2.38 4.68 0 4 C0 2.68 0 1.36 0 0 Z " fill="#B7326C" transform="translate(50,84)"/>
<path d="M0 0 C0.66 0 1.32 0 2 0 C2 0.66 2 1.32 2 2 C3.32 2.66 4.64 3.32 6 4 C5.01 4.495 5.01 4.495 4 5 C3.67 5.66 3.34 6.32 3 7 C0 2.25 0 2.25 0 0 Z " fill="#5E1E41" transform="translate(10,54)"/>
<path d="M0 0 C1.125 3.75 1.125 3.75 0 6 C-0.66 6 -1.32 6 -2 6 C-2.33 7.32 -2.66 8.64 -3 10 C-2.25 3.375 -2.25 3.375 0 0 Z " fill="#85CCE5" transform="translate(11,28)"/>
</svg>
